<svg xmlns="http://www.w3.org/2000/svg" xmlns:xlink="http://www.w3.org/1999/xlink" viewBox="0 0 355.27 249.12"><defs><style>.cls-1{fill:#fff;}.cls-2{clip-path:url(#clip-path);}.cls-3{clip-path:url(#clip-path-2);}.cls-4{clip-path:url(#clip-path-3);}.cls-5{clip-path:url(#clip-path-4);}.cls-6{clip-path:url(#clip-path-5);}.cls-7{clip-path:url(#clip-path-6);}.cls-8{clip-path:url(#clip-path-7);}</style><clipPath id="clip-path" transform="translate(0 0)"><path class="cls-1" d="M55,142.88a38.63,38.63,0,0,0-8.3,2.28,57.78,57.78,0,0,0-9.5,4.81,59.59,59.59,0,0,0-10.19,8.13,89.63,89.63,0,0,0-10.4,12.34,122.48,122.48,0,0,0-10.14,17.4,66.94,66.94,0,0,0-5,13.54,51.81,51.81,0,0,0-1.52,12,37.08,37.08,0,0,0,2.89,15,35,35,0,0,0,7.61,11.26,33.26,33.26,0,0,0,10.66,7,31.77,31.77,0,0,0,12.14,2.43,29,29,0,0,0,10.4-1.93,25.72,25.72,0,0,0,9.14-6.09,32.36,32.36,0,0,0,6-8.53A18.5,18.5,0,0,0,60.72,225a10.68,10.68,0,0,0-2-6.49,10.44,10.44,0,0,0-5.46-3.82,2.58,2.58,0,0,0-1.94.1,1.2,1.2,0,0,0-.58,1,3.11,3.11,0,0,0,.37,1.39,2.73,2.73,0,0,0,.78,1c.49.4.67,1.24.53,2.53a17,17,0,0,1-1.31,4.56A33.7,33.7,0,0,1,48,231a29.27,29.27,0,0,1-4.78,5.46,25.74,25.74,0,0,1-6.47,4.16,21.35,21.35,0,0,1-8.09,1.89,15.27,15.27,0,0,1-6.82-1.34,14.77,14.77,0,0,1-5.41-4.22,20.11,20.11,0,0,1-3.52-6.79A30.69,30.69,0,0,1,11.66,221,58.54,58.54,0,0,1,15,202.86a92.62,92.62,0,0,1,11.25-22,119.58,119.58,0,0,1,12.52-16.22,73.53,73.53,0,0,1,10.77-9.62,32.41,32.41,0,0,1,8.78-4.61A23.17,23.17,0,0,1,65,149.25a13.43,13.43,0,0,1,2.42.19c.7.14,1.3.27,1.79.4a4.73,4.73,0,0,1,2.42,2.73,13,13,0,0,1,.73,4.61,33.52,33.52,0,0,1-1.79,10,52.16,52.16,0,0,1-5,11,44.29,44.29,0,0,1-7.62,9.52,23.41,23.41,0,0,1-9.56,5.66,1.25,1.25,0,0,1-1.21,0,4.4,4.4,0,0,1-1.1-.75,1.58,1.58,0,0,0-2.42-.1,2.51,2.51,0,0,0-.42,2.19A7.65,7.65,0,0,0,44.65,198a10.91,10.91,0,0,0,3.46,3.07,11.15,11.15,0,0,0,5.73,1.34A19.34,19.34,0,0,0,60.67,201a21.39,21.39,0,0,0,7.41-4.91,48.33,48.33,0,0,0,7.28-8.87A55.2,55.2,0,0,0,80.9,176a34.8,34.8,0,0,0,2.19-11.9,22.83,22.83,0,0,0-3.47-12.19q-3.47-5.64-11.76-9-.73-.1-1.68-.3c-.56-.07-1.21-.13-1.94-.2s-1.6-.1-2.58-.1a47.77,47.77,0,0,0-6.62.55"/></clipPath><clipPath id="clip-path-2" transform="translate(0 0)"><path class="cls-1" d="M90.69,210.29a12.7,12.7,0,0,1,1.06-4.56,32.53,32.53,0,0,1,2.88-5.56,52.33,52.33,0,0,1,4.21-5.65,33.59,33.59,0,0,1,5-4.81,22,22,0,0,1,5.36-3.12,9.16,9.16,0,0,1,5.25-.6,4.41,4.41,0,0,1,1.21.6,4.88,4.88,0,0,1,1,1,4.26,4.26,0,0,1,.68,1.19,1.19,1.19,0,0,1-.11,1.09,39.49,39.49,0,0,1-2.41,3.57q-1.68,2.28-3.78,4.86c-1.41,1.72-2.93,3.47-4.58,5.25s-3.23,3.41-4.77,4.87A41.57,41.57,0,0,1,97.37,212,6.47,6.47,0,0,1,94,213.46h-.19c-2,0-3.07-1.05-3.07-3.17m32.18-31.15a1.46,1.46,0,0,0-.37,1.39,8,8,0,0,1,.16,1.39c0,.53-.74,1.71-2.21,3.57a10.81,10.81,0,0,0-1.84-2.93,11.42,11.42,0,0,0-5.2-3.32,9.17,9.17,0,0,0-2.62-.4,31.44,31.44,0,0,0-9.25,2.08,40.48,40.48,0,0,0-8.62,5,33.85,33.85,0,0,0-8.51,9.62,36,36,0,0,0-3.52,7.29,19.42,19.42,0,0,0-1.11,6.1,11.92,11.92,0,0,0,1.06,5.2,10.85,10.85,0,0,0,2.78,3.71,10.52,10.52,0,0,0,3.89,2.13,11.53,11.53,0,0,0,4.36.44c1.61-.19,3.64-1.17,6.1-2.92a74,74,0,0,0,7.67-6.4,8.48,8.48,0,0,0,2.52,6.77c1.82,1.8,4.66,2.69,8.51,2.69a17.18,17.18,0,0,0,7.77-1.89,33.51,33.51,0,0,0,7.15-4.82,53.76,53.76,0,0,0,6.25-6.45c1.92-2.34,3.69-4.58,5.31-6.69H143l-3.26-1.79q-3.25,3.87-6.4,6.95c-.92.86-1.88,1.7-2.9,2.52s-2,1.57-3,2.23a15.71,15.71,0,0,1-2.94,1.59,7.26,7.26,0,0,1-2.73.6,4.16,4.16,0,0,1-2.94-1.19,3.1,3.1,0,0,1-.79-3,15.78,15.78,0,0,1,1.57-4.26,36.94,36.94,0,0,1,3-4.81c1.23-1.66,2.43-3.26,3.62-4.81s2.25-3,3.16-4.27a10.69,10.69,0,0,0,1.68-3.12,4,4,0,0,0-.32-3.22,9.52,9.52,0,0,0-2.1-2.63,24.47,24.47,0,0,0-3.46-2.48,4.7,4.7,0,0,0-.84-.3,2,2,0,0,0-.41,0,1.54,1.54,0,0,0-1.17.54"/></clipPath><clipPath id="clip-path-3" transform="translate(0 0)"><path class="cls-1" d="M133.49,236.72a11.82,11.82,0,0,1-1.37-5.95,19.19,19.19,0,0,1,1-6.15,64,64,0,0,1,5.58-12.1q3.6-6.15,7.67-12.1a.52.52,0,0,1,.33-.1,44.49,44.49,0,0,1,1.17,5.26,39.24,39.24,0,0,1,.5,6.44,50.93,50.93,0,0,1-.53,7.1A43.87,43.87,0,0,1,146,226.9q-2.2,6.65-4.57,9.42c-1.58,1.85-3.06,2.78-4.47,2.78a4,4,0,0,1-3.46-2.38m20.45-76.58a2,2,0,0,0,.37.75c.17.23.36.48.57.74a4.55,4.55,0,0,1,.53.79,1.55,1.55,0,0,1,.11,1,21.29,21.29,0,0,1-1,4.36,31.92,31.92,0,0,1-2.31,5.21c-1.06,1.95-2.41,4.19-4,6.74s-3.73,5.57-6.26,9.07l-3.36,5.06c-.42,0-.85,0-1.27-.05a9.2,9.2,0,0,1-1.15-.15,3.68,3.68,0,0,1-1.84-.89,3.16,3.16,0,0,1-.79-1.29.8.8,0,0,0-.68-.54,1.29,1.29,0,0,0-.9.24,15.58,15.58,0,0,0-2.1,2.88,4.35,4.35,0,0,0-.21,4,5.63,5.63,0,0,0,4.21,3.67Q130.8,207,128,212.75a92.37,92.37,0,0,0-4.63,10.86,30.52,30.52,0,0,0-1.68,9.62q0,6.24,3,9.87a9.79,9.79,0,0,0,7.94,3.61,16.73,16.73,0,0,0,10.05-2.92,21.88,21.88,0,0,0,6.52-7.54A34.19,34.19,0,0,0,152.64,226a62.05,62.05,0,0,0,1-11,55.45,55.45,0,0,0-.68-9,33,33,0,0,0-1.73-6.7c1.74-.39,3.49-.74,5.23-1s3.37-.54,4.9-.74a31.64,31.64,0,0,1,4-.3,5.45,5.45,0,0,1,2.46.4,1.69,1.69,0,0,1,.78.94c.1.36.19.71.26,1a5.38,5.38,0,0,0,.31,1,1.61,1.61,0,0,0,.84.8,1.49,1.49,0,0,0,1.3-.3,5.22,5.22,0,0,0,1.47-1.49,9.91,9.91,0,0,0,1.14-2.33,8.22,8.22,0,0,0-.41-6.44,8.75,8.75,0,0,0-3.08-3.33,7.64,7.64,0,0,0-4.08-1.09,20.84,20.84,0,0,0-5.79.94c-2.13.63-4.3,1.37-6.53,2.24q2.2-3.18,4.2-6.1c1.33-1.95,2.51-3.77,3.52-5.46a31.12,31.12,0,0,0,2.37-4.66,10.72,10.72,0,0,0-.69-9.72,11.11,11.11,0,0,0-3.31-3.32,11.35,11.35,0,0,0-4.72-1.59,3.28,3.28,0,0,0-.52,0c-.82,0-1.14.44-1,1.33"/></clipPath><clipPath id="clip-path-4" transform="translate(0 0)"><path class="cls-1" d="M194.05,194.42a38.29,38.29,0,0,1,4.73-5,28.79,28.79,0,0,1,4.41-3.22,5.72,5.72,0,0,1,2.95-1,2.73,2.73,0,0,1,.31,1,4.64,4.64,0,0,1-.31,2,13.94,13.94,0,0,1-1.58,3,24,24,0,0,1-3.47,3.92,19,19,0,0,1-6.15,4.06,21,21,0,0,1-4.78,1.39,32,32,0,0,1,3.89-6.15m6.83-14.92a15,15,0,0,0-4.25,1.34,22.52,22.52,0,0,0-3.89,2.38,39.26,39.26,0,0,0-3.42,2.87,49.23,49.23,0,0,0-7.06,8.43,29.37,29.37,0,0,0-3.48,6.89,20.38,20.38,0,0,0-1.16,6.6,14.13,14.13,0,0,0,1.11,5.65A11.24,11.24,0,0,0,182,218a13.8,13.8,0,0,0,5.42,2.63A20.93,20.93,0,0,0,195,221a25.56,25.56,0,0,0,9.56-2.83,40.93,40.93,0,0,0,8.09-5.6,53.37,53.37,0,0,0,6.56-6.94q2.89-3.67,5-6.75l-3-1.58a45.55,45.55,0,0,1-5.26,5.9,59.66,59.66,0,0,1-6.67,5.55,44.46,44.46,0,0,1-7.09,4.21,20.25,20.25,0,0,1-6.72,2,7.51,7.51,0,0,1-2.42-.2,5.82,5.82,0,0,1-2.31-1.14,5.9,5.9,0,0,1-1.68-2.23,8.41,8.41,0,0,1-.63-3.47,16.71,16.71,0,0,1,.73-4.76,16.43,16.43,0,0,0,5.1-.25,27.81,27.81,0,0,0,7.41-2.53,19.65,19.65,0,0,0,4.94-3.17,22.2,22.2,0,0,0,3.46-3.87,14.88,14.88,0,0,0,2-4,10.16,10.16,0,0,0,.52-3.63,4.42,4.42,0,0,0-1-2.67,8.09,8.09,0,0,0-2.2-1.79,16.25,16.25,0,0,0-2.42-1.09c-.77-.26-1.3-.43-1.58-.49a10.83,10.83,0,0,0-2.59-.29,11.24,11.24,0,0,0-1.82.14"/></clipPath><clipPath id="clip-path-5" transform="translate(0 0)"><path class="cls-1" d="M257.36,164.91a25.72,25.72,0,0,0-8,5.71,24.48,24.48,0,0,0-4.83,7.52,20.78,20.78,0,0,0-1.64,7.72A12.14,12.14,0,0,0,245,193a8.13,8.13,0,0,0,6.25,3.44,20.88,20.88,0,0,0,6.54-.28c1.19-.37,1.89-.79,2.09-1.26a2.59,2.59,0,0,0-.23-1.55,2.19,2.19,0,0,0-1.71-1.12c-.79-.19-1.34-1-1.63-2.52a20.06,20.06,0,0,1,0-6,11.58,11.58,0,0,1,1.78-5.13,16.87,16.87,0,0,1,3.57-4,18.77,18.77,0,0,1,4.39-2.67,10.73,10.73,0,0,1,4.09-1,7.22,7.22,0,0,1,6,2.81q2.22,2.81,1.78,10a14.31,14.31,0,0,1-2.15,7.3,36.34,36.34,0,0,1-5.51,7,71.82,71.82,0,0,1-7.29,6.39q-3.93,3-7.51,5.26t-6.32,3.65c-1.83.94-3,1.5-3.49,1.69a2.31,2.31,0,0,0-1.79,1.26c-.3.47-.69,1.19-1.19,2.18a17.18,17.18,0,0,0-1.19,3.09,6.49,6.49,0,0,0-.15,3.08,2.72,2.72,0,0,0,2.09,2c.39.19,1.65,0,3.79-.63s4.63-1.27,7.51-2,5.82-1.32,8.85-1.83a20.75,20.75,0,0,1,7.81-.07,20.43,20.43,0,0,1,5.35,1.82,24.07,24.07,0,0,1,3.42,2.18,10.29,10.29,0,0,1,2,2c.45.6.77,1.05,1,1.33a2,2,0,0,1-.3,2,1.41,1.41,0,0,0,.3,2c.69.65,1.73.68,3.11.07a8.38,8.38,0,0,0,3.7-4,31,31,0,0,0,2.52-5.34,17.73,17.73,0,0,0,.9-4.42,4.68,4.68,0,0,0-1.34-3.72q-1.79-1.68-6.6-3a49.71,49.71,0,0,0-12.83-1.33H270a27.85,27.85,0,0,0-2.82.14q12.48-7.72,18.26-16.22T291.21,180a15.48,15.48,0,0,0-5.85-12.45q-5.85-4.87-17-4.87a25.47,25.47,0,0,0-11,2.26"/></clipPath><clipPath id="clip-path-6" transform="translate(0 0)"><path class="cls-1" d="M324.07,161.2a1.4,1.4,0,0,0-1.18,1,3.89,3.89,0,0,0,.59,2.67q.75,1.54-.89,4.7a61.57,61.57,0,0,1-4.54,7.23c-1.93,2.72-4.12,5.55-6.54,8.5s-4.74,5.73-6.92,8.35l-5.73,6.88a25.58,25.58,0,0,0-2.9,3.93,3,3,0,0,0-.22,2.67,9.58,9.58,0,0,0,1.63,2.74,17.81,17.81,0,0,0,2.53,2.45c1,.75,1.77,1.41,2.46,2a1.93,1.93,0,0,0,.82,1.19,4,4,0,0,0,2.3.49,3.65,3.65,0,0,0,1.79-.28c.89-.28,2-.67,3.34-1.19l4.39-1.69c1.59-.6,3.23-1.24,4.91-1.89q-2.52,4.9-4.84,9.27t-4,7.86c-1.14,2.34-2,4.3-2.68,5.89a11.18,11.18,0,0,0-1,3.23,7.93,7.93,0,0,0,1.93,5.06,18.81,18.81,0,0,0,4.46,4,16.6,16.6,0,0,0,4.84,2.18c1.53.37,2.55.28,3.05-.29a2.29,2.29,0,0,0,.67-1.68,5.11,5.11,0,0,0-.38-1.55,8.6,8.6,0,0,0-1.18-1.68q-.9-1.12,0-4.63a69.17,69.17,0,0,1,2.89-8.5q2-5,4.84-11.09t5.95-12.42q3-.42,5.58-.56c1.73-.1,3.39-.14,5-.14a4,4,0,0,1,2.68.77,12.4,12.4,0,0,1,1.56,1.61c.44.56.84,1.1,1.19,1.62a1.62,1.62,0,0,0,1.41.77c.89,0,1.66-.63,2.31-1.9a11.41,11.41,0,0,0,1-5.12,7.94,7.94,0,0,0-.45-3.51,10.62,10.62,0,0,0-1.42-2.81,6.66,6.66,0,0,0-2.75-2.25,11.56,11.56,0,0,0-5.06-.84,31.79,31.79,0,0,0-4.9.42q2.39-4.63,4.46-8.7t3.79-7.23q1.71-3.17,2.75-5.2a18.14,18.14,0,0,0,1.19-2.59,2.48,2.48,0,0,0-.67-2.6,12.59,12.59,0,0,0-2.75-2.18A28.23,28.23,0,0,0,345.2,164a3.89,3.89,0,0,0-2.46-.63,1.24,1.24,0,0,0-1,1.06,2.67,2.67,0,0,0,.67,1.89,2.39,2.39,0,0,1,.37,2.32q-.3.71-1.71,3.3l-3.57,6.6q-2.16,4-4.91,9c-1.84,3.33-3.74,6.81-5.73,10.46q-4.75,1.68-10.19,4.15A111,111,0,0,0,305.63,208a23.75,23.75,0,0,1,3.94-4.84c1.84-1.83,3.84-3.75,6-5.76s4.43-4,6.77-6.11,4.45-4,6.39-5.89a45.81,45.81,0,0,0,4.69-5.2c1.19-1.59,1.73-2.9,1.63-3.93a15.13,15.13,0,0,0-1.41-5,35.3,35.3,0,0,0-2.31-4.15,32.45,32.45,0,0,0-3.27-3.93,5.08,5.08,0,0,0-1.93-1.54,4.11,4.11,0,0,0-1.72-.45,2.31,2.31,0,0,0-.37,0"/></clipPath><clipPath id="clip-path-7" transform="translate(0 0)"><path class="cls-1" d="M149.12,109.42c-1.57,13.47,6.89,8.8,8.89,4.12,1-2.37.36-4.75-4.12-4.75a22.49,22.49,0,0,0-4.77.63M252,115.28a7,7,0,0,0,6.2-1.68c.85-4.56-1.16-6.28-3.41-6.28-3.41,0-7.37,4-2.79,8m-1.78-13.4a6.25,6.25,0,0,0,8,0v-5a5,5,0,0,0-3.79-1.68c-2.88,0-5.61,2.38-4.19,6.7M98.58,93.52c0,1.06-1.14,1.15-.89,2.5,1.26,19.54,8.1,33.68,19.51,42.69C152.9,167,215.92,140,207.66,93.52c-7.61,8.2-8.3,19.42-15.08,27.62a51,51,0,0,1-32.81,17.57c-37.43,3.81-49.32-20.75-59.42-44.36A1.22,1.22,0,0,0,99,93.48a2.25,2.25,0,0,0-.44,0m116.17,1.67c-3.14,6.3.34,13.13,5.32,13.39,5.48.29,7-3.19,6.43-6.68-.71-4.27-4.57-8.54-8.2-5.88,8.76-7.22,16.6.75,16.85,8.38.68,21.62-29.44,26.94-39,34.31,21.35-2.1,45.37-11.37,48.77-27.62C247.69,97.76,236,88.67,226,88.67c-4.69,0-9,2-11.24,6.52M148.24,32.41c0-8.68-3-20,4.43-23.44,8.32,6.58,3,20.25-1.77,26-10.66,12.66-50.18,21.4-48.78,44.36.44,7.22,6.55,13.06,12.42,15.91,18.4,8.94,86.86,8.35,87.79-9.21,1-18.8-70.23-17.6-68.28-1.67,1.2,9.82,36.74,11,35.47.83-4,2.1-23.85,5.73-25.72-3.34,6.74-10.51,45.78-7.14,44.34,5.85-.77,7-18.27,10.7-32.81,10.89-19.53.24-40.21-5.52-39.91-22.6.34-18.67,27.77-26.09,39.91-39.35,6-6.6,15.87-28.94,3.55-35.15A11.85,11.85,0,0,0,153.61,0c-11.9,0-12,26.13-5.37,32.41"/></clipPath></defs><g id="Layer_2" data-name="Layer 2"><g id="Layer_1-2" data-name="Layer 1"><path class="cls-1" d="M55,142.88a38.63,38.63,0,0,0-8.3,2.28,57.78,57.78,0,0,0-9.5,4.81,59.59,59.59,0,0,0-10.19,8.13,89.63,89.63,0,0,0-10.4,12.34,122.48,122.48,0,0,0-10.14,17.4,66.94,66.94,0,0,0-5,13.54,51.81,51.81,0,0,0-1.52,12,37.08,37.08,0,0,0,2.89,15,35,35,0,0,0,7.61,11.26,33.26,33.26,0,0,0,10.66,7,31.77,31.77,0,0,0,12.14,2.43,29,29,0,0,0,10.4-1.93,25.72,25.72,0,0,0,9.14-6.09,32.36,32.36,0,0,0,6-8.53A18.5,18.5,0,0,0,60.72,225a10.68,10.68,0,0,0-2-6.49,10.44,10.44,0,0,0-5.46-3.82,2.58,2.58,0,0,0-1.94.1,1.2,1.2,0,0,0-.58,1,3.11,3.11,0,0,0,.37,1.39,2.73,2.73,0,0,0,.78,1c.49.4.67,1.24.53,2.53a17,17,0,0,1-1.31,4.56A33.7,33.7,0,0,1,48,231a29.27,29.27,0,0,1-4.78,5.46,25.74,25.74,0,0,1-6.47,4.16,21.35,21.35,0,0,1-8.09,1.89,15.27,15.27,0,0,1-6.82-1.34,14.77,14.77,0,0,1-5.41-4.22,20.11,20.11,0,0,1-3.52-6.79A30.69,30.69,0,0,1,11.66,221,58.54,58.54,0,0,1,15,202.86a92.62,92.62,0,0,1,11.25-22,119.58,119.58,0,0,1,12.52-16.22,73.53,73.53,0,0,1,10.77-9.62,32.41,32.41,0,0,1,8.78-4.61A23.17,23.17,0,0,1,65,149.25a13.43,13.43,0,0,1,2.42.19c.7.14,1.3.27,1.79.4a4.73,4.73,0,0,1,2.42,2.73,13,13,0,0,1,.73,4.61,33.52,33.52,0,0,1-1.79,10,52.16,52.16,0,0,1-5,11,44.29,44.29,0,0,1-7.62,9.52,23.41,23.41,0,0,1-9.56,5.66,1.25,1.25,0,0,1-1.21,0,4.4,4.4,0,0,1-1.1-.75,1.58,1.58,0,0,0-2.42-.1,2.51,2.51,0,0,0-.42,2.19A7.65,7.65,0,0,0,44.65,198a10.91,10.91,0,0,0,3.46,3.07,11.15,11.15,0,0,0,5.73,1.34A19.34,19.34,0,0,0,60.67,201a21.39,21.39,0,0,0,7.41-4.91,48.33,48.33,0,0,0,7.28-8.87A55.2,55.2,0,0,0,80.9,176a34.8,34.8,0,0,0,2.19-11.9,22.83,22.83,0,0,0-3.47-12.19q-3.47-5.64-11.76-9-.73-.1-1.68-.3c-.56-.07-1.21-.13-1.94-.2s-1.6-.1-2.58-.1a47.77,47.77,0,0,0-6.62.55" transform="translate(0 0)"/><g class="cls-2"><rect class="cls-1" y="142.34" width="83.09" height="106.78"/></g><path class="cls-1" d="M90.69,210.29a12.7,12.7,0,0,1,1.06-4.56,32.53,32.53,0,0,1,2.88-5.56,52.33,52.33,0,0,1,4.21-5.65,33.59,33.59,0,0,1,5-4.81,22,22,0,0,1,5.36-3.12,9.16,9.16,0,0,1,5.25-.6,4.41,4.41,0,0,1,1.21.6,4.88,4.88,0,0,1,1,1,4.26,4.26,0,0,1,.68,1.19,1.19,1.19,0,0,1-.11,1.09,39.49,39.49,0,0,1-2.41,3.57q-1.68,2.28-3.78,4.86c-1.41,1.72-2.93,3.47-4.58,5.25s-3.23,3.41-4.77,4.87A41.57,41.57,0,0,1,97.37,212,6.47,6.47,0,0,1,94,213.46h-.19c-2,0-3.07-1.05-3.07-3.17m32.18-31.15a1.46,1.46,0,0,0-.37,1.39,8,8,0,0,1,.16,1.39c0,.53-.74,1.71-2.21,3.57a10.81,10.81,0,0,0-1.84-2.93,11.42,11.42,0,0,0-5.2-3.32,9.17,9.17,0,0,0-2.62-.4,31.44,31.44,0,0,0-9.25,2.08,40.48,40.48,0,0,0-8.62,5,33.85,33.85,0,0,0-8.51,9.62,36,36,0,0,0-3.52,7.29,19.42,19.42,0,0,0-1.11,6.1,11.92,11.92,0,0,0,1.06,5.2,10.85,10.85,0,0,0,2.78,3.71,10.52,10.52,0,0,0,3.89,2.13,11.53,11.53,0,0,0,4.36.44c1.61-.19,3.64-1.17,6.1-2.92a74,74,0,0,0,7.67-6.4,8.48,8.48,0,0,0,2.52,6.77c1.82,1.8,4.66,2.69,8.51,2.69a17.18,17.18,0,0,0,7.77-1.89,33.51,33.51,0,0,0,7.15-4.82,53.76,53.76,0,0,0,6.25-6.45c1.92-2.34,3.69-4.58,5.31-6.69H143l-3.26-1.79q-3.25,3.87-6.4,6.95c-.92.86-1.88,1.7-2.9,2.52s-2,1.57-3,2.23a15.71,15.71,0,0,1-2.94,1.59,7.26,7.26,0,0,1-2.73.6,4.16,4.16,0,0,1-2.94-1.19,3.1,3.1,0,0,1-.79-3,15.78,15.78,0,0,1,1.57-4.26,36.94,36.94,0,0,1,3-4.81c1.23-1.66,2.43-3.26,3.62-4.81s2.25-3,3.16-4.27a10.69,10.69,0,0,0,1.68-3.12,4,4,0,0,0-.32-3.22,9.52,9.52,0,0,0-2.1-2.63,24.47,24.47,0,0,0-3.46-2.48,4.7,4.7,0,0,0-.84-.3,2,2,0,0,0-.41,0,1.54,1.54,0,0,0-1.17.54" transform="translate(0 0)"/><g class="cls-3"><rect class="cls-1" x="79.78" y="178.6" width="63.36" height="41.91"/></g><path class="cls-1" d="M133.49,236.72a11.82,11.82,0,0,1-1.37-5.95,19.19,19.19,0,0,1,1-6.15,64,64,0,0,1,5.58-12.1q3.6-6.15,7.67-12.1a.52.52,0,0,1,.33-.1,44.49,44.49,0,0,1,1.17,5.26,39.24,39.24,0,0,1,.5,6.44,50.93,50.93,0,0,1-.53,7.1A43.87,43.87,0,0,1,146,226.9q-2.2,6.65-4.57,9.42c-1.58,1.85-3.06,2.78-4.47,2.78a4,4,0,0,1-3.46-2.38m20.45-76.58a2,2,0,0,0,.37.75c.17.23.36.48.57.74a4.55,4.55,0,0,1,.53.79,1.55,1.55,0,0,1,.11,1,21.29,21.29,0,0,1-1,4.36,31.92,31.92,0,0,1-2.31,5.21c-1.06,1.95-2.41,4.19-4,6.74s-3.73,5.57-6.26,9.07l-3.36,5.06c-.42,0-.85,0-1.27-.05a9.2,9.2,0,0,1-1.15-.15,3.68,3.68,0,0,1-1.84-.89,3.16,3.16,0,0,1-.79-1.29.8.8,0,0,0-.68-.54,1.29,1.29,0,0,0-.9.24,15.58,15.58,0,0,0-2.1,2.88,4.35,4.35,0,0,0-.21,4,5.63,5.63,0,0,0,4.21,3.67Q130.8,207,128,212.75a92.37,92.37,0,0,0-4.63,10.86,30.52,30.52,0,0,0-1.68,9.62q0,6.24,3,9.87a9.79,9.79,0,0,0,7.94,3.61,16.73,16.73,0,0,0,10.05-2.92,21.88,21.88,0,0,0,6.52-7.54A34.19,34.19,0,0,0,152.64,226a62.05,62.05,0,0,0,1-11,55.45,55.45,0,0,0-.68-9,33,33,0,0,0-1.73-6.7c1.74-.39,3.49-.74,5.23-1s3.37-.54,4.9-.74a31.64,31.64,0,0,1,4-.3,5.45,5.45,0,0,1,2.46.4,1.69,1.69,0,0,1,.78.94c.1.36.19.71.26,1a5.38,5.38,0,0,0,.31,1,1.61,1.61,0,0,0,.84.8,1.49,1.49,0,0,0,1.3-.3,5.22,5.22,0,0,0,1.47-1.49,9.91,9.91,0,0,0,1.14-2.33,8.22,8.22,0,0,0-.41-6.44,8.75,8.75,0,0,0-3.08-3.33,7.64,7.64,0,0,0-4.08-1.09,20.84,20.84,0,0,0-5.79.94c-2.13.63-4.3,1.37-6.53,2.24q2.2-3.18,4.2-6.1c1.33-1.95,2.51-3.77,3.52-5.46a31.12,31.12,0,0,0,2.37-4.66,10.72,10.72,0,0,0-.69-9.72,11.11,11.11,0,0,0-3.31-3.32,11.35,11.35,0,0,0-4.72-1.59,3.28,3.28,0,0,0-.52,0c-.82,0-1.14.44-1,1.33" transform="translate(0 0)"/><g class="cls-4"><rect class="cls-1" x="121.66" y="158.81" width="52.75" height="87.91"/></g><path class="cls-1" d="M194.05,194.42a38.29,38.29,0,0,1,4.73-5,28.79,28.79,0,0,1,4.41-3.22,5.72,5.72,0,0,1,2.95-1,2.73,2.73,0,0,1,.31,1,4.64,4.64,0,0,1-.31,2,13.94,13.94,0,0,1-1.58,3,24,24,0,0,1-3.47,3.92,19,19,0,0,1-6.15,4.06,21,21,0,0,1-4.78,1.39,32,32,0,0,1,3.89-6.15m6.83-14.92a15,15,0,0,0-4.25,1.34,22.52,22.52,0,0,0-3.89,2.38,39.26,39.26,0,0,0-3.42,2.87,49.23,49.23,0,0,0-7.06,8.43,29.37,29.37,0,0,0-3.48,6.89,20.38,20.38,0,0,0-1.16,6.6,14.13,14.13,0,0,0,1.11,5.65A11.24,11.24,0,0,0,182,218a13.8,13.8,0,0,0,5.42,2.63A20.93,20.93,0,0,0,195,221a25.56,25.56,0,0,0,9.56-2.83,40.93,40.93,0,0,0,8.09-5.6,53.37,53.37,0,0,0,6.56-6.94q2.89-3.67,5-6.75l-3-1.58a45.55,45.55,0,0,1-5.26,5.9,59.66,59.66,0,0,1-6.67,5.55,44.46,44.46,0,0,1-7.09,4.21,20.25,20.25,0,0,1-6.72,2,7.51,7.51,0,0,1-2.42-.2,5.82,5.82,0,0,1-2.31-1.14,5.9,5.9,0,0,1-1.68-2.23,8.41,8.41,0,0,1-.63-3.47,16.71,16.71,0,0,1,.73-4.76,16.43,16.43,0,0,0,5.1-.25,27.81,27.81,0,0,0,7.41-2.53,19.65,19.65,0,0,0,4.94-3.17,22.2,22.2,0,0,0,3.46-3.87,14.88,14.88,0,0,0,2-4,10.16,10.16,0,0,0,.52-3.63,4.42,4.42,0,0,0-1-2.67,8.09,8.09,0,0,0-2.2-1.79,16.25,16.25,0,0,0-2.42-1.09c-.77-.26-1.3-.43-1.58-.49a10.83,10.83,0,0,0-2.59-.29,11.24,11.24,0,0,0-1.82.14" transform="translate(0 0)"/><g class="cls-5"><rect class="cls-1" x="177.62" y="179.36" width="46.59" height="41.97"/></g><path class="cls-1" d="M257.36,164.91a25.72,25.72,0,0,0-8,5.71,24.48,24.48,0,0,0-4.83,7.52,20.78,20.78,0,0,0-1.64,7.72A12.14,12.14,0,0,0,245,193a8.13,8.13,0,0,0,6.25,3.44,20.88,20.88,0,0,0,6.54-.28c1.19-.37,1.89-.79,2.09-1.26a2.59,2.59,0,0,0-.23-1.55,2.19,2.19,0,0,0-1.71-1.12c-.79-.19-1.34-1-1.63-2.52a20.06,20.06,0,0,1,0-6,11.58,11.58,0,0,1,1.78-5.13,16.87,16.87,0,0,1,3.57-4,18.77,18.77,0,0,1,4.39-2.67,10.73,10.73,0,0,1,4.09-1,7.22,7.22,0,0,1,6,2.81q2.22,2.81,1.78,10a14.31,14.31,0,0,1-2.15,7.3,36.34,36.34,0,0,1-5.51,7,71.82,71.82,0,0,1-7.29,6.39q-3.93,3-7.51,5.26t-6.32,3.65c-1.83.94-3,1.5-3.49,1.69a2.31,2.31,0,0,0-1.79,1.26c-.3.47-.69,1.19-1.19,2.18a17.18,17.18,0,0,0-1.19,3.09,6.49,6.49,0,0,0-.15,3.08,2.72,2.72,0,0,0,2.09,2c.39.19,1.65,0,3.79-.63s4.63-1.27,7.51-2,5.82-1.32,8.85-1.83a20.75,20.75,0,0,1,7.81-.07,20.43,20.43,0,0,1,5.35,1.82,24.07,24.07,0,0,1,3.42,2.18,10.29,10.29,0,0,1,2,2c.45.6.77,1.05,1,1.33a2,2,0,0,1-.3,2,1.41,1.41,0,0,0,.3,2c.69.65,1.73.68,3.11.07a8.38,8.38,0,0,0,3.7-4,31,31,0,0,0,2.52-5.34,17.73,17.73,0,0,0,.9-4.42,4.68,4.68,0,0,0-1.34-3.72q-1.79-1.68-6.6-3a49.71,49.71,0,0,0-12.83-1.33H270a27.85,27.85,0,0,0-2.82.14q12.48-7.72,18.26-16.22T291.21,180a15.48,15.48,0,0,0-5.85-12.45q-5.85-4.87-17-4.87a25.47,25.47,0,0,0-11,2.26" transform="translate(0 0)"/><g class="cls-6"><rect class="cls-1" x="241.09" y="162.66" width="52.3" height="71.48"/></g><path class="cls-1" d="M324.07,161.2a1.4,1.4,0,0,0-1.18,1,3.89,3.89,0,0,0,.59,2.67q.75,1.54-.89,4.7a61.57,61.57,0,0,1-4.54,7.23c-1.93,2.72-4.12,5.55-6.54,8.5s-4.74,5.73-6.92,8.35l-5.73,6.88a25.58,25.58,0,0,0-2.9,3.93,3,3,0,0,0-.22,2.67,9.58,9.58,0,0,0,1.63,2.74,17.81,17.81,0,0,0,2.53,2.45c1,.75,1.77,1.41,2.46,2a1.93,1.93,0,0,0,.82,1.19,4,4,0,0,0,2.3.49,3.65,3.65,0,0,0,1.79-.28c.89-.28,2-.67,3.34-1.19l4.39-1.69c1.59-.6,3.23-1.24,4.91-1.89q-2.52,4.9-4.84,9.27t-4,7.86c-1.14,2.34-2,4.3-2.68,5.89a11.18,11.18,0,0,0-1,3.23,7.93,7.93,0,0,0,1.93,5.06,18.81,18.81,0,0,0,4.46,4,16.6,16.6,0,0,0,4.84,2.18c1.53.37,2.55.28,3.05-.29a2.29,2.29,0,0,0,.67-1.68,5.11,5.11,0,0,0-.38-1.55,8.6,8.6,0,0,0-1.18-1.68q-.9-1.12,0-4.63a69.17,69.17,0,0,1,2.89-8.5q2-5,4.84-11.09t5.95-12.42q3-.42,5.58-.56c1.73-.1,3.39-.14,5-.14a4,4,0,0,1,2.68.77,12.4,12.4,0,0,1,1.56,1.61c.44.56.84,1.1,1.19,1.62a1.62,1.62,0,0,0,1.41.77c.89,0,1.66-.63,2.31-1.9a11.41,11.41,0,0,0,1-5.12,7.94,7.94,0,0,0-.45-3.51,10.62,10.62,0,0,0-1.42-2.81,6.66,6.66,0,0,0-2.75-2.25,11.56,11.56,0,0,0-5.06-.84,31.79,31.79,0,0,0-4.9.42q2.39-4.63,4.46-8.7t3.79-7.23q1.71-3.17,2.75-5.2a18.14,18.14,0,0,0,1.19-2.59,2.48,2.48,0,0,0-.67-2.6,12.59,12.59,0,0,0-2.75-2.18A28.23,28.23,0,0,0,345.2,164a3.89,3.89,0,0,0-2.46-.63,1.24,1.24,0,0,0-1,1.06,2.67,2.67,0,0,0,.67,1.89,2.39,2.39,0,0,1,.37,2.32q-.3.71-1.71,3.3l-3.57,6.6q-2.16,4-4.91,9c-1.84,3.33-3.74,6.81-5.73,10.46q-4.75,1.68-10.19,4.15A111,111,0,0,0,305.63,208a23.75,23.75,0,0,1,3.94-4.84c1.84-1.83,3.84-3.75,6-5.76s4.43-4,6.77-6.11,4.45-4,6.39-5.89a45.81,45.81,0,0,0,4.69-5.2c1.19-1.59,1.73-2.9,1.63-3.93a15.13,15.13,0,0,0-1.41-5,35.3,35.3,0,0,0-2.31-4.15,32.45,32.45,0,0,0-3.27-3.93,5.08,5.08,0,0,0-1.93-1.54,4.11,4.11,0,0,0-1.72-.45,2.31,2.31,0,0,0-.37,0" transform="translate(0 0)"/><g class="cls-7"><rect class="cls-1" x="295.39" y="161.17" width="59.87" height="87.59"/></g><path class="cls-1" d="M149.12,109.42c-1.57,13.47,6.89,8.8,8.89,4.12,1-2.37.36-4.75-4.12-4.75a22.49,22.49,0,0,0-4.77.63M252,115.28a7,7,0,0,0,6.2-1.68c.85-4.56-1.16-6.28-3.41-6.28-3.41,0-7.37,4-2.79,8m-1.78-13.4a6.25,6.25,0,0,0,8,0v-5a5,5,0,0,0-3.79-1.68c-2.88,0-5.61,2.38-4.19,6.7M98.58,93.52c0,1.06-1.14,1.15-.89,2.5,1.26,19.54,8.1,33.68,19.51,42.69C152.9,167,215.92,140,207.66,93.52c-7.61,8.2-8.3,19.42-15.08,27.62a51,51,0,0,1-32.81,17.57c-37.43,3.81-49.32-20.75-59.42-44.36A1.22,1.22,0,0,0,99,93.48a2.25,2.25,0,0,0-.44,0m116.17,1.67c-3.14,6.3.34,13.13,5.32,13.39,5.48.29,7-3.19,6.43-6.68-.71-4.27-4.57-8.54-8.2-5.88,8.76-7.22,16.6.75,16.85,8.38.68,21.62-29.44,26.94-39,34.31,21.35-2.1,45.37-11.37,48.77-27.62C247.69,97.76,236,88.67,226,88.67c-4.69,0-9,2-11.24,6.52M148.24,32.41c0-8.68-3-20,4.43-23.44,8.32,6.58,3,20.25-1.77,26-10.66,12.66-50.18,21.4-48.78,44.36.44,7.22,6.55,13.06,12.42,15.91,18.4,8.94,86.86,8.35,87.79-9.21,1-18.8-70.23-17.6-68.28-1.67,1.2,9.82,36.74,11,35.47.83-4,2.1-23.85,5.73-25.72-3.34,6.74-10.51,45.78-7.14,44.34,5.85-.77,7-18.27,10.7-32.81,10.89-19.53.24-40.21-5.52-39.91-22.6.34-18.67,27.77-26.09,39.91-39.35,6-6.6,15.87-28.94,3.55-35.15A11.85,11.85,0,0,0,153.61,0c-11.9,0-12,26.13-5.37,32.41" transform="translate(0 0)"/><g class="cls-8"><rect class="cls-1" x="97.44" width="161.61" height="166.95"/></g></g></g></svg>