<svg xmlns="http://www.w3.org/2000/svg" xmlns:xlink="http://www.w3.org/1999/xlink" viewBox="0 0 355.2 249.12"><defs><style>.cls-1{fill:none;}.cls-2{clip-path:url(#clip-path);}.cls-3,.cls-4{fill:#231f20;}.cls-4{fill-rule:evenodd;}</style><clipPath id="clip-path" transform="translate(-318.52 -470.52)"><rect class="cls-1" width="1000" height="1000"/></clipPath></defs><g id="Layer_2" data-name="Layer 2"><g id="Layer_1-2" data-name="Layer 1"><g class="cls-2"><path class="cls-3" d="M386.38,613.45q8.31,3.36,11.77,9a22.89,22.89,0,0,1,3.47,12.19,34.82,34.82,0,0,1-2.2,11.9,55.16,55.16,0,0,1-5.53,11.21,48.36,48.36,0,0,1-7.29,8.87,21.21,21.21,0,0,1-7.41,4.91,19.29,19.29,0,0,1-6.82,1.39,11.15,11.15,0,0,1-5.73-1.34,11,11,0,0,1-3.47-3.07,7.76,7.76,0,0,1-1.42-3.33,2.5,2.5,0,0,1,.42-2.18,1.58,1.58,0,0,1,2.42.1,4.9,4.9,0,0,0,1.1.75,1.25,1.25,0,0,0,1.21,0,23.34,23.34,0,0,0,9.56-5.66,44.53,44.53,0,0,0,7.62-9.52,52.05,52.05,0,0,0,5-11,33.73,33.73,0,0,0,1.79-10,13,13,0,0,0-.74-4.61,4.73,4.73,0,0,0-2.42-2.73c-.49-.13-1.09-.26-1.79-.4a13.25,13.25,0,0,0-2.41-.2,23.4,23.4,0,0,0-6.63,1.19,32.62,32.62,0,0,0-8.78,4.62,74.06,74.06,0,0,0-10.78,9.62,118.18,118.18,0,0,0-12.51,16.22,92.62,92.62,0,0,0-11.25,22,58.29,58.29,0,0,0-3.37,18.1,30.69,30.69,0,0,0,1.26,9.18,20.39,20.39,0,0,0,3.52,6.79,14.85,14.85,0,0,0,5.41,4.22A15.31,15.31,0,0,0,347.2,713a21.58,21.58,0,0,0,8.09-1.89,25.68,25.68,0,0,0,6.46-4.16,28.91,28.91,0,0,0,4.78-5.46,33,33,0,0,0,3.1-5.6,16.27,16.27,0,0,0,1.31-4.56c.15-1.29,0-2.13-.52-2.53a2.85,2.85,0,0,1-.79-1,3.11,3.11,0,0,1-.37-1.39,1.22,1.22,0,0,1,.58-1,2.57,2.57,0,0,1,2-.1,10.44,10.44,0,0,1,5.46,3.82,10.67,10.67,0,0,1,2,6.49,18.34,18.34,0,0,1-1.84,7.54,32.3,32.3,0,0,1-6,8.53,25.76,25.76,0,0,1-9.15,6.09,29,29,0,0,1-10.4,1.93,31.76,31.76,0,0,1-12.13-2.43,33.15,33.15,0,0,1-10.66-7,35.18,35.18,0,0,1-7.62-11.26,37.29,37.29,0,0,1-2.89-15,51.85,51.85,0,0,1,1.53-12,65.55,65.55,0,0,1,5-13.54A123.45,123.45,0,0,1,335.17,641a91.06,91.06,0,0,1,10.4-12.34,60.37,60.37,0,0,1,10.19-8.13,57.46,57.46,0,0,1,9.51-4.81,38.32,38.32,0,0,1,8.3-2.28,47.77,47.77,0,0,1,6.62-.55c1,0,1.83,0,2.57.1s1.38.13,1.94.2,1.2.23,1.68.3" transform="translate(-318.52 -470.52)"/><path class="cls-3" d="M461.67,671.18c-1.61,2.11-3.38,4.35-5.3,6.69a53.76,53.76,0,0,1-6.25,6.45,34,34,0,0,1-7.15,4.82A17.18,17.18,0,0,1,435.2,691c-3.86,0-6.69-.9-8.51-2.69a8.48,8.48,0,0,1-2.53-6.77,74,74,0,0,1-7.67,6.4q-3.67,2.63-6.09,2.92a11.58,11.58,0,0,1-4.37-.44,10.68,10.68,0,0,1-3.89-2.13,11.07,11.07,0,0,1-2.78-3.71,12.07,12.07,0,0,1-1.05-5.2,19.67,19.67,0,0,1,1.1-6.1,36.81,36.81,0,0,1,3.52-7.29,33.87,33.87,0,0,1,8.52-9.62,40.24,40.24,0,0,1,8.62-5,31.13,31.13,0,0,1,9.24-2.08,9.24,9.24,0,0,1,2.63.4,11,11,0,0,1,2.73,1.24,11.33,11.33,0,0,1,2.47,2.08A11.16,11.16,0,0,1,439,656c1.47-1.85,2.21-3,2.21-3.56a9.06,9.06,0,0,0-.16-1.39,1.41,1.41,0,0,1,.37-1.39,1.56,1.56,0,0,1,1.57-.5,4.7,4.7,0,0,1,.84.3,23.29,23.29,0,0,1,3.47,2.48,9.37,9.37,0,0,1,2.1,2.63,4,4,0,0,1,.31,3.22,10.84,10.84,0,0,1-1.68,3.13c-.91,1.28-2,2.71-3.15,4.26s-2.4,3.15-3.62,4.81a35.9,35.9,0,0,0-3.05,4.81,15.83,15.83,0,0,0-1.58,4.26,3.12,3.12,0,0,0,.79,3,4.15,4.15,0,0,0,2.94,1.18,7.2,7.2,0,0,0,2.73-.59,16.06,16.06,0,0,0,2.95-1.59c1-.66,2-1.4,3-2.23s2-1.67,2.89-2.53a94.4,94.4,0,0,0,6.41-6.94l3.25,1.79ZM412.48,684a6.44,6.44,0,0,0,3.41-1.44,39.6,39.6,0,0,0,4.36-3.62q2.31-2.17,4.78-4.86t4.57-5.25q2.1-2.58,3.78-4.86a40,40,0,0,0,2.42-3.57,1.23,1.23,0,0,0,.11-1.09,4.07,4.07,0,0,0-.69-1.19,4.46,4.46,0,0,0-1.05-1,4.27,4.27,0,0,0-1.21-.6,9.16,9.16,0,0,0-5.25.6,22.21,22.21,0,0,0-5.36,3.12,34.08,34.08,0,0,0-5,4.81,51.25,51.25,0,0,0-4.2,5.65,31.92,31.92,0,0,0-2.89,5.56,12.87,12.87,0,0,0-1,4.56q0,3.27,3.26,3.17" transform="translate(-318.52 -470.52)"/><path class="cls-3" d="M489,658.13a8.67,8.67,0,0,1,3.08,3.33,8.24,8.24,0,0,1,.89,3.61,8.53,8.53,0,0,1-.47,2.83,9.92,9.92,0,0,1-1.15,2.33,5.19,5.19,0,0,1-1.46,1.49,1.47,1.47,0,0,1-1.31.29,1.57,1.57,0,0,1-.83-.79,6.33,6.33,0,0,1-.32-1c-.06-.33-.15-.68-.25-1a1.71,1.71,0,0,0-.79-.94,5.37,5.37,0,0,0-2.45-.4,31.51,31.51,0,0,0-4,.3c-1.53.19-3.17.44-4.91.74s-3.48.65-5.23,1a31.72,31.72,0,0,1,1.73,6.7,54.34,54.34,0,0,1,.68,9,63,63,0,0,1-1,11,34.2,34.2,0,0,1-3.48,10.21,21.88,21.88,0,0,1-6.52,7.54,16.71,16.71,0,0,1-10.05,2.92,9.81,9.81,0,0,1-7.94-3.61q-3-3.63-3-9.87a30.27,30.27,0,0,1,1.69-9.62,92.22,92.22,0,0,1,4.62-10.86q2.85-5.7,5.89-11.06a5.67,5.67,0,0,1-4.21-3.67,4.35,4.35,0,0,1,.22-4,15.58,15.58,0,0,1,2.1-2.88,1.23,1.23,0,0,1,.89-.24.78.78,0,0,1,.68.54,3.39,3.39,0,0,0,.79,1.29,3.73,3.73,0,0,0,1.84.89,9.37,9.37,0,0,0,1.16.15c.42,0,.84,0,1.26,0l3.37-5.06q3.78-5.25,6.25-9.07c1.65-2.55,3-4.79,4-6.75a32.49,32.49,0,0,0,2.32-5.2,21.24,21.24,0,0,0,.94-4.36,1.55,1.55,0,0,0-.1-1,6.06,6.06,0,0,0-.53-.79l-.58-.74a2.5,2.5,0,0,1-.37-.75c-.21-1.06.29-1.49,1.48-1.29a11.4,11.4,0,0,1,4.73,1.59,11.23,11.23,0,0,1,3.31,3.32,10.54,10.54,0,0,1,1.52,6,10.38,10.38,0,0,1-.84,3.72,32,32,0,0,1-2.36,4.66q-1.53,2.54-3.52,5.46c-1.33,2-2.74,4-4.2,6.09,2.22-.86,4.4-1.6,6.52-2.23a20.9,20.9,0,0,1,5.8-.94,7.58,7.58,0,0,1,4.07,1.09m-24.45,39.29a43.76,43.76,0,0,0,1.89-7.79,50.68,50.68,0,0,0,.53-7.09,39.24,39.24,0,0,0-.5-6.44,48.87,48.87,0,0,0-1.17-5.26.5.5,0,0,0-.33.1q-4.08,6-7.67,12.1a64,64,0,0,0-5.58,12.1,18.91,18.91,0,0,0-1,6.15,11.82,11.82,0,0,0,1.36,6,4,4,0,0,0,3.47,2.38q2.1,0,4.47-2.78t4.57-9.42" transform="translate(-318.52 -470.52)"/><path class="cls-3" d="M542.73,669.4q-2.1,3.08-5,6.75a54.11,54.11,0,0,1-6.57,6.94,40.36,40.36,0,0,1-8.09,5.6,25.56,25.56,0,0,1-9.56,2.83,20.87,20.87,0,0,1-7.57-.35,13.78,13.78,0,0,1-5.43-2.63,11.44,11.44,0,0,1-3.27-4.36,14.13,14.13,0,0,1-1.11-5.65,20.6,20.6,0,0,1,1.16-6.6,29.62,29.62,0,0,1,3.49-6.89,48.78,48.78,0,0,1,7.06-8.43,40.64,40.64,0,0,1,3.41-2.87,23.31,23.31,0,0,1,3.89-2.38,15,15,0,0,1,4.26-1.34,11.5,11.5,0,0,1,4.41.15c.28.06.81.23,1.57.49a15.81,15.81,0,0,1,2.42,1.09,8.13,8.13,0,0,1,2.21,1.79,4.42,4.42,0,0,1,1.05,2.67,10.11,10.11,0,0,1-.53,3.62,14.75,14.75,0,0,1-2,4,22.7,22.7,0,0,1-3.47,3.87,19.47,19.47,0,0,1-4.94,3.17,27.58,27.58,0,0,1-7.41,2.53,16.37,16.37,0,0,1-5.09.25,16.73,16.73,0,0,0-.74,4.76,8.44,8.44,0,0,0,.63,3.47,6,6,0,0,0,1.69,2.23,5.82,5.82,0,0,0,2.31,1.14,7.45,7.45,0,0,0,2.41.2,20.3,20.3,0,0,0,6.73-2,44.91,44.91,0,0,0,7.09-4.21,60.57,60.57,0,0,0,6.67-5.55,46.18,46.18,0,0,0,5.25-5.9Zm-18.07-13.68a5.72,5.72,0,0,0-2.94,1A29.31,29.31,0,0,0,517.3,660a37.59,37.59,0,0,0-4.72,5,32,32,0,0,0-3.89,6.15,21.88,21.88,0,0,0,4.78-1.39,19.12,19.12,0,0,0,6.15-4.07,23.45,23.45,0,0,0,3.46-3.91,13.5,13.5,0,0,0,1.58-3,4.49,4.49,0,0,0,.31-2,2.51,2.51,0,0,0-.31-1" transform="translate(-318.52 -470.52)"/><path class="cls-3" d="M610.48,686.57a4.65,4.65,0,0,1,1.34,3.72,17.7,17.7,0,0,1-.89,4.42,32.91,32.91,0,0,1-2.52,5.34,8.34,8.34,0,0,1-3.71,4c-1.38.61-2.42.58-3.11-.07a1.43,1.43,0,0,1-.3-2,1.93,1.93,0,0,0,.3-2c-.19-.28-.52-.73-1-1.34a10.36,10.36,0,0,0-2-2,24.5,24.5,0,0,0-3.41-2.18,20.52,20.52,0,0,0-5.36-1.82,20.75,20.75,0,0,0-7.81.07q-4.53.77-8.85,1.82c-2.87.7-5.38,1.36-7.51,2s-3.39.81-3.79.63a2.72,2.72,0,0,1-2.08-2A6.49,6.49,0,0,1,560,692a15.8,15.8,0,0,1,1.19-3.09,24.29,24.29,0,0,1,1.19-2.18,2.28,2.28,0,0,1,1.78-1.26c.5-.19,1.66-.75,3.5-1.69s3.94-2.15,6.32-3.65,4.88-3.25,7.51-5.26a73.07,73.07,0,0,0,7.29-6.39,36.28,36.28,0,0,0,5.5-7,14.25,14.25,0,0,0,2.16-7.3q.44-7.17-1.79-10a7.22,7.22,0,0,0-6-2.81,10.73,10.73,0,0,0-4.09,1A18.71,18.71,0,0,0,580.2,645a16.87,16.87,0,0,0-3.57,4,11.55,11.55,0,0,0-1.79,5.13,20.05,20.05,0,0,0,0,6c.3,1.49.84,2.33,1.64,2.52a2.21,2.21,0,0,1,1.71,1.12,2.57,2.57,0,0,1,.22,1.55c-.2.47-.89.89-2.08,1.26a20.92,20.92,0,0,1-6.55.28,8.11,8.11,0,0,1-6.24-3.44,12.15,12.15,0,0,1-2.09-7.09,20.78,20.78,0,0,1,1.64-7.72,24.36,24.36,0,0,1,4.83-7.52,25.84,25.84,0,0,1,8-5.71,25.53,25.53,0,0,1,11-2.26q11.15,0,17,4.87a15.48,15.48,0,0,1,5.85,12.45q0,7.15-5.78,15.65T585.7,682.36a28,28,0,0,1,2.82-.14h2.53a49.74,49.74,0,0,1,12.84,1.33c3.21.89,5.4,1.9,6.59,3" transform="translate(-318.52 -470.52)"/><path class="cls-3" d="M669.08,665.55a6.73,6.73,0,0,1,2.75,2.25,10.43,10.43,0,0,1,1.41,2.81,7.94,7.94,0,0,1,.45,3.51,11.28,11.28,0,0,1-1,5.12c-.64,1.27-1.41,1.9-2.3,1.9a1.64,1.64,0,0,1-1.42-.77c-.34-.52-.74-1.06-1.19-1.62a11.21,11.21,0,0,0-1.56-1.61,4,4,0,0,0-2.68-.78c-1.58,0-3.24,0-5,.14s-3.59.29-5.58.57q-3.12,6.31-6,12.42t-4.83,11.09a67.77,67.77,0,0,0-2.9,8.5q-.9,3.51,0,4.63a8.67,8.67,0,0,1,1.19,1.68,5.1,5.1,0,0,1,.37,1.55,2.22,2.22,0,0,1-.67,1.68c-.49.56-1.51.66-3.05.28a16.14,16.14,0,0,1-4.83-2.17,18.43,18.43,0,0,1-4.46-4,7.89,7.89,0,0,1-1.94-5.06,10.9,10.9,0,0,1,1-3.23q1-2.38,2.67-5.89t4-7.87q2.31-4.35,4.84-9.26l-4.91,1.89L629.14,685c-1.34.51-2.46.91-3.35,1.19a3.6,3.6,0,0,1-1.78.28,4,4,0,0,1-2.31-.49,2,2,0,0,1-.81-1.19l-2.46-2a17.82,17.82,0,0,1-2.53-2.45,9.62,9.62,0,0,1-1.64-2.74,3,3,0,0,1,.23-2.67,24,24,0,0,1,2.9-3.93l5.72-6.88q3.28-3.93,6.92-8.35t6.55-8.5a62.93,62.93,0,0,0,4.54-7.23c1.09-2.1,1.38-3.67.89-4.7a3.86,3.86,0,0,1-.6-2.67,1.42,1.42,0,0,1,1.19-1,3.62,3.62,0,0,1,2.08.43,5.11,5.11,0,0,1,1.94,1.54,32.45,32.45,0,0,1,3.27,3.93,37.53,37.53,0,0,1,2.3,4.14,15.27,15.27,0,0,1,1.42,5c.1,1-.45,2.34-1.64,3.93a45.62,45.62,0,0,1-4.68,5.2q-2.91,2.8-6.4,5.89t-6.77,6.11q-3.27,3-6,5.76a23.41,23.41,0,0,0-3.94,4.84,110.11,110.11,0,0,1,11.08-5.83q5.43-2.45,10.19-4.14,3-5.47,5.72-10.46t4.91-9l3.57-6.6c1-1.73,1.52-2.83,1.72-3.3a2.39,2.39,0,0,0-.38-2.32,2.76,2.76,0,0,1-.67-1.89,1.22,1.22,0,0,1,1-1.06,3.88,3.88,0,0,1,2.45.63,27.88,27.88,0,0,1,4.17,2.11,12.59,12.59,0,0,1,2.75,2.18,2.48,2.48,0,0,1,.67,2.59,18.76,18.76,0,0,1-1.19,2.6q-1,2-2.75,5.2c-1.15,2.1-2.41,4.51-3.8,7.23s-2.87,5.61-4.46,8.7a31.91,31.91,0,0,1,4.91-.42,11.59,11.59,0,0,1,5.06.84" transform="translate(-318.52 -470.52)"/><path class="cls-4" d="M506.67,558.17c-.78,7-18.28,10.7-32.81,10.89-19.53.24-40.22-5.52-39.91-22.61.34-18.66,27.77-26.08,39.91-39.34,6-6.6,15.86-28.94,3.54-35.15-17-8.6-18.11,23.87-10.64,31,0-8.68-3-20,4.44-23.44,8.32,6.58,3,20.25-1.78,25.95-10.66,12.65-50.17,21.4-48.77,44.36.44,7.23,6.55,13.06,12.41,15.91,18.41,8.94,86.87,8.35,87.8-9.21,1-18.8-70.24-17.6-68.29-1.67,1.21,9.82,36.75,11,35.48.83-3.95,2.1-23.86,5.73-25.72-3.34,6.74-10.51,45.77-7.14,44.34,5.85m56.76,23.44c4.1-19.59-23.13-30-30.16-15.9-3.13,6.3.34,13.13,5.33,13.39,12.19.64,4.82-17.39-1.78-12.56,8.77-7.22,16.61.74,16.85,8.38.69,21.62-29.44,26.94-39,34.32,21.36-2.11,45.38-11.38,48.78-27.63M416.21,566.54c1.26,19.54,8.11,33.68,19.51,42.7,35.7,28.23,98.73,1.3,90.46-45.21-7.6,8.21-8.29,19.43-15.08,27.63a51.07,51.07,0,0,1-32.81,17.58c-37.42,3.8-49.31-20.76-59.42-44.37-.19-.65-.74-1-1.77-.84-.05,1.07-1.14,1.16-.89,2.51m152.54,5.86a6.25,6.25,0,0,0,8,0v-5c-3.1-3.52-10.09-1.36-8,5m8,11.72c2.12-11.47-13.8-5-6.21,1.68a7,7,0,0,0,6.21-1.68m-109.08-4.18c-2.6,22.24,22.17-5,0,0" transform="translate(-318.52 -470.52)"/></g></g></g></svg>