<svg xmlns="http://www.w3.org/2000/svg" xmlns:xlink="http://www.w3.org/1999/xlink" viewBox="0 0 200.91 201"><defs><style>.cls-1{fill:#003;stroke:#000;stroke-miterlimit:10;}.cls-2{fill:url(#radial-gradient);}.cls-3{fill:url(#radial-gradient-2);}.cls-4{fill:url(#radial-gradient-3);}.cls-5{fill:url(#radial-gradient-4);}</style><radialGradient id="radial-gradient" cx="99.72" cy="106.26" r="95.95" gradientTransform="translate(-0.65 -0.02) scale(1.01 0.94)" gradientUnits="userSpaceOnUse"><stop offset="0" stop-color="#9e6c29"/><stop offset="0.23" stop-color="#d0952b"/><stop offset="0.41" stop-color="#af7d2b"/><stop offset="0.59" stop-color="#eebb58"/><stop offset="0.77" stop-color="#ffd89c"/><stop offset="1" stop-color="#be8b2c"/><stop offset="1" stop-color="#cfa45e"/></radialGradient><radialGradient id="radial-gradient-2" cx="99.68" cy="105.86" r="61.79" xlink:href="#radial-gradient"/><radialGradient id="radial-gradient-3" cx="142.31" cy="95.42" r="40.29" xlink:href="#radial-gradient"/><radialGradient id="radial-gradient-4" cx="57.49" cy="110.53" r="38.37" xlink:href="#radial-gradient"/></defs><g id="Layer_2" data-name="Layer 2"><g id="Layer_1-2" data-name="Layer 1"><rect class="cls-1" x="0.5" y="0.5" width="199.91" height="200"/><path class="cls-2" d="M17.45,130.09c2.84,5,10.16,17.89,16.24,28.56S46,180.3,47.52,183l2.76,5,50.22-.13,50.24-.13,8.72-15.37c4.79-8.45,13.47-23.72,19.3-33.94s13.06-23,16.12-28.41l5.53-9.83-2.49-4.46c-1.37-2.45-7.6-13.43-13.83-24.39S167.79,42.68,161.73,32l-11-19.39-50.22-.14-50.22-.14-2.75,5C46,20.07,38.41,33.47,30.66,47.1S14.5,75.53,12,80,5.83,90.78,3.91,94.1l-3.5,6,5.92,10.39C9.6,116.25,14.6,125.05,17.45,130.09Zm.42-50c6.25-11,16-28.19,21.66-38.13s11-19.44,12-21.15l1.74-3.1,47.25.14,47.25.13,7.67,13.47C162.69,44.22,174,64.15,188,88.82c3.43,6.05,6.25,11.18,6.25,11.39,0,.38-8.42,15.25-41.72,73.8l-4.75,8.35H53.14l-6.9-12.13-20.08-35.3C18.92,122.2,11.53,109.17,9.75,106L6.5,100.19Z"/><path class="cls-3" d="M102,54.91l-2.91,5.8L90.33,78.23c-1.09,2.14-3,6-4.25,8.48-6.94,13.85-15.3,30.54-16.55,33-.79,1.55-3,6-4.89,9.84s-3.87,7.61-4.34,8.35a46.17,46.17,0,0,0-2.64,7l-1.75,5.66,1.52,3a38.92,38.92,0,0,0,1.89,3.41c.2.24,3-5,6.34-11.59s6.84-13.72,7.88-15.79,8.56-17.12,16.72-33.42L107,62.73c5.75-11.44,8.14-16.33,8.14-16.63s-10.62-.34-23.6-.34H67.94V44.15a5.61,5.61,0,0,1,1.48-3.37L70.89,39l27.69-.15c15.24-.08,27.7,0,27.7.18S119,54,110.81,70.27c-.9,1.78-2.9,5.78-4.45,8.89s-11,22-21,42c-24.18,48.22-23.73,47.32-23.45,47.63.53.57,71.25,1,72.58.44s2-1.77,11.44-20.44a35.65,35.65,0,0,0,1.7-3.64c0-.15-10.85-.28-24.1-.28-17,0-24.1-.18-24.1-.59a31.42,31.42,0,0,1,2.1-4.71l3.74-7.36c.9-1.78,2.68-5.3,3.92-7.82,5.64-11.31,8.11-16.24,19.31-38.58l11.92-23.76.32-7.49c.19-4.12.45-8.59.61-9.92l.27-2.43-1.2,2.16c-.68,1.18-2.77,5.31-4.68,9.16-4.43,8.93-5,10-22.1,44.19-14.88,29.68-17.54,35-21.89,43.78-1.43,2.89-3.37,6.75-4.31,8.58a30.83,30.83,0,0,0-1.71,3.64c0,.17,10.74.31,23.86.31H133.4l-.31,1.48a6.39,6.39,0,0,1-3.81,4.83c-1.86.68-53.76,1-54.41.35-.29-.31,1.25-3.57,6.26-13.39L85.32,139c1.54-3.11,10.17-20.33,19.15-38.26S122,65.81,123.36,63s3.29-6.58,4.19-8.35c1.61-3.18,3.56-7.06,8.89-17.78,1.47-3,2.9-5.7,3.17-6.07.68-.92-71.91-1-73.45,0a5.19,5.19,0,0,0-1.52,1.46c-1,1.63-4,7.4-7.71,15l-3.78,7.68H102Z"/><path class="cls-4" d="M147.14,65.05c1,3.31.78,4-8.17,21.39-1.81,3.52-8.78,17.41-12.18,24.25-1.46,3-3.76,7.57-5.1,10.24-3.8,7.56-7.08,14.5-7.08,14.95,0,1.1,38.89.44,40.24-.69,1.87-1.56,4.43-6.25,14.66-26.92,4.48-9,4.81-7.17-4.75-26.27-3.55-7.08-3.53-7-4.63-4.82-4.15,8.29-8,16.08-11.76,23.81-2.45,5-5.58,11.38-7,14.08-2.78,5.52-2.76,5.59,1.58,5.59,4,0,5.25-1.32,9.39-10,6.81-14.25,8-16.43,9.25-16.43,2.93,0,2.49,6.46-.94,13.78-8.57,18.33-9.41,19.32-16.74,19.82-4.68.31-15.6,0-16.1-.51-.17-.17,5.71-12.76,6.52-14,.21-.3,1.7-3.21,3.32-6.47,2.9-5.84,4.68-9.4,8.05-16,12.3-24.2,12-22.88,6.65-33.55-2.1-4.15-4.53-9.06-5.43-10.91-2.21-4.57-2.22-4.54-2.62,5.26L144,60.31l1.29,1.48A10.93,10.93,0,0,1,147.14,65.05Z"/><path class="cls-5" d="M38.92,120.64l.89,1.54,8.1-16.48c4.45-9.07,9.41-19.17,11-22.45l2.89-6-1.6-.45c-4.79-1.34-7.62.86-11.23,8.7-8,17.41-10.5,20.67-11.1,14.44a20.46,20.46,0,0,1,.19-5.15C38.94,90.61,47.7,73.4,50.2,71l1.52-1.49H62.36c6.89,0,10.65.2,10.65.56,0,.69-3.71,8.56-8,17-1.82,3.56-4.22,8.29-5.33,10.51S56.91,103,56,104.76c-13.15,25.87-13.15,25.9-4.37,41.24l1,1.69,1.83-5.8c1.57-5,1.73-5.92,1.14-6.64-3.71-4.51-3.57-5.08,6.39-24.56,1.82-3.56,4.34-8.53,5.59-11s5-10,8.39-16.7c5.16-10.29,10-20.18,10.68-21.69.44-1-37.61-.42-39.77.61C44.52,63,43.7,64.4,33.94,83.92c-7,14-6.94,12.57-.8,25.15C35.83,114.58,38.43,119.79,38.92,120.64Z"/></g></g></svg>