<svg xmlns="http://www.w3.org/2000/svg" xmlns:xlink="http://www.w3.org/1999/xlink" viewBox="0 0 45 39.53"><defs><style>.cls-1{fill:url(#radial-gradient);}.cls-2{fill:url(#radial-gradient-2);}.cls-3{fill:url(#radial-gradient-3);}.cls-4{fill:url(#radial-gradient-4);}</style><radialGradient id="radial-gradient" cx="21.81" cy="25.85" r="21.59" gradientTransform="translate(0.4 -4.61) scale(1.01 0.94)" gradientUnits="userSpaceOnUse"><stop offset="0" stop-color="#9e6c29"/><stop offset="0.23" stop-color="#d0952b"/><stop offset="0.41" stop-color="#af7d2b"/><stop offset="0.59" stop-color="#eebb58"/><stop offset="0.77" stop-color="#ffd89c"/><stop offset="1" stop-color="#be8b2c"/><stop offset="1" stop-color="#cfa45e"/></radialGradient><radialGradient id="radial-gradient-2" cx="21.8" cy="25.76" r="13.9" xlink:href="#radial-gradient"/><radialGradient id="radial-gradient-3" cx="31.39" cy="23.41" r="9.06" xlink:href="#radial-gradient"/><radialGradient id="radial-gradient-4" cx="12.31" cy="26.81" r="8.63" xlink:href="#radial-gradient"/></defs><g id="Layer_2" data-name="Layer 2"><g id="Layer_1-2" data-name="Layer 1"><path class="cls-1" d="M3.83,26.49c.64,1.14,2.29,4,3.66,6.43s2.77,4.87,3.11,5.49l.62,1.12,11.3,0,11.3,0,2-3.46c1.07-1.9,3-5.34,4.34-7.64L43.76,22,45,19.77l-.56-1-3.11-5.49c-1.41-2.47-3.67-6.45-5-8.85L33.82.06,22.52,0,11.22,0,10.6,1.12c-.34.62-2,3.63-3.79,6.7s-3.64,6.4-4.2,7.4L.79,18.4,0,19.75l1.33,2.34C2.07,23.38,3.19,25.36,3.83,26.49Zm.1-11.24L8.8,6.67l2.7-4.76.39-.7,10.64,0,10.63,0,1.72,3,7.33,12.91c.78,1.36,1.41,2.51,1.41,2.56s-1.89,3.43-9.39,16.61l-1.06,1.88H11.86l-1.55-2.73c-.85-1.5-2.88-5.08-4.52-8S2.5,21.79,2.1,21.07l-.73-1.3Z"/><path class="cls-2" d="M22.86,9.58l-.65,1.3-2,3.94c-.24.49-.67,1.35-1,1.91l-3.72,7.43c-.18.35-.67,1.35-1.1,2.21s-.87,1.72-1,1.88a12.26,12.26,0,0,0-.59,1.58l-.39,1.27.34.67a6.49,6.49,0,0,0,.43.76,18.59,18.59,0,0,0,1.42-2.6l1.77-3.56c.24-.46,1.93-3.85,3.77-7.52L24,11.34c1.29-2.58,1.83-3.68,1.83-3.74s-2.39-.08-5.31-.08H15.19V7.16a1.28,1.28,0,0,1,.34-.76l.33-.4,6.23,0c3.43,0,6.23,0,6.23,0s-1.63,3.37-3.48,7l-1,2L19.1,24.49c-5.44,10.85-5.33,10.65-5.27,10.72s16,.22,16.33.1.44-.4,2.57-4.6a7.85,7.85,0,0,0,.39-.82s-2.45-.06-5.43-.06a39,39,0,0,1-5.42-.13,6.35,6.35,0,0,1,.47-1.06c.26-.52.64-1.26.85-1.66s.6-1.19.88-1.76l4.34-8.68,2.68-5.35.07-1.68c.05-.93.11-1.93.14-2.23l.06-.55-.27.49c-.15.26-.62,1.19-1,2.06-1,2-1.12,2.25-5,9.94-3.35,6.68-3.95,7.87-4.93,9.85-.32.65-.76,1.52-1,1.93a6.83,6.83,0,0,0-.38.82s2.41.07,5.37.07h5.36l-.07.33A1.45,1.45,0,0,1,29,33.31c-.42.15-12.1.23-12.25.08a15.85,15.85,0,0,1,1.41-3l.94-1.88,4.31-8.6c2-4,3.94-7.86,4.25-8.49s.74-1.48.95-1.88c.36-.71.8-1.59,2-4,.33-.67.65-1.28.71-1.37s-16.18-.21-16.53,0a1.16,1.16,0,0,0-.34.32c-.22.37-.89,1.67-1.73,3.38l-.85,1.73h11Z"/><path class="cls-3" d="M33,11.86c.23.74.18.89-1.83,4.81-.41.79-2,3.92-2.74,5.46l-1.15,2.3c-.86,1.7-1.59,3.27-1.59,3.37s8.75.1,9.05-.16,1-1.41,3.3-6.06c1-2,1.08-1.61-1.07-5.91-.8-1.59-.79-1.58-1-1.08-.94,1.87-1.8,3.62-2.65,5.36-.55,1.13-1.25,2.56-1.56,3.17-.63,1.24-.62,1.25.35,1.25s1.18-.29,2.12-2.24c1.53-3.21,1.8-3.7,2.08-3.7.66,0,.56,1.45-.22,3.1C34.14,25.66,34,25.88,32.3,26a21.24,21.24,0,0,1-3.62-.11S30,23,30.14,22.74c.05-.07.39-.73.75-1.46.65-1.31,1.05-2.11,1.81-3.61,2.77-5.44,2.71-5.14,1.5-7.55-.47-.93-1-2-1.22-2.45-.5-1-.5-1-.59,1.18l-.08,1.94.29.34A2.4,2.4,0,0,1,33,11.86Z"/><path class="cls-4" d="M8.66,24.37l.2.34L10.69,21,13.16,16l.65-1.35-.36-.1c-1.08-.3-1.71.19-2.53,2-1.79,3.91-2.36,4.65-2.49,3.25a4.38,4.38,0,0,1,0-1.16,24.17,24.17,0,0,1,2.73-5.37l.34-.34h2.4a9,9,0,0,1,2.39.13,40.11,40.11,0,0,1-1.79,3.81l-1.2,2.37c-.26.5-.63,1.24-.83,1.64-3,5.82-3,5.82-1,9.27l.22.38.41-1.3c.36-1.12.39-1.33.26-1.5-.84-1-.8-1.14,1.44-5.52.41-.8,1-1.92,1.26-2.49L17,15.88c1.16-2.31,2.26-4.54,2.41-4.87s-8.47-.1-8.95.13-.71.57-2.91,5C6,19.25,6,18.93,7.36,21.76,8,23,8.55,24.18,8.66,24.37Z"/></g></g></svg>