<svg xmlns="http://www.w3.org/2000/svg" xmlns:xlink="http://www.w3.org/1999/xlink" viewBox="0 0 202.66 101.35"><defs><style>.cls-1{fill:none;}.cls-2{fill:#fff;}.cls-3{clip-path:url(#clip-path);}.cls-4{fill:url(#linear-gradient);}.cls-5{clip-path:url(#clip-path-2);}.cls-6{fill:url(#linear-gradient-2);}.cls-7{clip-path:url(#clip-path-3);}.cls-8{fill:url(#linear-gradient-3);}.cls-9{clip-path:url(#clip-path-4);}.cls-10{fill:url(#linear-gradient-4);}.cls-11{clip-path:url(#clip-path-5);}.cls-12{clip-path:url(#clip-path-6);}.cls-13{clip-path:url(#clip-path-7);}.cls-14{clip-path:url(#clip-path-8);}.cls-15{clip-path:url(#clip-path-9);}.cls-16{clip-path:url(#clip-path-10);}</style><clipPath id="clip-path"><path class="cls-1" d="M86.3,43.81,80.38,34c-2.13-3.54-4.31-7.15-4.83-8l-1-1.61,3.35-5.57c1.84-3.06,4.72-7.82,6.38-10.57l3.54-5.87.51-.86,13.93,0,13.92,0,2.26,3.74,9.61,15.91c1,1.68,1.84,3.1,1.84,3.16s-2.48,4.23-12.3,20.48l-1.4,2.32H88.33Zm.38-42.43c-.45.76-2.68,4.48-5,8.27S77,17.53,76.2,18.77l-2.37,3.92-1,1.67,1.75,2.89,3.28,5.42L82.6,40.6c1.8,3,3.63,6,4.08,6.76l.81,1.39,14.81,0,14.8,0,2.57-4.26L125.35,35c1.72-2.84,3.86-6.38,4.75-7.88l1.64-2.73L131,23.14c-.4-.68-2.23-3.72-4.07-6.76s-4.81-8-6.59-10.92L117.09.08l-14.8,0L87.49,0Z"/></clipPath><linearGradient id="linear-gradient" x1="-256.29" y1="413.35" x2="-255.78" y2="413.35" gradientTransform="matrix(115.87, 0, 0, -115.87, 29770.13, 47921.3)" gradientUnits="userSpaceOnUse"><stop offset="0" stop-color="#ffd76f"/><stop offset="0.01" stop-color="#f7ce69"/><stop offset="0.04" stop-color="#dcaf52"/><stop offset="0.07" stop-color="#c79741"/><stop offset="0.1" stop-color="#b88635"/><stop offset="0.14" stop-color="#af7b2d"/><stop offset="0.18" stop-color="#ac782b"/><stop offset="0.3" stop-color="#cc9d4a"/><stop offset="0.42" stop-color="#e8be64"/><stop offset="0.49" stop-color="#f2ca6e"/><stop offset="0.54" stop-color="#ecc368"/><stop offset="0.62" stop-color="#dcb059"/><stop offset="0.72" stop-color="#c1913f"/><stop offset="0.78" stop-color="#ac782b"/><stop offset="0.82" stop-color="#b07d2f"/><stop offset="0.87" stop-color="#bd8c39"/><stop offset="0.92" stop-color="#d3a54b"/><stop offset="0.98" stop-color="#f1c763"/><stop offset="1" stop-color="#ffd76f"/></linearGradient><clipPath id="clip-path-2"><path class="cls-1" d="M92.17,5.11a1.63,1.63,0,0,0-.45.41c-.29.45-1.16,2.05-2.27,4.16l-1.11,2.13h14.4l-.86,1.61-2.59,4.86c-.31.6-.88,1.66-1.25,2.36l-4.87,9.15c-.24.44-.89,1.66-1.45,2.73s-1.13,2.12-1.28,2.32a12.34,12.34,0,0,0-.77,1.95l-.52,1.56.45.83a10,10,0,0,0,.56.94A22.23,22.23,0,0,0,92,36.91c1-1.84,2-3.81,2.32-4.39l4.92-9.27c2.41-4.52,4.63-8.69,4.93-9.27,1.7-3.17,2.4-4.53,2.4-4.61s-3.13-.1-6.95-.1h-7V8.83a1.55,1.55,0,0,1,.44-.94l.44-.49,8.16,0c4.49,0,8.16,0,8.16,0s-2.14,4.16-4.56,8.66L104,18.54l-6.2,11.67c-7.13,13.38-7,13.13-6.91,13.21s21,.28,21.39.12.58-.49,3.37-5.67a9.78,9.78,0,0,0,.5-1s-3.2-.07-7.1-.07c-5,0-7.1,0-7.1-.17a7.75,7.75,0,0,1,.61-1.31l1.11-2,1.15-2.17c1.66-3.14,2.39-4.5,5.69-10.7L114,13.8l.1-2.08c0-1.14.13-2.38.18-2.75l.08-.67-.36.6c-.19.33-.81,1.47-1.38,2.54-1.3,2.48-1.46,2.77-6.51,12.26-4.38,8.24-5.16,9.71-6.45,12.15-.42.8-1,1.87-1.27,2.38a7.9,7.9,0,0,0-.5,1s3.16.09,7,.09h7l-.09.41a1.83,1.83,0,0,1-1.13,1.34c-.54.19-15.84.28-16,.09s.37-1,1.84-3.71c.23-.41.78-1.46,1.24-2.32s3-5.64,5.64-10.62,5.16-9.68,5.57-10.46,1-1.83,1.24-2.32l2.61-4.94c.44-.82.86-1.57.94-1.68s-5.39-.19-10.86-.19c-5.29,0-10.57.06-10.79.18"/></clipPath><linearGradient id="linear-gradient-2" x1="-255.88" y1="412.75" x2="-255.37" y2="412.75" gradientTransform="matrix(54.72, 0, 0, -54.72, 14089.76, 22609.9)" xlink:href="#linear-gradient"/><clipPath id="clip-path-3"><path class="cls-1" d="M115.22,10.92l-.11,2.39.38.41a3,3,0,0,1,.55.91c.3.91.23,1.09-2.41,5.93-.53,1-2.59,4.83-3.59,6.73l-1.5,2.84c-1.12,2.1-2.09,4-2.09,4.15,0,.31,11.46.12,11.86-.19s1.3-1.74,4.32-7.47c1.32-2.51,1.42-2-1.4-7.29-1-2-1-2-1.37-1.34-1.22,2.3-2.35,4.46-3.46,6.61-.72,1.4-1.64,3.16-2.05,3.91-.82,1.53-.81,1.55.46,1.55s1.55-.37,2.77-2.77c2-4,2.37-4.56,2.73-4.56.86,0,.73,1.79-.28,3.83-2.52,5.08-2.77,5.35-4.93,5.49a28.16,28.16,0,0,1-4.74-.14c-.06,0,1.68-3.54,1.92-3.87.06-.08.5-.89,1-1.8.86-1.62,1.38-2.6,2.38-4.45,3.62-6.71,3.54-6.34,2-9.3-.62-1.15-1.34-2.52-1.6-3s-.42-.82-.53-.82-.17.66-.24,2.28"/></clipPath><linearGradient id="linear-gradient-3" x1="-255.77" y1="411.95" x2="-255.26" y2="411.95" gradientTransform="matrix(33.56, 0, 0, -33.56, 8690.05, 13846.58)" xlink:href="#linear-gradient"/><clipPath id="clip-path-4"><path class="cls-1" d="M86.48,13.74c-.68.31-.93.71-3.8,6.12-2.06,3.88-2.05,3.49-.24,7,.79,1.53,1.56,3,1.7,3.21l.27.43,2.38-4.58c1.32-2.51,2.77-5.31,3.24-6.22L90.88,18l-.47-.13c-1.41-.37-2.24.24-3.3,2.42-2.36,4.83-3.1,5.73-3.28,4a5.43,5.43,0,0,1,.06-1.42,29,29,0,0,1,3.58-6.63l.44-.41h3.14a12.83,12.83,0,0,1,3.14.15,44.76,44.76,0,0,1-2.36,4.71l-1.57,2.92c-.33.61-.81,1.52-1.08,2-3.88,7.18-3.88,7.19-1.29,11.45l.28.47L88.71,36c.47-1.38.51-1.65.34-1.85-1.1-1.25-1-1.4,1.88-6.81.54-1,1.28-2.37,1.65-3.07l2.47-4.63c1.52-2.86,3-5.6,3.15-6a16.23,16.23,0,0,0-3.31-.14,76.67,76.67,0,0,0-8.41.31"/></clipPath><linearGradient id="linear-gradient-4" x1="-255.06" y1="412.05" x2="-254.55" y2="412.05" gradientTransform="matrix(33.61, 0, 0, -33.61, 8653.66, 13874.83)" xlink:href="#linear-gradient"/><clipPath id="clip-path-5"><path class="cls-2" d="M33.29,51.44c0-1.08,1.85-4.33,3.12-5.48.77-.69,1-.6,1,.45a6.46,6.46,0,0,1-2.6,4.51,4,4,0,0,1-1.41.56s-.07,0-.07,0M16.56,50.21c.17-.41.55-1.45.84-2.31.47-1.4.71-2.2,1.21-3.93.19-.69.29-.69.55,0a5.56,5.56,0,0,1-2.25,7,1.7,1.7,0,0,1-.54.22c-.17,0-.08-.25.19-.9M31.4,35.82c-.78,2.06-2.92,2.55-7.74,1.77C14.1,36,10.33,36.66,8,40.16,4.79,45,7.89,52,13.24,52c.66,0,.67,0,0,1.28C11.07,57.65,8.35,59.6,6,58.53c-1.37-.61-2.37-2.4-1.56-2.79a.58.58,0,0,0-.24-1.14c-1.82,0,0,3.88,2.07,4.47,3.47,1,6.9-1.31,9.12-6.07.57-1.21.61-1.26,1.19-1.46,3.1-1.06,4.63-5.71,2.78-8.44L19,42.65l.51-1.76c.67-2.31.71-2.15-.45-2.15h-1l-.34,1.39-.35,1.4H16.15a3.73,3.73,0,0,0-2,.34c-2,.93-3.58,4.41-2,4.41a.64.64,0,0,0,.31-1.19l-.33-.18c-.28-.23,1.5-2.29,2.25-2.61,1.29-.54,2.79-.55,2.79,0a65.12,65.12,0,0,1-2.64,8.23c-.49,1.19-.57,1.22-2.1.95-7.37-1.3-7-12.53.52-14.1,1.79-.38,5.51-.11,9,.65.86.19,2.06.43,2.66.54s1.18.21,1.26.24,0,.36-.24,1-.66,1.59-1,2.38l-1,2.54c-.47,1.15-1.68,4.09-2.18,5.33-.16.39-.74,1.81-1.28,3.15s-1,2.46-1,2.5a3.69,3.69,0,0,0,1,.07h1l1-2.44c2.43-5.76,4-8.22,5.22-8.22,1,0,.74,1.42-1.29,6-2.44,5.48.66,6.77,4.14,1.72l.84-1.21a2.88,2.88,0,0,1,.08,1.11c0,4.13,3.74,4.27,6.8.25,1-1.35,2.43-3.7,2.25-3.76L40,49.1a6.65,6.65,0,0,0-.73,1.08c-3.2,5.29-6,6.53-6,2.68V52l.59-.15c3.28-.84,5.68-7.09,2.73-7.09-1.41,0-3,1.49-4.39,4.14-1.56,3-3.87,6-4.65,6.15-.58.1-.34-1.38.62-3.79,1.65-4.16,1.76-5.12.71-6.09-.85-.79-1.9-.6-3.06.56-.85.85-.88.81-.34-.45.17-.4.66-1.6,1.09-2.67C28,39,28,39,28.53,39h.06a3.55,3.55,0,0,0,2.92-2.19c.3-.92.36-1.58.23-1.58s-.18.18-.34.6"/></clipPath><clipPath id="clip-path-6"><path class="cls-2" d="M38.36,75.44c0-2.57,0-4.71.07-4.75a8.66,8.66,0,0,1,2.37.17c2.68.42,4,2.42,3.58,5.38C44,78.64,42.55,79.8,39.56,80l-1.2.09Zm-18-1.11-1.61,0,.57-1.76c.32-1,.86-2.63,1.21-3.7.87-2.68.91-2.78,1.07-2.54s.9,2,1.85,4.1l1.74,3.9-1.62,0-1.6,0-1.61,0m18-8.33V61.75h.29c.16,0,.82.07,1.46.14,2.71.33,3.72,1.36,3.81,3.89.11,2.8-1.23,4.13-4.44,4.37l-1.12.09ZM22,61.76c-.6.5-1.23,1.05-1.4,1.21l-.29.29.48,1.07.48,1.07-.34,1c-.32,1-1.5,4.36-3.19,9.22C16.47,79.17,16,79.87,14.81,80c-.41.06-.64.15-.64.26s.46.18,2.41.18,2.4,0,2.4-.18-.2-.21-.52-.26c-1.18-.19-1.3-.91-.54-3.2l.5-1.49,3.6,0,3.6,0,.4.88c1.29,2.82,1.3,3.69.07,3.89-.28,0-.47.15-.47.25s13.8.26,16.06,0c4.71-.46,6.71-2.34,6.17-5.81a4.85,4.85,0,0,0-4.55-3.94c-.75,0-.6-.19.38-.47,4.89-1.42,5.26-6.52.59-8.09-1.81-.61-11.63-1-11.63-.49,0,.12.2.22.55.28,1.75.29,1.67-.15,1.63,9.28,0,7.81,0,7.93-.31,8.29a2.06,2.06,0,0,1-2.91.1c-.76-.69-.81-.8-7.25-15.86-.61-1.42-1.15-2.64-1.19-2.69h0a5.49,5.49,0,0,0-1.17.82"/></clipPath><clipPath id="clip-path-7"><path class="cls-2" d="M1.32,61.36l-.07.36c-.05.19-.14.79-.21,1.33S.82,64.52.72,65.13c-.35,2.2-.36,2.24-.13,2.19a1.84,1.84,0,0,0,.54-.82C2.41,63.44,5,61.88,8.75,61.88h1.41L9.55,63,7,67.67,4.65,71.89,3.38,74.17,2,76.64c-.27.5-.83,1.51-1.25,2.25A13.4,13.4,0,0,0,0,80.35c0,.08,2.75.12,6.87.12h6.88l.08-.55c.27-1.87.76-5,.82-5.27.11-.43-.32-.38-.49.07a7.5,7.5,0,0,1-5,5c-1,.33-5.25.42-5,.11.06-.09.37-.63.68-1.2S6.24,76,7.32,74l2.23-4L12,65.58c1.2-2.15,2.17-4,2.17-4.07s-1.53-.15-6.42-.15Z"/></clipPath><clipPath id="clip-path-8"><path class="cls-2" d="M54.71,61.36c-5.88,0-6.86,0-6.86.19s.2.21.59.27c1.62.25,1.62.21,1.62,9.16s0,8.84-1.58,9c-.41.06-.63.15-.63.27s1.17.17,7.37.14l7.37,0,.17-1.11.42-2.84c.32-2.06.32-2.1.09-2.1s-.3.34-.45.76C61.68,78.26,59,80,55.31,80H53.57V71.37h.93c1.75,0,2.72.83,2.82,2.42,0,.6.1.83.23.83s.18-.58.18-3.31,0-3.32-.19-3.32-.2.16-.2.65c0,1.58-.75,2.25-2.56,2.32L53.57,71V61.84l1.59.07c3.61.15,5.66,1.76,6.93,5.4.21.62.4,0,.26-.92-.09-.51-.3-1.86-.47-3l-.31-2Z"/></clipPath><clipPath id="clip-path-9"><path class="cls-2" d="M70.58,61.36c-5.83,0-6.87,0-6.87.18s.21.22.55.28c1.78.29,1.73,0,1.73,9.09s0,8.9-1.64,9.12c-.42.06-.64.15-.64.27s1.18.17,7.38.14l7.37,0,.16-1c.79-5,.79-5.07.5-5.07-.11,0-.2.07-.2.15a9.28,9.28,0,0,1-1.74,3.07c-1.58,1.71-2.92,2.26-5.7,2.34l-2,.06V71.34l1.09,0a2.5,2.5,0,0,1,2.76,2.51c.19,1.59.31.56.31-2.59s-.12-4.2-.31-2.55S72.4,70.9,70.66,71L69.43,71V61.88h1.15c3.48,0,6.17,1.78,7.13,4.71.24.76.71,1.11.62.46,0-.16-.16-1-.31-2s-.33-2.15-.41-2.7l-.15-1Z"/></clipPath><clipPath id="clip-path-10"><path class="cls-2" d="M85.3,66.38V61.75h.35c.2,0,.89.08,1.53.18,2.36.35,3.37,1.37,3.71,3.73.48,3.33-.91,4.88-4.72,5.25L85.3,71Zm-5.73-4.86c0,.12.28.25.81.37,1.55.36,1.56.48,1.51,9.72,0,8.34,0,8.2-1.69,8.42-.4.06-.63.15-.63.26s.71.18,4,.18,4,0,4-.18-.24-.21-.7-.26c-1.45-.18-1.64-.81-1.64-5.3V71.6l.64.07c2,.24,2.74,1.15,4.64,5.81A4.4,4.4,0,0,0,93,80.25c.85.29,4.63.33,4.63,0,0-.12-.24-.21-.68-.26-1.26-.15-1.52-.44-3.5-3.91-2.32-4-2.4-4.16-3.38-4.63-.69-.32-.76-.38-.49-.44a9.84,9.84,0,0,0,2.54-.75c1.67-.78,2.19-1.66,2.19-3.69,0-2.91-1.36-4.31-4.81-5a68.65,68.65,0,0,0-7.09-.29,12.28,12.28,0,0,0-2.86.15"/></clipPath></defs><g id="Layer_2" data-name="Layer 2"><g id="Layer_1-2" data-name="Layer 1"><path class="cls-2" d="M50.4,97.49C46.75,100,42.48,96.13,44,91.77a4.31,4.31,0,0,1,6.39-2.18c.54.36.92.34.85,0-.16-.83-3.23-1.47-4.84-1-4.24,1.21-4.68,8-.65,9.84a5.57,5.57,0,0,0,5.35-.66c.73-.62.15-.81-.72-.23"/><path class="cls-2" d="M74.3,88.63a2.41,2.41,0,0,0-1,2.14l-.06,1h-.57c-.42,0-.57,0-.57.19s.12.2.3.2a2.89,2.89,0,0,1,.58.08l.29.08v6.47h.66v-6.5h1.17c1.08,0,1.17,0,1.17-.26s-.09-.26-1.17-.26H73.91V91c0-1.42.54-2.09,1.75-2.15.48,0,.65-.09.65-.23,0-.36-1.48-.34-2,0"/><path class="cls-2" d="M106,96.56l.28-.44a7.21,7.21,0,0,0,.67-2.15c0-.43-.51-.15-.6.32a6.45,6.45,0,0,1-.39,1.18c-.38.87-.28.92-2.54-1.37-1.89-1.91-2.32-2.56-2.32-3.44a1.89,1.89,0,0,1,3.64-.62c.2.48.65.54.65.08,0-1.28-2.13-2.2-3.57-1.53a2.42,2.42,0,0,0-.85,3.69c.38.62.4.69.19.81-1.61,1-2.29,2.09-2.09,3.46.36,2.41,3.68,3,6,1.07l.56-.46.83.79c.67.65.91.8,1.26.8h.43l-1.09-1.1Zm-1.31.71c-1.43,1.3-3.57,1.33-4.53.09s-.51-2.58.85-3.57c.74-.53.71-.54,2.58,1.28l1.7,1.66Z"/><polygon class="cls-2" points="113.43 98.1 113.43 93.29 113.43 88.48 113.04 88.48 112.65 88.48 112.65 93.61 112.65 98.75 115.45 98.75 118.24 98.75 118.24 98.42 118.24 98.1 115.84 98.1 113.43 98.1"/><path class="cls-2" d="M94.08,98.12c-.47.23-.6.25-.94.1-.6-.25-.64-.44-.64-3.3V92.25h1.1c1,0,1.11,0,1.11-.26s-.09-.26-1.11-.26H92.5V90.36c0-1.25,0-1.36-.25-1.36s-.26.14-.34,1.35l-.09,1.36-.6,0c-.86.06-.85.41,0,.47l.62,0V98l.33.4a2.1,2.1,0,0,0,2.28.17c.75-.44.41-.8-.38-.4"/><path class="cls-2" d="M55.29,91.51c-2.75.77-3.2,5.5-.65,6.89a3.28,3.28,0,0,0,4.69-1.81c.84-3.34-1.18-5.88-4-5.08m3.38,5.06a2.53,2.53,0,0,1-4.72.18c-1.22-2.92,1.09-5.85,3.6-4.56,1.09.57,1.63,2.67,1.12,4.38"/><path class="cls-2" d="M69.94,91.88a2.42,2.42,0,0,0-3.53.66l-.2.39-.28-.49a1.83,1.83,0,0,0-2.63-.8,3,3,0,0,0-.93.65c-.32.41-.43.33-.43-.33,0-.41,0-.49-.26-.49s-.26.08-.26,3.64v3.64h.65V93.16l.52-.52a1.8,1.8,0,0,1,2.79-.09c.25.34.27.56.31,3.28l0,2.92h.61l0-2.7c.06-3.44.37-4.11,1.92-4.11s1.76.46,1.81,4l0,2.84h.64V96c0-3-.1-3.52-.84-4.1"/><path class="cls-2" d="M79.69,91.45c-1.92.5-2.89,2.4-2.41,4.72a3.23,3.23,0,0,0,6.17.65c1.19-2.9-1-6.08-3.76-5.37m2.43,6.31a2.65,2.65,0,0,1-4.07-1.23c-.88-3.06,1.26-5.59,3.67-4.34,1.53.79,1.79,4.33.4,5.57"/><path class="cls-2" d="M87.68,91.63a3.49,3.49,0,0,0-1,.85l-.42.57,0-.44c0-.66-.17-1.07-.41-1.12s-.22.24-.22,3.61v3.65h.65V96.37c0-3.5,1-4.94,2.86-4.27.36.12.41.11.51-.15.23-.6-1-.8-1.95-.32"/><path class="cls-2" d="M144.59,91.47a3,3,0,0,0-1.39,1.22l-.24.38-.07-.32a6.44,6.44,0,0,1-.1-.76c0-.31-.11-.47-.27-.5s-.22.2-.22,3.61v3.65h.63l0-2.59,0-2.59.41-.56a2.21,2.21,0,0,1,2.65-.88c.13,0,.19,0,.19-.27,0-.46-.81-.65-1.67-.39"/><path class="cls-2" d="M124.61,91.47V97l-.45.4c-1.33,1.17-2.89,1.19-3.6,0-.29-.45-.3-.63-.34-3.24l0-2.76h-.65l0,2.76c0,3.15.18,3.7,1,4.24a3.34,3.34,0,0,0,3.63-.59l.34-.32.09.59c.07.47.14.6.34.6s.26-.13.26-3.64V91.47h-.66Z"/><path class="cls-2" d="M131.45,93.35c1.28-1.75,1.35-1.88,1-1.88s-.42.07-1.54,1.65a16.24,16.24,0,0,1-1.11,1.47A17.22,17.22,0,0,1,128.66,93c-1-1.44-1.72-2.07-1.7-1.47a18.34,18.34,0,0,0,1.17,1.73c1.4,1.95,1.41,1.49-.07,3.58-1.38,1.94-1.35,1.88-.93,1.88s.86-.71,2.33-2.89c.39-.58.26-.68,1.71,1.42.9,1.32,1.64,2,1.64,1.39,0-.08-1.57-2.37-2.11-3.06s-.52-.52.75-2.26"/><path class="cls-2" d="M139.18,91.47V97l-.5.45c-1.24,1.12-2.77,1.12-3.5,0-.2-.29-.24-.76-.29-3.15-.07-2.78-.07-2.8-.36-2.84l-.29,0v2.69c0,3.09.08,3.51.8,4.16a3,3,0,0,0,3.86-.51c.29-.35.41-.25.41.37s0,.59.26.59.26-.09.26-3.64V91.47h-.65Z"/><path class="cls-2" d="M153.48,91.47c-.35,0-.48.22-1.76,3.25-.63,1.46-1.18,2.71-1.22,2.76a19.72,19.72,0,0,1-1.37-2.86,32.34,32.34,0,0,0-1.43-3.05c-.19-.13-.59-.13-.59,0s.67,1.63,1.5,3.48l1.5,3.37-.59,1.32c-.63,1.41-.68,1.61-.43,1.61.41,0,.31.18,3.73-7.65,1.05-2.43,1-2.23.66-2.23"/><g class="cls-3"><rect class="cls-4" x="72.79" width="58.94" height="48.75"/></g><g class="cls-5"><rect class="cls-6" x="88.34" y="4.92" width="27.83" height="38.77"/></g><g class="cls-7"><rect class="cls-8" x="106.45" y="8.64" width="17.6" height="25.95"/></g><g class="cls-9"><rect class="cls-10" x="80.62" y="13.43" width="17.63" height="24.13"/></g><path class="cls-2" d="M33.29,51.44c0-1.08,1.85-4.33,3.12-5.48.77-.69,1-.6,1,.45a6.46,6.46,0,0,1-2.6,4.51,4,4,0,0,1-1.41.56s-.07,0-.07,0M16.56,50.21c.17-.41.55-1.45.84-2.31.47-1.4.71-2.2,1.21-3.93.19-.69.29-.69.55,0a5.56,5.56,0,0,1-2.25,7,1.7,1.7,0,0,1-.54.22c-.17,0-.08-.25.19-.9M31.4,35.82c-.78,2.06-2.92,2.55-7.74,1.77C14.1,36,10.33,36.66,8,40.16,4.79,45,7.89,52,13.24,52c.66,0,.67,0,0,1.28C11.07,57.65,8.35,59.6,6,58.53c-1.37-.61-2.37-2.4-1.56-2.79a.58.58,0,0,0-.24-1.14c-1.82,0,0,3.88,2.07,4.47,3.47,1,6.9-1.31,9.12-6.07.57-1.21.61-1.26,1.19-1.46,3.1-1.06,4.63-5.71,2.78-8.44L19,42.65l.51-1.76c.67-2.31.71-2.15-.45-2.15h-1l-.34,1.39-.35,1.4H16.15a3.73,3.73,0,0,0-2,.34c-2,.93-3.58,4.41-2,4.41a.64.64,0,0,0,.31-1.19l-.33-.18c-.28-.23,1.5-2.29,2.25-2.61,1.29-.54,2.79-.55,2.79,0a65.12,65.12,0,0,1-2.64,8.23c-.49,1.19-.57,1.22-2.1.95-7.37-1.3-7-12.53.52-14.1,1.79-.38,5.51-.11,9,.65.86.19,2.06.43,2.66.54s1.18.21,1.26.24,0,.36-.24,1-.66,1.59-1,2.38l-1,2.54c-.47,1.15-1.68,4.09-2.18,5.33-.16.39-.74,1.81-1.28,3.15s-1,2.46-1,2.5a3.69,3.69,0,0,0,1,.07h1l1-2.44c2.43-5.76,4-8.22,5.22-8.22,1,0,.74,1.42-1.29,6-2.44,5.48.66,6.77,4.14,1.72l.84-1.21a2.88,2.88,0,0,1,.08,1.11c0,4.13,3.74,4.27,6.8.25,1-1.35,2.43-3.7,2.25-3.76L40,49.1a6.65,6.65,0,0,0-.73,1.08c-3.2,5.29-6,6.53-6,2.68V52l.59-.15c3.28-.84,5.68-7.09,2.73-7.09-1.41,0-3,1.49-4.39,4.14-1.56,3-3.87,6-4.65,6.15-.58.1-.34-1.38.62-3.79,1.65-4.16,1.76-5.12.71-6.09-.85-.79-1.9-.6-3.06.56-.85.85-.88.81-.34-.45.17-.4.66-1.6,1.09-2.67C28,39,28,39,28.53,39h.06a3.55,3.55,0,0,0,2.92-2.19c.3-.92.36-1.58.23-1.58s-.18.18-.34.6"/><g class="cls-11"><rect class="cls-2" x="2.33" y="35.22" width="38.05" height="24.82"/></g><path class="cls-2" d="M38.36,75.44c0-2.57,0-4.71.07-4.75a8.66,8.66,0,0,1,2.37.17c2.68.42,4,2.42,3.58,5.38C44,78.64,42.55,79.8,39.56,80l-1.2.09Zm-18-1.11-1.61,0,.57-1.76c.32-1,.86-2.63,1.21-3.7.87-2.68.91-2.78,1.07-2.54s.9,2,1.85,4.1l1.74,3.9-1.62,0-1.6,0-1.61,0m18-8.33V61.75h.29c.16,0,.82.07,1.46.14,2.71.33,3.72,1.36,3.81,3.89.11,2.8-1.23,4.13-4.44,4.37l-1.12.09ZM22,61.76c-.6.5-1.23,1.05-1.4,1.21l-.29.29.48,1.07.48,1.07-.34,1c-.32,1-1.5,4.36-3.19,9.22C16.47,79.17,16,79.87,14.81,80c-.41.06-.64.15-.64.26s.46.18,2.41.18,2.4,0,2.4-.18-.2-.21-.52-.26c-1.18-.19-1.3-.91-.54-3.2l.5-1.49,3.6,0,3.6,0,.4.88c1.29,2.82,1.3,3.69.07,3.89-.28,0-.47.15-.47.25s13.8.26,16.06,0c4.71-.46,6.71-2.34,6.17-5.81a4.85,4.85,0,0,0-4.55-3.94c-.75,0-.6-.19.38-.47,4.89-1.42,5.26-6.52.59-8.09-1.81-.61-11.63-1-11.63-.49,0,.12.2.22.55.28,1.75.29,1.67-.15,1.63,9.28,0,7.81,0,7.93-.31,8.29a2.06,2.06,0,0,1-2.91.1c-.76-.69-.81-.8-7.25-15.86-.61-1.42-1.15-2.64-1.19-2.69h0a5.49,5.49,0,0,0-1.17.82"/><g class="cls-12"><rect class="cls-2" x="14.17" y="60.94" width="34.77" height="19.62"/></g><path class="cls-2" d="M1.32,61.36l-.07.36c-.05.19-.14.79-.21,1.33S.82,64.52.72,65.13c-.35,2.2-.36,2.24-.13,2.19a1.84,1.84,0,0,0,.54-.82C2.41,63.44,5,61.88,8.75,61.88h1.41L9.55,63,7,67.67,4.65,71.89,3.38,74.17,2,76.64c-.27.5-.83,1.51-1.25,2.25A13.4,13.4,0,0,0,0,80.35c0,.08,2.75.12,6.87.12h6.88l.08-.55c.27-1.87.76-5,.82-5.27.11-.43-.32-.38-.49.07a7.5,7.5,0,0,1-5,5c-1,.33-5.25.42-5,.11.06-.09.37-.63.68-1.2S6.24,76,7.32,74l2.23-4L12,65.58c1.2-2.15,2.17-4,2.17-4.07s-1.53-.15-6.42-.15Z"/><g class="cls-13"><rect class="cls-2" y="61.36" width="14.76" height="19.11"/></g><path class="cls-2" d="M54.71,61.36c-5.88,0-6.86,0-6.86.19s.2.21.59.27c1.62.25,1.62.21,1.62,9.16s0,8.84-1.58,9c-.41.06-.63.15-.63.27s1.17.17,7.37.14l7.37,0,.17-1.11.42-2.84c.32-2.06.32-2.1.09-2.1s-.3.34-.45.76C61.68,78.26,59,80,55.31,80H53.57V71.37h.93c1.75,0,2.72.83,2.82,2.42,0,.6.1.83.23.83s.18-.58.18-3.31,0-3.32-.19-3.32-.2.16-.2.65c0,1.58-.75,2.25-2.56,2.32L53.57,71V61.84l1.59.07c3.61.15,5.66,1.76,6.93,5.4.21.62.4,0,.26-.92-.09-.51-.3-1.86-.47-3l-.31-2Z"/><g class="cls-14"><rect class="cls-2" x="47.85" y="61.36" width="15.65" height="19.11"/></g><path class="cls-2" d="M70.58,61.36c-5.83,0-6.87,0-6.87.18s.21.22.55.28c1.78.29,1.73,0,1.73,9.09s0,8.9-1.64,9.12c-.42.06-.64.15-.64.27s1.18.17,7.38.14l7.37,0,.16-1c.79-5,.79-5.07.5-5.07-.11,0-.2.07-.2.15a9.28,9.28,0,0,1-1.74,3.07c-1.58,1.71-2.92,2.26-5.7,2.34l-2,.06V71.34l1.09,0a2.5,2.5,0,0,1,2.76,2.51c.19,1.59.31.56.31-2.59s-.12-4.2-.31-2.55S72.4,70.9,70.66,71L69.43,71V61.88h1.15c3.48,0,6.17,1.78,7.13,4.71.24.76.71,1.11.62.46,0-.16-.16-1-.31-2s-.33-2.15-.41-2.7l-.15-1Z"/><g class="cls-15"><rect class="cls-2" x="63.71" y="61.36" width="15.7" height="19.11"/></g><path class="cls-2" d="M85.3,66.38V61.75h.35c.2,0,.89.08,1.53.18,2.36.35,3.37,1.37,3.71,3.73.48,3.33-.91,4.88-4.72,5.25L85.3,71Zm-5.73-4.86c0,.12.28.25.81.37,1.55.36,1.56.48,1.51,9.72,0,8.34,0,8.2-1.69,8.42-.4.06-.63.15-.63.26s.71.18,4,.18,4,0,4-.18-.24-.21-.7-.26c-1.45-.18-1.64-.81-1.64-5.3V71.6l.64.07c2,.24,2.74,1.15,4.64,5.81A4.4,4.4,0,0,0,93,80.25c.85.29,4.63.33,4.63,0,0-.12-.24-.21-.68-.26-1.26-.15-1.52-.44-3.5-3.91-2.32-4-2.4-4.16-3.38-4.63-.69-.32-.76-.38-.49-.44a9.84,9.84,0,0,0,2.54-.75c1.67-.78,2.19-1.66,2.19-3.69,0-2.91-1.36-4.31-4.81-5a68.65,68.65,0,0,0-7.09-.29,12.28,12.28,0,0,0-2.86.15"/><g class="cls-16"><rect class="cls-2" x="79.57" y="61.37" width="18.07" height="19.21"/></g><path class="cls-2" d="M107.35,63v-.48h7.39V63h-.45a1.61,1.61,0,0,0-1,.28,1.22,1.22,0,0,0-.42.63,7.26,7.26,0,0,0-.11,1.66v8.73a12.42,12.42,0,0,1-.4,3.73A4.12,4.12,0,0,1,111,80a3.88,3.88,0,0,1-2.46.79,3.65,3.65,0,0,1-2.83-1.19A3.78,3.78,0,0,1,104.59,77a2.37,2.37,0,0,1,.44-1.5,1.31,1.31,0,0,1,2.13,0,1.92,1.92,0,0,1,.42,1.26,2.46,2.46,0,0,1-.07.64,6.92,6.92,0,0,1-.33.67,2.07,2.07,0,0,0-.28.75.76.76,0,0,0,.27.59,1.41,1.41,0,0,0,1,.37.94.94,0,0,0,.72-.29,1.64,1.64,0,0,0,.41-.9,26.47,26.47,0,0,0,.12-3.4V65.61a7.05,7.05,0,0,0-.12-1.71,1.25,1.25,0,0,0-.46-.6,1.53,1.53,0,0,0-.93-.26Z"/><path class="cls-2" d="M123.61,75.31h-4.92l-.58,1.74a4.86,4.86,0,0,0-.29,1.43,1.32,1.32,0,0,0,.47,1.11,3.29,3.29,0,0,0,1.37.31v.49H115V79.9a1.93,1.93,0,0,0,1.23-.79,11.67,11.67,0,0,0,1.19-2.69l5-14.23h.19l5,14.62a9.62,9.62,0,0,0,1.18,2.62,1.41,1.41,0,0,0,1,.47v.49h-6.73V79.9h.28a1.7,1.7,0,0,0,1.14-.29.78.78,0,0,0,.22-.6,2.12,2.12,0,0,0-.06-.49,9.85,9.85,0,0,0-.31-1Zm-.35-1-2.08-6.14-2.13,6.14Z"/><path class="cls-2" d="M139.91,62.15l.11,5.94h-.42a6.82,6.82,0,0,0-1.46-3.59,3.33,3.33,0,0,0-2.52-1.36,2.09,2.09,0,0,0-1.66.71,2.51,2.51,0,0,0-.61,1.65,2.39,2.39,0,0,0,.22,1.06,4.09,4.09,0,0,0,1,1.22,21.32,21.32,0,0,0,2.23,1.54,10.26,10.26,0,0,1,3.29,2.9,5.89,5.89,0,0,1,.84,3.13,5.75,5.75,0,0,1-1.36,3.85,4.31,4.31,0,0,1-3.45,1.61,4.53,4.53,0,0,1-1.24-.17,8.17,8.17,0,0,1-1.47-.64,1.81,1.81,0,0,0-.81-.27A.86.86,0,0,0,132,80a1.76,1.76,0,0,0-.48.8h-.38V74.06h.38a8.69,8.69,0,0,0,1.73,4.34A3.7,3.7,0,0,0,136,79.89a2.28,2.28,0,0,0,1.83-.8,2.78,2.78,0,0,0,.68-1.87,2.88,2.88,0,0,0-.26-1.22,3.74,3.74,0,0,0-.79-1.13,12.57,12.57,0,0,0-1.89-1.38,15.86,15.86,0,0,1-2.73-2,6.21,6.21,0,0,1-1.28-1.88,5.91,5.91,0,0,1-.44-2.29,5.53,5.53,0,0,1,1.22-3.63,3.8,3.8,0,0,1,3.07-1.5,4.19,4.19,0,0,1,1.32.21,5.8,5.8,0,0,1,1.17.59,2.41,2.41,0,0,0,1,.42.49.49,0,0,0,.42-.21,2.66,2.66,0,0,0,.29-1Z"/><path class="cls-2" d="M147.47,71.82v5.52a7.05,7.05,0,0,0,.12,1.71,1.25,1.25,0,0,0,.46.6,1.53,1.53,0,0,0,.93.25h.46v.49h-7.27V79.9h.46a1.61,1.61,0,0,0,1-.27A1.18,1.18,0,0,0,144,79a6.74,6.74,0,0,0,.11-1.66V65.61A7.26,7.26,0,0,0,144,63.9a1.23,1.23,0,0,0-.45-.6,1.53,1.53,0,0,0-.93-.26h-.46v-.48h7.27V63H149a1.63,1.63,0,0,0-1,.28,1.22,1.22,0,0,0-.42.63,7.26,7.26,0,0,0-.11,1.66v5h4.91v-5a7.26,7.26,0,0,0-.11-1.71,1.19,1.19,0,0,0-.46-.6,1.53,1.53,0,0,0-.93-.26h-.46v-.48h7.27V63h-.45a1.61,1.61,0,0,0-1,.28,1.17,1.17,0,0,0-.42.63,7.26,7.26,0,0,0-.11,1.66V77.34a7.9,7.9,0,0,0,.11,1.71,1.25,1.25,0,0,0,.46.6,1.58,1.58,0,0,0,.94.25h.45v.49h-7.27V79.9h.46a1.57,1.57,0,0,0,1-.27,1.25,1.25,0,0,0,.42-.63,6.74,6.74,0,0,0,.11-1.66V71.82Z"/><path class="cls-2" d="M166.18,62.31a6.13,6.13,0,0,1,5.4,2.48,10.37,10.37,0,0,1,2.08,6.62,11.3,11.3,0,0,1-1.55,6,6.42,6.42,0,0,1-5.79,3.42,6.5,6.5,0,0,1-5.81-3.26,11.27,11.27,0,0,1-1.62-6.12A10.27,10.27,0,0,1,161,64.8,5.94,5.94,0,0,1,166.18,62.31Zm.13.84c-1.28,0-2.24.83-2.91,2.5a16.71,16.71,0,0,0-.81,5.89q0,4.56,1.25,6.75a2.72,2.72,0,0,0,2.44,1.52,2.49,2.49,0,0,0,1.77-.66,5.66,5.66,0,0,0,1.41-2.69,19.09,19.09,0,0,0,.5-4.82,19.87,19.87,0,0,0-.52-5.29,5.34,5.34,0,0,0-1.3-2.48A2.65,2.65,0,0,0,166.31,63.15Z"/><path class="cls-2" d="M180,72.26v5a7.1,7.1,0,0,0,.14,1.82,1.2,1.2,0,0,0,.49.6,2.6,2.6,0,0,0,1.3.22v.49H174.8V79.9a2.51,2.51,0,0,0,1.31-.23,1.2,1.2,0,0,0,.48-.59,7.1,7.1,0,0,0,.14-1.82V65.69a7,7,0,0,0-.14-1.82,1.15,1.15,0,0,0-.49-.6,2.57,2.57,0,0,0-1.3-.23v-.48h6.46A11.42,11.42,0,0,1,185,63a3.86,3.86,0,0,1,1.91,1.66,5.29,5.29,0,0,1,.73,2.82,4.82,4.82,0,0,1-1.1,3.26,4.32,4.32,0,0,1-2,1.22l3.34,6a9,9,0,0,0,.94,1.46,1.48,1.48,0,0,0,1,.44v.49h-4.38l-4.48-8.13Zm0-8.74v7.81h.59a5.06,5.06,0,0,0,2.13-.34,2.33,2.33,0,0,0,1.11-1.21,5.44,5.44,0,0,0,.41-2.28,4.92,4.92,0,0,0-.75-3,2.8,2.8,0,0,0-2.39-1Z"/><path class="cls-2" d="M195.31,63.58v7.26h.28a2,2,0,0,0,1.92-1.06,8.06,8.06,0,0,0,.75-3.15h.39V76h-.39a8.64,8.64,0,0,0-.51-2.5,2.79,2.79,0,0,0-.92-1.31,2.88,2.88,0,0,0-1.52-.33v5a8.6,8.6,0,0,0,.1,1.8,1,1,0,0,0,.36.54,1.41,1.41,0,0,0,.86.21h.83a4.28,4.28,0,0,0,3.13-1.15,6.94,6.94,0,0,0,1.68-3.53h.39L202,80.39H190V79.9h.46a1.61,1.61,0,0,0,1-.27,1.18,1.18,0,0,0,.41-.63,6.54,6.54,0,0,0,.12-1.66V65.61a10.33,10.33,0,0,0-.06-1.49,1.26,1.26,0,0,0-.38-.71,1.5,1.5,0,0,0-1.06-.37H190v-.48h11.64v5.27h-.39a7.51,7.51,0,0,0-.84-2.77,3.12,3.12,0,0,0-1.52-1.24,6.4,6.4,0,0,0-2.15-.24Z"/></g></g></svg>