<svg xmlns="http://www.w3.org/2000/svg" xmlns:xlink="http://www.w3.org/1999/xlink" viewBox="0 0 423.63 237.03"><defs><style>.cls-1{fill:url(#radial-gradient);}.cls-2{fill:url(#radial-gradient-2);}.cls-3{fill:url(#radial-gradient-3);}.cls-4{fill:url(#radial-gradient-4);}.cls-5{fill:#fff;}</style><radialGradient id="radial-gradient" cx="199.29" cy="58.54" r="61.43" gradientTransform="translate(-2.16 1.03) scale(1.01 0.94)" gradientUnits="userSpaceOnUse"><stop offset="0" stop-color="#9f6d2a"/><stop offset="0.23" stop-color="#d1962b"/><stop offset="0.41" stop-color="#b07e2b"/><stop offset="0.59" stop-color="#efbc59"/><stop offset="0.77" stop-color="#ffd99e"/><stop offset="1" stop-color="#bf8c2c"/><stop offset="1" stop-color="#d0a65e"/></radialGradient><radialGradient id="radial-gradient-2" cx="199.26" cy="58.29" r="39.56" xlink:href="#radial-gradient"/><radialGradient id="radial-gradient-3" cx="226.55" cy="51.61" r="25.79" xlink:href="#radial-gradient"/><radialGradient id="radial-gradient-4" cx="172.25" cy="61.27" r="24.57" xlink:href="#radial-gradient"/></defs><g id="Layer_2" data-name="Layer 2"><g id="Layer_1-2" data-name="Layer 1"><path class="cls-1" d="M146.7,75.39c1.82,3.22,6.51,11.45,10.4,18.28S165,107.53,166,109.29l1.77,3.19,32.16-.09L232,112.3l5.58-9.83c3.06-5.41,8.62-15.19,12.35-21.73S258.34,66,260.3,62.55l3.54-6.29-1.59-2.86c-.88-1.57-4.87-8.6-8.86-15.62S243,19.43,239.07,12.59L232,.18,199.87.09,167.72,0,166,3.2c-1,1.75-5.84,10.33-10.8,19.06s-10.35,18.2-11.95,21-4,6.92-5.18,9l-2.24,3.87,3.79,6.65C141.67,66.53,144.88,72.16,146.7,75.39Zm.27-32c4-7.07,10.24-18,13.87-24.41s7.07-12.45,7.68-13.54l1.12-2,30.25.09,30.25.09,4.91,8.62C239.69,20.41,247,33.17,255.91,49c2.2,3.87,4,7.15,4,7.29S254.53,66,233.2,103.5l-3,5.35H169.55l-4.42-7.76c-2.42-4.27-8.21-14.44-12.85-22.6S142.91,62,141.77,60l-2.08-3.71Z"/><path class="cls-2" d="M200.84,27.26,199,31c-2.6,5.2-4.16,8.31-5.62,11.21-.69,1.37-1.92,3.82-2.72,5.44L180.05,68.75c-.51,1-1.92,3.83-3.14,6.29s-2.47,4.88-2.78,5.35a30.55,30.55,0,0,0-1.68,4.49l-1.13,3.62,1,1.89c.54,1,1.08,2,1.21,2.19s2-3.19,4.06-7.42,4.37-8.79,5-10.12,5.49-11,10.71-21.39,10-20.06,10.7-21.39c3.68-7.32,5.21-10.45,5.21-10.65s-6.8-.22-15.1-.22H179v-1a3.56,3.56,0,0,1,.94-2.16l.94-1.13L198.64,17c9.76,0,17.74,0,17.74.11s-4.65,9.6-9.91,20c-.58,1.14-1.85,3.7-2.84,5.69s-7.06,14.11-13.48,26.91c-15.48,30.88-15.19,30.3-15,30.5.34.36,45.62.64,46.47.28s1.26-1.13,7.32-13.08A21.1,21.1,0,0,0,230,85.05c0-.09-6.94-.17-15.43-.17-10.87,0-15.43-.12-15.43-.38a20.81,20.81,0,0,1,1.34-3l2.4-4.71c.58-1.14,1.72-3.39,2.51-5,3.61-7.25,5.19-10.4,12.37-24.71l7.63-15.21.2-4.8c.12-2.63.29-5.49.39-6.35l.17-1.55-.76,1.38c-.44.76-1.78,3.4-3,5.87-2.84,5.71-3.19,6.4-14.15,28.28-9.53,19-11.23,22.41-14,28-.92,1.85-2.16,4.32-2.77,5.49a21.65,21.65,0,0,0-1.09,2.33c0,.11,6.87.2,15.28.2h15.27l-.2,1a4.12,4.12,0,0,1-2.44,3.09c-1.19.43-34.42.66-34.83.22-.19-.19.79-2.28,4-8.57.48-1,1.69-3.36,2.68-5.35s6.52-13,12.27-24.5,11.19-22.34,12.09-24.15,2.1-4.21,2.68-5.34c1-2,2.28-4.52,5.69-11.39,1-1.9,1.86-3.64,2-3.88.44-.59-46-.62-47,0a3.37,3.37,0,0,0-1,.93c-.63,1-2.52,4.74-4.93,9.61l-2.42,4.92h31.28Z"/><path class="cls-3" d="M229.73,33.75c.65,2.11.5,2.52-5.23,13.69-1.16,2.25-5.62,11.15-7.79,15.53-.94,1.89-2.41,4.84-3.27,6.55-2.43,4.84-4.53,9.28-4.53,9.57,0,.71,24.89.29,25.76-.44,1.19-1,2.83-4,9.39-17.24,2.87-5.78,3.08-4.58-3.05-16.81-2.27-4.54-2.25-4.52-3-3.09-2.66,5.31-5.11,10.3-7.53,15.25C229,60,227,64,226.07,65.77c-1.78,3.54-1.76,3.58,1,3.58,2.56,0,3.36-.85,6-6.38,4.36-9.13,5.14-10.52,5.91-10.52,1.88,0,1.6,4.13-.6,8.82C232.93,73,232.39,73.64,227.7,74c-3,.2-10,0-10.31-.33-.11-.11,3.66-8.17,4.17-8.94.14-.19,1.09-2,2.13-4.14,1.85-3.74,3-6,5.15-10.26,7.88-15.5,7.7-14.65,4.26-21.48-1.34-2.65-2.9-5.8-3.48-7-1.41-2.92-1.42-2.9-1.67,3.37l-.23,5.52.83.95A7.12,7.12,0,0,1,229.73,33.75Z"/><path class="cls-4" d="M160.45,69.33l.57,1,5.18-10.55c2.85-5.8,6-12.27,7-14.37l1.85-3.82-1-.29c-3.06-.86-4.87.55-7.18,5.57-5.12,11.14-6.72,13.23-7.11,9.24a12.56,12.56,0,0,1,.12-3.29c.57-2.7,6.18-13.72,7.78-15.28l1-1h6.81c4.42,0,6.82.13,6.82.35a110.36,110.36,0,0,1-5.11,10.87c-1.17,2.27-2.7,5.3-3.42,6.72S172,58,171.39,59.17C163,75.73,163,75.75,168.58,85.57l.62,1.08,1.17-3.71c1-3.18,1.11-3.79.73-4.25-2.37-2.89-2.28-3.25,4.09-15.72,1.17-2.28,2.78-5.46,3.58-7.08l5.37-10.69c3.31-6.59,6.43-12.92,6.84-13.89.28-.64-24.08-.27-25.46.4s-2,1.62-8.26,14.12c-4.48,9-4.45,8.05-.51,16.1C158.47,65.46,160.13,68.79,160.45,69.33Z"/><path class="cls-5" d="M13.32,125.49c7.44,2.38,14.79-3.19,19.57-14.84,1.21-3,1.29-3.07,2.55-3.56,6.63-2.61,9.91-14,6-20.66l-.67-1.11L41.82,81c1.44-5.65,1.52-5.26-1-5.26H38.8l-.74,3.42-.75,3.42H34.62c-2.33,0-2.92.12-4.26.83C26.08,85.7,22.67,94.2,26,94.2c1.35,0,1.85-2.19.67-2.9-.35-.2-.67-.41-.72-.45-.6-.57,3.22-5.61,4.82-6.37,2.77-1.32,6-1.35,6,0,0,1.49-3.76,14.86-5.67,20.14-1,2.9-1.22,3-4.5,2.34-15.81-3.2-14.91-30.67,1.11-34.51C31.58,71.49,39.55,72.15,47,74c1.84.46,4.41,1,5.72,1.31s2.51.53,2.69.59.05.88-.52,2.45c-.46,1.28-1.41,3.9-2.1,5.83s-1.69,4.71-2.22,6.2c-1,2.82-3.6,10-4.69,13-.33,1-1.57,4.43-2.74,7.71s-2.14,6-2.14,6.12a7.27,7.27,0,0,0,2.17.17h2.16l2.21-6c5.21-14.08,8.58-20.11,11.19-20.11,2.23,0,1.58,3.47-2.77,14.57-5.23,13.4,1.42,16.54,8.87,4.19.9-1.48,1.71-2.81,1.82-2.94a8.48,8.48,0,0,1,.17,2.7c0,10.12,8,10.45,14.57.6,2.19-3.29,5.2-9,4.82-9.19-.18-.07-.38-.14-.45-.18a17,17,0,0,0-1.57,2.65c-6.87,13-12.86,16-12.93,6.56v-2.18l1.27-.38c7-2,12.16-17.36,5.84-17.36-3,0-6.43,3.65-9.41,10.13-3.35,7.27-8.3,14.74-10,15.06-1.23.23-.72-3.39,1.33-9.29,3.54-10.17,3.78-12.52,1.53-14.89-1.84-1.93-4.07-1.46-6.55,1.36-1.84,2.1-1.91,2-.74-1.09.36-1,1.41-3.9,2.34-6.53,3.2-9,3.06-8.75,4.43-8.75,2.41,0,5.53-2.67,6.27-5.36,1-3.45.76-5.38-.24-2.4-1.69,5-6.26,6.24-16.59,4.32-20.5-3.79-28.58-2.28-33.58,6.3-6.87,11.81-.22,29,11.24,29,1.42,0,1.42,0,.07,3.12-4.71,10.7-10.54,15.48-15.7,12.85-2.94-1.49-5.09-5.87-3.34-6.81a1.45,1.45,0,0,0-.51-2.8C5,114.56,8.85,124.06,13.32,125.49ZM35.5,103.81c.37-1,1.17-3.53,1.78-5.64,1-3.43,1.55-5.39,2.6-9.62.43-1.68.63-1.69,1.2-.08,2.26,6.47.07,14.17-4.84,17C34.64,106.42,34.59,106.31,35.5,103.81ZM78.05,93.42c1.65-1.69,2.08-1.45,2.06,1.11,0,3.63-2.75,9-5.6,11-1.18.86-3.16,1.66-3.16,1.28C71.35,104.2,75.33,96.23,78.05,93.42Z"/><path class="cls-5" d="M102.56,163.31c-.72-5.22-5.17-9.62-9.75-9.62-1.62,0-1.29-.47.81-1.17,10.48-3.45,11.28-15.93,1.27-19.78C91,131.25,70,130.25,70,131.55c0,.28.43.53,1.17.67,3.75.72,3.59-.37,3.5,22.7-.08,19.13-.09,19.41-.66,20.3-1.32,2-4.39,2.13-6.23.24-1.64-1.69-1.74-2-15.54-38.79-1.32-3.5-2.47-6.47-2.56-6.59a9.1,9.1,0,0,0-2.54,2c-1.3,1.23-2.66,2.55-3,2.94l-.63.71,1,2.62,1,2.62-.73,2.45c-.68,2.35-3.21,10.66-6.84,22.57-2.66,8.67-3.65,10.4-6.22,10.79-.88.13-1.36.35-1.36.64s1,.43,5.16.43,5.15-.08,5.15-.43-.45-.52-1.12-.64c-2.53-.47-2.8-2.24-1.15-7.84l1.06-3.65,7.72-.09,7.72-.08.86,2.15c2.75,6.91,2.78,9,.14,9.53-.6.11-1,.36-1,.62,0,.55,29.57.63,34.44.1C99.43,176.42,103.72,171.8,102.56,163.31Zm-52-.47c-1.89,0-5,0-6.9,0l-3.44-.09,1.23-4.29c.68-2.36,1.84-6.44,2.58-9.07,1.87-6.55,2-6.79,2.29-6.2.15.26,1.94,4.77,4,10L54,162.75Zm31.67-20.4V132.05h.63c.33,0,1.75.16,3.12.36,5.81.8,8,3.31,8.18,9.5.24,6.85-2.66,10.1-9.52,10.7l-2.41.22ZM95.13,167.5c-.74,5.88-3.91,8.73-10.33,9.28l-2.58.22V165.55c0-6.29.07-11.52.17-11.62s2.57,0,5.07.42C93.19,155.38,96,160.26,95.13,167.5Z"/><path class="cls-5" d="M422.48,176.78c-1.8-.33-2.71-1-3.79-3s-1-1.85-10.42-26.8c-3.52-9.34-6.45-17.05-6.51-17.12s-5.85,5.37-5.95,5.8a13.75,13.75,0,0,0,.92,2.85l1,2.49-1.7,5.61c-.95,3.08-2.25,7.39-2.91,9.58-5.74,18.93-6.19,20-8.65,20.46s-3.41-.49-7.29-7.42c-1.63-2.88-3.35-6-3.85-6.83-6.81-12.09-7.74-13.94-7.34-14.7,2.77-5.21,12.47-14.52,16-15.38.93-.23,1.47-.52,1.47-.81s-1-.45-5.85-.45-5.87.08-5.87.44.41.53,1,.65c2.1.45,1.94,1.49-.82,5.12s-15.76,19.72-16,19.82-.35-18.74,0-21c.4-2.52,1-3.22,3-3.76,3.83-1,2.3-1.3-6.92-1.3s-10.58.26-6.92,1.27c3.33.93,3.35,1.09,3.24,23.58-.1,21-.06,20.83-4.19,20.77-3.33-.05-4-1.3-10.81-19.69-3.26-8.83-10.08-26.75-10.25-26.95a14.32,14.32,0,0,0-3.19,2.64l-3,2.87.72,1.81c1.18,3,1.34,3.76,1,4.91-.27,1-2,6.65-6.57,21.56-3.35,11-4.12,12.45-6.68,12.88a3.66,3.66,0,0,1-4.16-1.68l-.64-1.18-.09-18.3c-.1-23-.19-22.39,3.16-23.25.92-.23,1.53-.55,1.53-.81s-1.58-.43-8.5-.43c-7.14,0-8.5.07-8.5.45s.45.53,1.19.67c3.44.66,3.55,1.05,3.55,13.68v10l-8.86-.08-8.84-.09v-9.7c0-12.49.18-13.16,3.69-13.83.74-.14,1.18-.39,1.18-.67s-1.36-.45-8.5-.45c-9,0-10.41.26-6.92,1.29,3.17.93,3.14.73,3.14,22.25s0,21.64-3.37,22.15c-.87.13-1.34.36-1.34.64s1.48.43,8.49.43,8.5-.07,8.5-.43-.49-.51-1.42-.66c-3.11-.46-3.66-2.47-3.53-12.74l.08-6.37,8.84-.08,8.86-.08v7.87c0,10.13-.25,10.93-3.47,11.43-.79.12-1.26.36-1.26.63s2.2.43,13,.43,12.95-.07,12.95-.43-.42-.52-1-.63c-2.58-.47-2.81-2.18-1.07-8.16l.95-3.34,7.77-.08,7.76-.08,1.07,2.77c2.32,6,2.39,8.28.25,8.82-.65.17-1.18.49-1.18.72s3,.41,16,.41c13.38,0,16-.07,16-.43s-.45-.5-1.25-.6c-3.12-.4-3.57-1.6-3.7-9.94l-.1-6.37,2.29-2.8c1.86-2.29,2.35-2.73,2.64-2.38s7.55,13.33,8.85,15.87c1.52,3,.84,5.18-1.73,5.56-1,.16-1.35.33-1.24.65.22.66,26.57.66,26.57,0,0-.27-.44-.51-1.16-.61-2.58-.4-2.85-2.21-1.18-8l1.06-3.68H407.1l1.13,2.94c2.43,6.33,2.46,8.06.14,8.65-.66.17-1.19.49-1.19.72s1.64.41,8.23.41c6.78,0,8.22-.07,8.22-.43S423.17,176.91,422.48,176.78ZM320.67,162.91c-4.93,0-6.85-.1-6.85-.36s4.69-16.91,5.45-19.33c.25-.79.56-.1,4.31,9.51,2,5.16,3.74,9.56,3.81,9.78S326.05,162.91,320.67,162.91Zm78.6,0c-3.77,0-6.86-.07-6.86-.15s1-3.7,2.27-8,2.5-8.78,2.8-9.87a6.12,6.12,0,0,1,.74-2c.12,0,1.86,4.26,3.88,9.47s3.75,9.71,3.85,10C406.12,162.88,405.69,162.91,399.27,162.91Z"/><path class="cls-5" d="M30.34,163.79C28,170.44,25,173.84,19.56,175.93c-2.07.8-11.23,1-10.72.26.15-.22.81-1.54,1.47-2.94s3.07-6.41,5.36-11.14,4.47-9.16,4.8-9.86,2.7-5.57,5.26-10.83,4.65-9.73,4.65-9.94-3.29-.38-13.78-.38H2.83l-.16.87c-.08.49-.29,2-.44,3.27s-.47,3.6-.68,5.09c-.77,5.38-.77,5.46-.28,5.35a4.38,4.38,0,0,0,1.15-2c2.74-7.47,8.27-11.3,16.33-11.3h3l-1.32,2.79c-.73,1.53-3.2,6.65-5.49,11.37s-4.55,9.37-5,10.34-1.68,3.47-2.71,5.57-2.34,4.81-2.93,6S2.52,172.19,1.62,174A34.42,34.42,0,0,0,0,177.57c0,.18,5.89.29,14.74.29H29.47l.17-1.35c.58-4.59,1.63-12.28,1.76-12.88C31.63,162.56,30.72,162.7,30.34,163.79Z"/><path class="cls-5" d="M103.83,132.23c3.49.6,3.47.5,3.47,22.41s0,21.62-3.37,22.15c-.89.13-1.36.35-1.36.64s2.51.43,15.8.36l15.79-.08.35-2.71c.2-1.49.61-4.61.93-7,.67-5,.68-5.13.19-5.13-.21,0-.65.83-1,1.86-2.46,7.67-8.11,11.82-16.11,11.82h-3.72v-21h2c3.76,0,5.82,2,6,5.93.08,1.45.23,2,.5,2s.38-1.42.38-8.11c0-7,0-8.12-.42-8.12s-.41.4-.41,1.61c0,3.84-1.6,5.5-5.48,5.66l-2.6.11V132.29l3.41.16c7.72.37,12.14,4.29,14.84,13.2.45,1.52.87-.11.56-2.24-.18-1.26-.63-4.54-1-7.3l-.66-5H117.27c-12.61,0-14.7.06-14.7.46S103,132.09,103.83,132.23Z"/><path class="cls-5" d="M137.93,176.79c-.89.13-1.37.35-1.37.64s2.52.43,15.81.36l15.81-.08.33-2.39c1.7-12.31,1.7-12.41,1.08-12.41a.39.39,0,0,0-.42.35c0,1.13-2.3,5.75-3.73,7.52-3.4,4.18-6.28,5.53-12.22,5.73l-4.39.15V155.53l2.32.11c3.73.18,5.51,2,5.93,6.13.4,3.89.66,1.37.66-6.33s-.27-10.27-.67-6.24c-.37,3.79-1.88,5.23-5.61,5.39l-2.63.11V132.37h2.45a15.27,15.27,0,0,1,15.28,11.53c.53,1.86,1.53,2.7,1.33,1.12,0-.39-.34-2.58-.65-4.85s-.7-5.25-.88-6.61L166,131.1H151.29c-12.49,0-14.73.07-14.73.45s.45.53,1.19.67c3.8.73,3.69,0,3.69,22.25S141.5,176.24,137.93,176.79Z"/><path class="cls-5" d="M184.2,156.33c4.31.58,5.88,2.82,10,14.22,1.31,3.66,3.06,5.93,5.24,6.78,1.83.71,9.91.79,9.91.1,0-.29-.5-.5-1.46-.63-2.69-.36-3.24-1.07-7.49-9.56-5-9.91-5.16-10.19-7.25-11.32-1.46-.8-1.61-.95-1-1.08A19.37,19.37,0,0,0,197.5,153c3.58-1.92,4.7-4.06,4.7-9,0-7.12-2.92-10.56-10.31-12.14-3.3-.7-21.33-1-21.33-.35,0,.3.6.61,1.73.91,3.31.87,3.36,1.17,3.24,23.78-.1,20.41-.05,20.07-3.63,20.61-.86.13-1.34.36-1.34.64s1.51.43,8.65.43,8.63-.07,8.63-.44-.49-.51-1.49-.65c-3.11-.44-3.52-2-3.52-13v-7.67Zm-1.37-13V132.05h.77a30.25,30.25,0,0,1,3.27.43c5,.86,7.22,3.37,7.95,9.14,1,8.15-1.95,11.92-10.11,12.85l-1.88.21Z"/><path class="cls-5" d="M263.51,154.48c0-13.85-5.71-21.09-18.06-22.89-4.48-.66-18.31-.7-18.31-.05,0,.28.6.57,1.66.81,3.36.75,3.42,1.26,3.31,24-.1,20.38,0,19.89-3.64,20.44-.86.13-1.33.36-1.33.64,0,.63,14.25.61,18.69,0C257.77,175.7,263.51,168.26,263.51,154.48Zm-21.82,22.3-2.29.22V132l2,.22c1.12.12,2.87.41,3.92.65,7,1.62,10.43,8.12,10.71,20.35C256.39,168.56,252,175.8,241.69,176.78Z"/><path class="cls-5" d="M117.4,227.6c-7.84,6-17-3.33-13.69-14,2-6.4,8.8-9.05,13.71-5.34,1.14.87,2,.82,1.82-.1-.35-2-6.93-3.61-10.38-2.48-9.08,3-10,19.47-1.39,24.09a10.77,10.77,0,0,0,11.47-1.62C120.49,226.63,119.25,226.18,117.4,227.6Z"/><path class="cls-5" d="M168.62,205.93c-1.44,1.1-2,2.51-2.18,5.21l-.13,2.35h-1.22c-.89,0-1.21.13-1.21.48s.25.48.62.48a4.8,4.8,0,0,1,1.25.2l.64.19v15.83h1.39v-15.9h2.51c2.32,0,2.5-.05,2.5-.64s-.18-.64-2.5-.64h-2.51v-1.8c0-3.47,1.17-5.11,3.76-5.27,1-.06,1.39-.21,1.39-.56C172.93,205,169.77,205,168.62,205.93Z"/><path class="cls-5" d="M236.54,225.32l.58-1.08a19,19,0,0,0,1.45-5.25c0-1.05-1.1-.38-1.28.79a18.07,18.07,0,0,1-.84,2.87c-.82,2.13-.6,2.26-5.44-3.34-4-4.69-5-6.26-5-8.43,0-4.92,6.13-6.12,7.8-1.53.43,1.19,1.4,1.33,1.4.22,0-3.15-4.58-5.38-7.66-3.75s-3.78,5.44-1.82,9c.81,1.5.85,1.67.41,2-3.46,2.34-4.92,5.12-4.49,8.48.78,5.89,7.89,7.32,12.93,2.61l1.21-1.13,1.77,1.94c1.45,1.58,1.95,1.94,2.7,1.94h.93L238.87,228Zm-2.83,1.75c-3.05,3.16-7.65,3.25-9.7.2-1.83-2.74-1.08-6.32,1.82-8.72,1.58-1.31,1.52-1.34,5.53,3.14l3.64,4.05Z"/><polygon class="cls-5" points="252.51 229.08 252.51 217.31 252.51 205.54 251.67 205.54 250.83 205.54 250.83 218.1 250.83 230.67 256.83 230.67 262.81 230.67 262.81 229.88 262.81 229.08 257.66 229.08 252.51 229.08"/><path class="cls-5" d="M211,229.13c-1,.57-1.28.61-2,.26-1.3-.61-1.37-1.08-1.37-8.08v-6.54H210c2.18,0,2.37-.06,2.37-.64s-.19-.64-2.37-.64h-2.36v-3.33c0-3.08,0-3.35-.54-3.35s-.55.35-.73,3.33l-.2,3.32-1.29.09c-1.83.14-1.81,1,0,1.15l1.33.1v13.91l.72,1c.87,1.19,3.42,1.41,4.88.43S212.73,228.17,211,229.13Z"/><path class="cls-5" d="M127.87,213c-5.9,1.9-6.84,13.46-1.37,16.86a6.77,6.77,0,0,0,10-4.42C138.34,217.23,134,211,127.87,213Zm7.25,12.38c-1.42,5.38-8.2,5.69-10.12.46-2.62-7.17,2.33-14.34,7.72-11.16C135.06,216,136.21,221.16,135.12,225.34Z"/><path class="cls-5" d="M159.27,213.86a4.83,4.83,0,0,0-7.55,1.61l-.44,1-.6-1.21c-1.27-2.57-3.25-3.25-5.64-2a6.76,6.76,0,0,0-2,1.59c-.69,1-.93.81-.93-.79,0-1-.09-1.22-.55-1.22s-.56.21-.56,8.9v8.91h1.4V217l1.1-1.25c1.94-2.23,4.61-2.33,6-.24.54.84.59,1.37.66,8l.09,7.13h1.31l.09-6.6c.13-8.42.8-10.06,4.11-10.06s3.77,1.13,3.89,9.73l.08,6.93h1.36v-6.76C161.08,216.46,160.87,215.29,159.27,213.86Z"/><path class="cls-5" d="M180.18,212.82C176.06,214,174,218.7,175,224.36c1.42,7.8,10.61,8.9,13.24,1.59C190.79,218.86,186,211.08,180.18,212.82Zm5.19,15.43c-2.66,2.71-7.7,1-8.7-3-1.88-7.48,2.7-13.67,7.86-10.63C187.82,216.56,188.36,225.23,185.37,228.25Z"/><path class="cls-5" d="M197.31,213.26a7.57,7.57,0,0,0-2.14,2.09l-.91,1.38,0-1.07c0-1.63-.37-2.63-.9-2.74s-.47.57-.47,8.82v8.93h1.4v-5.82c0-8.56,2.05-12.07,6.12-10.45.77.31.89.27,1.1-.36C202,212.57,199.36,212.08,197.31,213.26Z"/><path class="cls-5" d="M319.28,212.87a7,7,0,0,0-3,3l-.5.93-.15-.77a16.38,16.38,0,0,1-.23-1.88c0-.76-.22-1.14-.56-1.21s-.49.49-.49,8.82v8.93h1.37l.08-6.33.09-6.33.86-1.37c1.44-2.26,3.11-2.89,5.69-2.15.28.08.41-.13.41-.67C322.87,212.7,321.14,212.23,319.28,212.87Z"/><path class="cls-5" d="M276.48,212.86v13.61l-1,1c-2.86,2.86-6.2,2.89-7.73.1-.6-1.11-.64-1.54-.72-7.93l-.09-6.76h-1.4l.09,6.76c.11,7.71.4,9.06,2.25,10.36,2.05,1.46,5.71.78,7.77-1.43l.73-.79.2,1.46c.14,1.15.3,1.45.73,1.45s.53-.3.53-8.91v-8.9h-1.38Z"/><path class="cls-5" d="M291.13,217.46c2.73-4.28,2.89-4.61,2.16-4.6s-.89.17-3.3,4a38.84,38.84,0,0,1-2.39,3.58,40,40,0,0,1-2.46-3.82c-2.1-3.5-3.67-5-3.65-3.57,0,.13,1.13,2,2.51,4.21,3,4.79,3,3.67-.14,8.76-3,4.75-2.89,4.6-2,4.6.63,0,1.84-1.72,5-7.06.83-1.41.57-1.66,3.66,3.48,1.94,3.24,3.51,4.75,3.51,3.4,0-.21-3.37-5.81-4.51-7.5S288.4,221.72,291.13,217.46Z"/><path class="cls-5" d="M307.69,212.86v13.6l-1.07,1.11c-2.66,2.73-5.93,2.74-7.5,0-.41-.73-.51-1.87-.63-7.71-.14-6.81-.14-6.86-.77-7l-.63-.11v6.59c0,7.55.18,8.58,1.73,10.17,2,2,6.4,1.37,8.28-1.23.62-.87.87-.62.87.9,0,1.22.08,1.43.55,1.43s.56-.21.56-8.91v-8.9h-1.39Z"/><path class="cls-5" d="M338.35,212.86c-.76,0-1,.55-3.79,7.95-1.33,3.59-2.51,6.63-2.61,6.76a54.82,54.82,0,0,1-2.93-7c-1.52-4-2.89-7.34-3-7.47-.42-.32-1.28-.3-1.28,0,0,.15,1.44,4,3.21,8.51l3.21,8.25-1.26,3.23c-1.34,3.44-1.46,3.93-.92,3.92.88,0,.68.46,8-18.71C339.18,212.39,339.06,212.86,338.35,212.86Z"/></g></g></svg>