<svg xmlns="http://www.w3.org/2000/svg" viewBox="0 0 202.81 130.62"><defs><style>.cls-1,.cls-3{fill:#231f20;}.cls-2,.cls-4{fill:#790713;}.cls-3{font-size:73.8px;font-family:Broadway;}.cls-4{font-size:34.85px;font-family:Elephant-Regular, Elephant;}</style></defs><g id="Layer_2" data-name="Layer 2"><g id="Layer_1-2" data-name="Layer 1"><path class="cls-1" d="M3.91,41.36S16.88-.27,69.71,0s46.48,57.38,23.72,65.52c0,0,18.07,17.1,4.83,30.9S69.43,99,69.43,99s-2.34-4.69,2.9-5.66c0,0,5.79,7.17,11.17,1.66s9-12.83.28-20.69l-8.69-7.87S110.68,47,82.68,15.59c0,0-12.83-15.31-41.38-4.28S8.61,52.83,8.06,53.66,5.43,83.17,17.3,91.59,33,99.86,43.23,93.24,52.33,68,51,60.83,43.78,35,43.78,35s4.41-9.11,16.28-9S67,71.45,65.57,78.21,56.33,107.31,31,108.14l-1,15.17s2.62,7.45,8.82,7.31L11,127.86s8.83.69,10.9-6.89a50.38,50.38,0,0,0,1.52-15S6.12,95.31,2.81,83.59-1.75,56,3.91,41.36Z"/><path class="cls-2" d="M13.54,58.32S8.74,89.76,32.36,93c0,0,15.74.13,13.47-28.58,0,0-7.07,4.44-11.07,3.39s-8.68-9.39-14.55-9.52"/><path class="cls-2" d="M14.26,54.76s5.93-.28,9.38,1.38,8.14,6.21,8.14,6.21a20.36,20.36,0,0,0-5.93-7.45,10.56,10.56,0,0,0-9.1-2.21S14.54,52.83,14.26,54.76Z"/><text class="cls-3" transform="translate(108.12 101.69) scale(1.03 1)">ar</text><text class="cls-4" transform="translate(108.68 59.68)">Noxx</text></g></g></svg>