<svg xmlns="http://www.w3.org/2000/svg" xmlns:xlink="http://www.w3.org/1999/xlink" viewBox="0 0 550.17 325.02"><defs><style>.cls-1{fill:none;}.cls-2{clip-path:url(#clip-path);}.cls-3,.cls-5{fill:#fff;}.cls-4{fill:#f05123;}.cls-4,.cls-5{fill-rule:evenodd;}</style><clipPath id="clip-path" transform="translate(-213.38 -276.64)"><rect class="cls-1" width="1000" height="1000"/></clipPath></defs><g id="Layer_2" data-name="Layer 2"><g id="Layer_1-2" data-name="Layer 1"><g class="cls-2"><path class="cls-3" d="M305.3,486.52a27.65,27.65,0,0,0,2.51-11.15A18,18,0,0,0,304.54,465q-3.27-4.78-11.33-7.84a20.83,20.83,0,0,0-3.8-1.33,44.44,44.44,0,0,0-4.49-1,35.08,35.08,0,0,0-6-.47,53,53,0,0,0-11.32,1.4,56.1,56.1,0,0,0-13.77,5.31,87.74,87.74,0,0,0-15.73,11,133.46,133.46,0,0,0-17.26,18.19,43.93,43.93,0,0,0-5.71,10.09,24.76,24.76,0,0,0-1.74,8.63,19,19,0,0,0,3.72,11.76,38.77,38.77,0,0,0,8.67,8.49,54.57,54.57,0,0,0,9.58,5.58c3.09,1.38,5.24,2.37,6.46,3,1,.53,2.74,1.33,5.17,2.39s5.15,2.3,8.14,3.72,6,3,9,4.65a46.87,46.87,0,0,1,7.91,5.38,16.54,16.54,0,0,1,4.64,5.84,5.86,5.86,0,0,1-.68,5.91q-2.59,3.45-8.14,5.18a39.5,39.5,0,0,1-11.79,1.72,40.52,40.52,0,0,1-7-.59,33.35,33.35,0,0,1-6.08-1.66,14.32,14.32,0,0,1-4.56-2.73,6.22,6.22,0,0,1-2.13-3.78,1.61,1.61,0,0,1,.15-1.26,2.89,2.89,0,0,1,.76-.8q.45-.33.84-.66a1.29,1.29,0,0,0,.38-1,1.14,1.14,0,0,0-.54-.93,6.16,6.16,0,0,0-2.51-.66,14.81,14.81,0,0,0-4.41.66,14,14,0,0,0-3.72,2.13A11.34,11.34,0,0,0,224,565.8a9.76,9.76,0,0,0-.91,4.12,10.81,10.81,0,0,0,2,6.11,18.42,18.42,0,0,0,5.63,5.18,32.89,32.89,0,0,0,9,3.65A49,49,0,0,0,252,586.25c1,0,2,0,3-.07s2-.11,3.12-.19a46.17,46.17,0,0,0,11.18-2.39,35.28,35.28,0,0,0,9.12-4.72,22.5,22.5,0,0,0,6.16-6.71,16.09,16.09,0,0,0,2.28-8.36,21,21,0,0,0-3-10.49,24.75,24.75,0,0,0-7.22-7.7A113.81,113.81,0,0,0,266.14,539q-5.62-3.18-11.48-6.24a77.4,77.4,0,0,1-10.49-6.5,31.23,31.23,0,0,1-7.45-7.64,14.71,14.71,0,0,1-2.51-9.36q.3-5.18,4.33-11a69.13,69.13,0,0,1,10-11.42,118.26,118.26,0,0,1,13.08-10.5A126.93,126.93,0,0,1,275.19,468a61.74,61.74,0,0,1,11.33-4.79q4.86-1.4,6.54-.06a6,6,0,0,1,1.82,4.78,23.1,23.1,0,0,1-2.2,9,45.5,45.5,0,0,1-5.78,9.76,38.86,38.86,0,0,1-8.06,7.9,16.09,16.09,0,0,1-9,3.39,6.07,6.07,0,0,1-2.2-.33c-.56-.22-1-.4-1.45-.53a3.52,3.52,0,0,0-1.14-.2,2.78,2.78,0,0,0-1.44.66c-.92.71-1.07,1.79-.46,3.26a13.19,13.19,0,0,0,3.34,4.44,24.66,24.66,0,0,0,5.94,4,16.6,16.6,0,0,0,7.45,1.73,21,21,0,0,0,2.81-.2,9.33,9.33,0,0,0,2.81-.87,22.29,22.29,0,0,0,6.54-4.58,57.3,57.3,0,0,0,7.3-8.3,55.46,55.46,0,0,0,6-10.49m131.91,18.33a11.6,11.6,0,0,0-1.21-1.46,9.67,9.67,0,0,0-2.44-1.33,17,17,0,0,0-2.89-.93,16.18,16.18,0,0,0-3.8-.4A21.66,21.66,0,0,0,414.25,505a22.87,22.87,0,0,0-5.55,5.91,78.46,78.46,0,0,0-5.55,9.49,103.86,103.86,0,0,1-8.06,10.5,85.41,85.41,0,0,1-8.59,8.63,36.59,36.59,0,0,1-7.6,5.24c-2.29,1.11-4,1.22-5.1.33a4,4,0,0,1-1.44-4,17.63,17.63,0,0,1,2.05-5.64,62.79,62.79,0,0,1,4.11-6.58c1.62-2.3,3.21-4.6,4.79-6.9s2.94-4.52,4.1-6.64a16.13,16.13,0,0,0,2-5.71,4.2,4.2,0,0,0-1-3.52,13.08,13.08,0,0,0-3-2.59,21.07,21.07,0,0,0-4.41-2.13q-1.07-.39-2-.66c-1.31-.35-2.23-.27-2.73.26a1.17,1.17,0,0,0,0,1.73,4.87,4.87,0,0,1,.91,1.46c.1.8-.36,2.13-1.37,4s-2.33,4-3.95,6.44-3.38,5-5.25,7.77-3.65,5.42-5.32,8c-1.42,2.22-2.65,4.28-3.7,6.21-.62.55-1.25,1.09-1.93,1.62a32.39,32.39,0,0,1-7.68,4.45,25.18,25.18,0,0,1-9.88,1.86,11.51,11.51,0,0,1-7.15-2.92,49,49,0,0,1-6.69-6.51,31.11,31.11,0,0,0,8.37-.66,35.59,35.59,0,0,0,9.88-3.85q8.67-4.65,12.54-10t3.88-10q0-6.65-6.39-10.36a11.27,11.27,0,0,0-5.62-1.46,15.55,15.55,0,0,0-6.16,1.33,39.13,39.13,0,0,0-6.31,3.45,48.2,48.2,0,0,0-6.16,4.91c-2,1.86-3.88,3.77-5.7,5.71q2.73-6.36,5.78-12.68t5.62-11.82q2.59-5.5,4.56-9.76a31.14,31.14,0,0,0,2.44-6.64,7.91,7.91,0,0,0-.08-5.84,9.74,9.74,0,0,0-3-3.78,9.1,9.1,0,0,0-3.88-1.73c-1.32-.22-2.18-.15-2.58.2a1.3,1.3,0,0,0-.53,1.19,18.55,18.55,0,0,0,.53,2.39c.4,1.51-.18,3.94-1.75,7.31s-3.63,7.26-6.16,11.68-5.35,9.23-8.44,14.41-5.91,10.36-8.44,15.54a127.31,127.31,0,0,0-6.23,14.94,32,32,0,0,0-2,12.75,18.76,18.76,0,0,0,2.36,7.37,14.45,14.45,0,0,0,4.18,4.51,14.71,14.71,0,0,0,5,2.26,21.5,21.5,0,0,0,4.86.6,14.52,14.52,0,0,0,3.35-.33,5,5,0,0,0,1.67-.6,2.28,2.28,0,0,0,.68-2.32,2,2,0,0,0-1.59-1.4,4.42,4.42,0,0,1-2.13-1.13,5.81,5.81,0,0,1-1.37-1.92,10.42,10.42,0,0,1-.91-2.66,21.11,21.11,0,0,1-.08-6,54.56,54.56,0,0,1,1.29-6.9,43,43,0,0,0,3.05,8,33.76,33.76,0,0,0,4.79,7.23,23.57,23.57,0,0,0,6.38,5.25,15.51,15.51,0,0,0,7.68,2,16.46,16.46,0,0,0,5.86-1.13,31.68,31.68,0,0,0,5.78-2.92,35.4,35.4,0,0,0,5.32-4.18c.35-.33.68-.67,1-1a11.82,11.82,0,0,0,2.78,5.32q3.42,3.78,10.26,3.51a19.53,19.53,0,0,0,6.54-1.19,30.53,30.53,0,0,0,6.54-3.32,51.72,51.72,0,0,0,6.24-4.92q3-2.77,5.93-5.84-2.28,5.44-4.41,10.82c-1.43,3.59-2.79,7-4.11,10.36s-2.61,6.44-3.88,9.36-2.51,5.49-3.72,7.71a20.22,20.22,0,0,1-3.5,5,24,24,0,0,1-4.64,3.85,21.76,21.76,0,0,1-5.32,2.46,18.76,18.76,0,0,1-5.55.87,13.3,13.3,0,0,1-7.6-2.26,11,11,0,0,1-4.41-7.17,8.33,8.33,0,0,1,.38-4,15.14,15.14,0,0,1,1.9-3.92,14.11,14.11,0,0,1,2.66-3,3.5,3.5,0,0,1,2.51-1.07c2.94.27,4.15-.71,3.65-2.92a4.43,4.43,0,0,0-1.22-1.26,15.35,15.35,0,0,0-2.74-1.72,19.39,19.39,0,0,0-8.67-2.06,15.63,15.63,0,0,0-6.91,1.66,17.47,17.47,0,0,0-6.47,6,17.28,17.28,0,0,0-3,9.83,18.49,18.49,0,0,0,1.6,7.5,21.78,21.78,0,0,0,4.64,6.7,26,26,0,0,0,7.6,5.18,31.38,31.38,0,0,0,10.49,2.66c.82.09,1.63.15,2.44.2s1.62.07,2.43.07a40.78,40.78,0,0,0,12.47-1.8,36.73,36.73,0,0,0,10.19-5,38.32,38.32,0,0,0,8-7.64,50,50,0,0,0,5.85-9.56q1.06-2.13,2.82-6.31t4-9.63q2.28-5.45,4.94-11.68T412,537.58c1.92-4.12,3.85-8.05,5.78-11.82a105.59,105.59,0,0,1,5.63-9.83,37.51,37.51,0,0,1,5.16-6.5c1.62-1.55,3.1-2.15,4.42-1.79a7.59,7.59,0,0,0,1.67.53,3.5,3.5,0,0,0,1.37,0,2.43,2.43,0,0,0,1.21-.8,1.36,1.36,0,0,0,.46-1.26,7.48,7.48,0,0,0-.46-1.26m-118.15,23a3.53,3.53,0,0,0-.61-.8,6.27,6.27,0,0,1,1-1.46,9.12,9.12,0,0,0,1-1.33,36.24,36.24,0,0,1,5.47-5.71,73.46,73.46,0,0,1,7.53-5.77,35.92,35.92,0,0,1,7.22-3.85c2.23-.84,3.8-.78,4.72.2,1.42,1.59,1.36,3.34-.16,5.24a25.64,25.64,0,0,1-6.69,5.58,64.51,64.51,0,0,1-9.88,4.91,54.16,54.16,0,0,1-9.58,3m294.62,44a18,18,0,0,0-3.88-4.45,24.3,24.3,0,0,0-6.08-3.65,19.49,19.49,0,0,0-7-1.07q-9.13,0-24.41,3.79t-34.75,10.16a9.82,9.82,0,0,1-1.36.46c-.51.13-1,.29-1.53.47a8.3,8.3,0,0,1-.6-2.39,22.77,22.77,0,0,1-.16-2.79q0-4,3.58-10.37t9-14.09q5.4-7.71,11.71-16.15T570,515.27q5.55-8,9.43-14.89t4.33-11.57a23.22,23.22,0,0,0-1.52-11.36,24.4,24.4,0,0,0-6-8.71,28.3,28.3,0,0,0-8.89-5.59,27.41,27.41,0,0,0-10.19-2,53,53,0,0,0-17.11,3A99.72,99.72,0,0,0,522.75,472a125.14,125.14,0,0,0-16.05,10.85,117.51,117.51,0,0,0-13.3,12.22,68.41,68.41,0,0,0-9,12q-3.35,5.77-3.35,9.89a17.92,17.92,0,0,0,1.91,8.83,15.1,15.1,0,0,0,4.63,5.25,17.41,17.41,0,0,0,6,2.59,28.14,28.14,0,0,0,6,.73,20.68,20.68,0,0,0,3.95-.33,5.3,5.3,0,0,0,2.13-.74,4,4,0,0,0,1.14-1.72c.25-.71-.23-1.06-1.45-1.06a3.68,3.68,0,0,1-3.19-1.86,9.7,9.7,0,0,1-1.22-5.31q0-5.05,3.58-12.95t13-17.47q12-11.94,21.44-16.46t16.27-4.52a20.11,20.11,0,0,1,7,1.13,17.12,17.12,0,0,1,5.09,2.86,12.84,12.84,0,0,1,3.12,3.71,8,8,0,0,1,1.06,3.72q0,3.59-4.41,9.76t-11,13.75q-6.62,7.56-14.3,15.93t-14.29,16.54a135.31,135.31,0,0,0-11,15.53Q512,562.22,512,567.66a17.94,17.94,0,0,0,.83,5.78,17.69,17.69,0,0,0,2.06,4.25,13.58,13.58,0,0,0,2.66,3,29.77,29.77,0,0,0,2.66,2,29.32,29.32,0,0,1-9,1.72A11,11,0,0,1,504,582a2.8,2.8,0,0,1-1.45-1.33.84.84,0,0,0-.83-.66,1.38,1.38,0,0,0-1.22.27c-.71.44-.91,1.41-.61,2.92a14.76,14.76,0,0,0,.68,2.59,7.61,7.61,0,0,0,2.13,3,13.44,13.44,0,0,0,4.57,2.53,23.92,23.92,0,0,0,7.83,1.06,62.78,62.78,0,0,0,10.72-1.13,117.82,117.82,0,0,0,15-3.92,197.37,197.37,0,0,1,25.69-6.44A116.43,116.43,0,0,1,585,579.08,52,52,0,0,1,597,580.21a37.38,37.38,0,0,1,7.38,2.46,15.31,15.31,0,0,1,5,3.45,2.86,2.86,0,0,1,.61,1.26,5.34,5.34,0,0,0,.45,1.33,4.27,4.27,0,0,0,.76,1.06,1.75,1.75,0,0,0,1.52.33c.91-.09,1.75-1,2.51-2.59a14.69,14.69,0,0,0,1.14-6.17,19.42,19.42,0,0,0-.61-4.72,17.3,17.3,0,0,0-2.05-4.84M609.2,499.4a3.71,3.71,0,0,0,2,1.26c.81.23,1.77-.11,2.89-1a53.28,53.28,0,0,0,4.72-4.52q3-3.18,5.85-6.77a73.07,73.07,0,0,0,4.87-7c1.36-2.26,2-3.92,1.74-5a7.28,7.28,0,0,0-2.43-3.59,24.38,24.38,0,0,0-4.71-3.45,18.52,18.52,0,0,0-4.94-2c-1.58-.36-2.67-.14-3.28.66s-.83,1.44-.68,1.93a3,3,0,0,0,.76,1.26c.35.35.71.73,1.07,1.13a2.43,2.43,0,0,1,.53,1.66,14,14,0,0,1-.91,3.85q-.92,2.66-2.21,5.84t-3,6.51a47.76,47.76,0,0,1-3.35,5.71,2.62,2.62,0,0,0,.08,1.39,4.59,4.59,0,0,0,1,2.06m149.93,26.3a63.43,63.43,0,0,1-7.6,7.9,86,86,0,0,1-9.66,7.43,67.72,67.72,0,0,1-10.26,5.65,31.24,31.24,0,0,1-9.74,2.65,12,12,0,0,1-3.49-.26,8.73,8.73,0,0,1-3.35-1.53,8.1,8.1,0,0,1-2.43-3,10.5,10.5,0,0,1-.91-4.65,20.82,20.82,0,0,1,1.06-6.37,25.76,25.76,0,0,0,7.38-.33,42.59,42.59,0,0,0,10.72-3.39,28.13,28.13,0,0,0,7.14-4.25,30,30,0,0,0,5-5.18A19.34,19.34,0,0,0,745.9,515a12.61,12.61,0,0,0,.76-4.85,5.69,5.69,0,0,0-1.52-3.59,11.6,11.6,0,0,0-3.19-2.39,24.26,24.26,0,0,0-3.5-1.46q-1.68-.53-2.28-.66a18.31,18.31,0,0,0-6.39-.2,23.39,23.39,0,0,0-6.16,1.79,34.61,34.61,0,0,0-5.62,3.19,58.41,58.41,0,0,0-5,3.85A67.66,67.66,0,0,0,702.87,522a37.92,37.92,0,0,0-5,9.23,28.06,28.06,0,0,0-1.38,5.22,80.76,80.76,0,0,1-6.45,5.13,35.13,35.13,0,0,1-7.46,4.19q-3.42,1.32-5.09-.13a4.86,4.86,0,0,1-1.52-3.86,16.94,16.94,0,0,1,2.21-7.5,93.65,93.65,0,0,1,5-8.63q2.82-4.32,5.4-8a32.21,32.21,0,0,0,3.35-5.51,6,6,0,0,0,.22-4.65,10.07,10.07,0,0,0-2.35-3.45,22.09,22.09,0,0,0-4.26-3.06l-.61-.26a3.32,3.32,0,0,0-1.37-.27q-2.28-.25-6.84,3.06A115.24,115.24,0,0,0,666.6,512q-5.55,5.12-11.48,11.09t-10.8,11.09q-4.86,5.11-8.06,8.5c-2.13,2.25-3.24,3.34-3.34,3.25s.38-1,1.44-2.79,2.46-4.12,4.18-7,3.6-6.26,5.63-10,4-7.73,5.78-11.89a12.12,12.12,0,0,0,1.21-5,6.3,6.3,0,0,0-2.43-5.32,15.46,15.46,0,0,0-5.47-2.65,26.88,26.88,0,0,0-7.76-.8,3.33,3.33,0,0,0-1.59.66c-.46.36-.54.89-.23,1.6a4.25,4.25,0,0,0,1.67,1.92,2.17,2.17,0,0,1,1.06,2.33,25.73,25.73,0,0,1-2.81,7.1q-2.21,4-4.94,8.37T623,530.94q-2.88,4.3-4.86,7.89c-1.33,1.15-2.69,2.26-4.11,3.33a30.9,30.9,0,0,1-4.48,2.86,14.69,14.69,0,0,1-4.19,1.46,5.45,5.45,0,0,1-3.5-.47,4.33,4.33,0,0,1-1.82-3.71,12.94,12.94,0,0,1,1.22-5,57.05,57.05,0,0,1,3-5.9q1.75-3.06,3.88-6.18t4-5.91c1.22-1.86,2.23-3.54,3-5.05a10.74,10.74,0,0,0,1.36-3.58,5.2,5.2,0,0,0-1.52-4.05,13.15,13.15,0,0,0-3.8-2.86,23.83,23.83,0,0,0-5.63-2.12,7.76,7.76,0,0,0-1.36-.13,2.18,2.18,0,0,0-2,.93,2,2,0,0,0,.23,2.25,3.08,3.08,0,0,1,.68,2,20.67,20.67,0,0,1-1.82,3.51q-1.68,2.87-5,8.84-2.28,4-4.87,8t-4.64,7.84a43.56,43.56,0,0,0-3.11,7.24,9.91,9.91,0,0,0-.15,6.17,12.64,12.64,0,0,0,1.52,2.92,11,11,0,0,0,2.81,2.86,16.64,16.64,0,0,0,4.1,2.12,11.35,11.35,0,0,0,5.1.6A33.6,33.6,0,0,0,612.24,552q2.12-1.31,4-2.7a8.81,8.81,0,0,0,3.2,4.69q3.57,2.79,10,2.79a6.8,6.8,0,0,0,3.57-1.59,44.28,44.28,0,0,0,4.79-4.12q2.58-2.52,5.48-5.64c1.92-2.08,3.8-4.14,5.62-6.18s3.52-3.94,5.1-5.71,2.86-3.19,3.87-4.25q6.69-7,11.49-11.42t8.13-6.9c-.61.71-1.29,1.48-2.05,2.32s-1.6,1.75-2.51,2.72a80.29,80.29,0,0,0-10.27,14.14A36.48,36.48,0,0,0,658,543.22a15.31,15.31,0,0,0,2.13,9.83q2.58,4,9.42,4a31.61,31.61,0,0,0,13.08-2.73,51.82,51.82,0,0,0,11.18-6.77c1-.82,2-1.68,3-2.54a16.94,16.94,0,0,0,.95,2.61,15.49,15.49,0,0,0,4.72,5.84,20.48,20.48,0,0,0,7.83,3.52,32.34,32.34,0,0,0,10.95.46,39.05,39.05,0,0,0,13.83-3.78,59.32,59.32,0,0,0,11.71-7.5,75.58,75.58,0,0,0,9.51-9.3q4.17-4.9,7.22-9Zm-39.23-3.86a52.26,52.26,0,0,1,6.84-6.63,41.86,41.86,0,0,1,6.39-4.32c1.92-1,3.34-1.48,4.25-1.4a3.1,3.1,0,0,1,.46,1.4,5.61,5.61,0,0,1-.46,2.65,17.13,17.13,0,0,1-2.28,4,32.28,32.28,0,0,1-5,5.24,27.76,27.76,0,0,1-8.89,5.45,33.82,33.82,0,0,1-6.92,1.86,42.51,42.51,0,0,1,5.63-8.24" transform="translate(-213.38 -276.64)"/><path class="cls-4" d="M430.57,324.22c.48.41,1.62.92,1.77,0a30.84,30.84,0,0,0,2.37,7.1c-1.25-.52-1.75-1.8-3.55-1.77,1.78-2.53.6-3.12-.59-5.33" transform="translate(-213.38 -276.64)"/><path class="cls-4" d="M435.31,325.4c2.05-.42,2.12,2.08,1.18,3-.88-.5-.86-1.91-1.18-3" transform="translate(-213.38 -276.64)"/><path class="cls-5" d="M549,414.24c2.54,1.92-1.17,4.85-2.37,5.92a17,17,0,0,0,6.51,0c-4.69,9.47-14.3,17.84-24.28,23.69S506.14,455,492.75,456.29c-48.15,4.66-78-23.06-93-53.31h-37.9v-6.51h44.42c12.27,30.65,42.92,56.89,85.28,52.12,19.41-2.19,36.77-12.74,48.56-24.28,4.25-4.16,8.25-6.23,8.89-10.07" transform="translate(-213.38 -276.64)"/><path class="cls-5" d="M563.82,398.25c-3.41-.26-3.2-.45-6.51-.6.63-2.12,6.23-1.32,6.51.6" transform="translate(-213.38 -276.64)"/><path class="cls-5" d="M560.86,398.84c1.63,1.28-.59,2.72.59,4.14-2.21.49-1.09-3.65-.59-4.14" transform="translate(-213.38 -276.64)"/><path class="cls-5" d="M559.08,406.54c-1.3,1.46-3-1.74-3.55-3,.51-.11.56.23.59.59.7-.1.51-1.08.6-1.78,1.81,0,1.42,2.14,3.55,1.78.3,1.17-3.27,1.35-1.19,2.37" transform="translate(-213.38 -276.64)"/><path class="cls-5" d="M435.9,298.75v-1.19c-3.46-2.49-3.87,5.62-5.33,3.56-3-.28,1.87-.69,1.18-2.37-3.49,1,.3-.36-1.18-1.78-3.79,1.64-2.12.63-5.93,2.37,10.59-12.25,31.1-21.14,52.72-22.5,46.07-2.9,72.28,26.12,88.24,53.89a247.29,247.29,0,0,1,36.72,0c.17,2,.94,3.4.59,5.92-13.63,1.38-29.8.21-44.42.6-11.35-36.84-60.29-64.25-106.6-46.2a101,101,0,0,0-10.07,4.15c-2.32,1.23-4.58,4.47-7.11,3,.48.11.59.59,1.19.59" transform="translate(-213.38 -276.64)"/><path class="cls-5" d="M436.49,328.36c.94-.88.87-3.38-1.18-3,.32,1.05.3,2.46,1.18,3" transform="translate(-213.38 -276.64)"/><path class="cls-5" d="M431.16,329.55c1.8,0,2.3,1.25,3.55,1.77a30.84,30.84,0,0,1-2.37-7.1c-.15.92-1.29.41-1.77,0,1.19,2.21,2.37,2.8.59,5.33" transform="translate(-213.38 -276.64)"/><path class="cls-5" d="M432.34,322.44c2,.37,1.2,3.18,1.78,3.55.08-2.73,1.55-5.09,1.19-7.1.39-1.78,1.26.56,2.36,0-.85-1.41-1.24-4-.59-8.3-1.53-2.63-3.8,1.2-5.33,0,14-15.91,43-25.11,70.48-17.76a78,78,0,0,1,30.2,16c8.31,7.34,16.75,16.82,17.77,27.83-44.22,1.39-91,.2-136.21.59.14-6.17,3.57-9.06,5.33-13.62,3.67.73,4.82,1.76,7.1,1.19,2.18.31,1.78,3.19,1.19,4.74,1-1.6,2.3-.09,3.55-1.78.18-2.42-.82.1-2.37-.59a13.75,13.75,0,0,1,3.55-4.74" transform="translate(-213.38 -276.64)"/><path class="cls-5" d="M423.46,306.45c-.39,1.77-1.27-.57-2.37,0a1.61,1.61,0,0,0,1.19,1.77c-1.39.77-3.45-2.85-4.74-4.14.69-.1,1,.13,1.18.59.7-.09.5-1.08.6-1.78,1.05.19,2.31,3.14,3.55,1.19,1.66-.26-1.49,2.21.59,2.37" transform="translate(-213.38 -276.64)"/><path class="cls-5" d="M415.76,306.45c1.24-.52-.86,3,.59,1.18,2.36.89-2.89,3.94,0,3.56-.07,2.77-.86-.65-2.36,0-1.76,1.15-1.16,4.21-1.78,6.51a2.61,2.61,0,0,1-1.19-2.37c-.95.24,0,3.48.6,4.15-1.25-.15-1.83-.45-2.37,2.37,2.41-.92,2.33-.48,3.55-.6,0,5.36-6.12,9.67-7.11,16H362.46c-1.1-1.27-.4-4.33-.59-6.51,12.5-.33,24.8-.86,37.9-.59,4.48-7.56,8.35-15.73,14.81-21.32-.37.52-.72,1.06,0,1.18,1.33-.25,0-3.14,1.18-3.55" transform="translate(-213.38 -276.64)"/><path class="cls-5" d="M573.3,396.47h29c.18,1.94,1.37,4.85,0,6.51-10.11-.94-24.14,2-31.39-1.77-.36.82-2.28.09-2.37,1.18a10.78,10.78,0,0,0-1.18-3c2.39,3.24,5.89-1.64,5.33-1.18,2,1.09.29.07.59-1.78" transform="translate(-213.38 -276.64)"/><path class="cls-5" d="M550.2,397.65c-.26,2.84-.9,1.87-3.55,1.78,1.17,1.12.29,2.8,0,4.15,0,1.39,1.62-.22,1.18-1.19,1.23,1.65-1.26,7.54-4.14,7.11-1.47.43,1.95,1.78,0,3-13.72,18.12-35.63,30.8-63.37,30.8-19.91,0-41.34-10.16-53.31-23.1-5.32-5.76-11.05-12.55-12.43-21.91v-1.19c43.78-.74,92.76-1.56,135.62.59" transform="translate(-213.38 -276.64)"/><path class="cls-3" d="M372.12,390.36h-8.18l-.07-46.55h8.25Zm9.51,0h-6.71v-9.23h6.71Z" transform="translate(-213.38 -276.64)"/><rect class="cls-3" x="173.33" y="67.18" width="8.25" height="46.55"/><path class="cls-3" d="M416.17,390.36h-8.33l-8.42-46.55h8.42Zm7.52-46.55-6.08,38.34L413.71,362l2.51-18.15Z" transform="translate(-213.38 -276.64)"/><path class="cls-3" d="M427.58,343.81h8.25v46.55h-8.25ZM446.21,353h-7.59v-9.23h7.59Zm-7.59,9.15h5.87v8.67h-5.87Zm7.59,28.17h-7.59v-9.23h7.59Z" transform="translate(-213.38 -276.64)"/><path class="cls-3" d="M483.82,390.5h-8.1l-.07-46.56,8.17-.13Zm14.05-12.21q0,7.33-3.86,10.31a9.59,9.59,0,0,1-6.07,1.9h-1.18v-7.93a10.7,10.7,0,0,0,1.74-1.64,7.45,7.45,0,0,0,.63-3.56,14.31,14.31,0,0,0-.45-4.44,7,7,0,0,0-1.92-2.41V363a8,8,0,0,0,1.34-2.28,11.31,11.31,0,0,0,.34-3.23A10.77,10.77,0,0,0,488,354a15,15,0,0,0-1.27-1.77v-8.39q5.67,0,8,3.48c1.34,2,2,5.21,2,9.68a12.43,12.43,0,0,1-1.21,6.14,8.76,8.76,0,0,1-4.87,3.6q4.09,1.28,5.65,4a15.43,15.43,0,0,1,1.55,7.62" transform="translate(-213.38 -276.64)"/><path class="cls-3" d="M535,390.5h-8.11l-.07-46.56,8.18-.13Zm14-12.21q0,7.33-3.86,10.31a9.62,9.62,0,0,1-6.08,1.9h-1.18v-7.93a9.85,9.85,0,0,0,1.74-1.64,7.31,7.31,0,0,0,.64-3.56,13.92,13.92,0,0,0-.46-4.44,6.73,6.73,0,0,0-1.92-2.41V363a7.79,7.79,0,0,0,1.34-2.28,11,11,0,0,0,.34-3.23,10.5,10.5,0,0,0-.41-3.56,13.76,13.76,0,0,0-1.27-1.77v-8.39c3.79,0,6.45,1.16,8,3.48q2,3,2,9.68a12.42,12.42,0,0,1-1.22,6.14,8.7,8.7,0,0,1-4.86,3.6q4.1,1.28,5.64,4a15.31,15.31,0,0,1,1.56,7.62" transform="translate(-213.38 -276.64)"/><path class="cls-3" d="M587.43,383.14v8.48q-6.37,0-9-7.91a39.8,39.8,0,0,1-1.65-12.34V368.9q0-13.41,2.55-19.43t7.79-6l.07,8a6.87,6.87,0,0,0-.8,1.65,20.92,20.92,0,0,0-.8,6.39V373.9a31.17,31.17,0,0,0,.57,6.71,5.52,5.52,0,0,0,1.24,2.53m14.19,3.76-5.85,7.78-3.08-3.9-2.47.7.08-8.48a7.18,7.18,0,0,0,.93-2.53,33.84,33.84,0,0,0,.47-6.14V360a27.8,27.8,0,0,0-.5-6A6.68,6.68,0,0,0,590,351.5v-8a7.69,7.69,0,0,1,7.11,4.43q3.38,6.14,3.37,21.56a81.21,81.21,0,0,1-.43,9.61A11.88,11.88,0,0,1,599,383Z" transform="translate(-213.38 -276.64)"/><path class="cls-4" d="M525.33,321.25c-.44,1.32,2.18,2.44,2.37,1.19-.89-.18.64-2.49-1.19-3,.68,1.59.35,2.84-1.18,1.77" transform="translate(-213.38 -276.64)"/><path class="cls-4" d="M523.55,326.58c1.62.44,1.19-1.17,2.37-1.18a2.79,2.79,0,0,1-.59,1.78c1.82-.84,2.66-.27,4.14.59.52-1.9-2-.81-1.77-2.37,2.84.08,4.91.49,6.51-.59a1.62,1.62,0,0,0,1.19,1.77c-.77-2.46,1.5-1.29.59-3.55,1,.14,1.35,1,1.18,2.37,1.35.17,2.23-.14,2.37-1.18-.78,0-.54-1-1.18-1.19-2.45,1.29-.46-3.32-2.37-4.15-1.11,1.14.35,1.08,0,3-1.47-.09-2.46.3-3,1.18,1.6.52-1.36,2-1.19,0,1.53,0,.62-2.53,3-1.78-.84-1.52-1.54-.82-1.77-3-.86,1.94-1.33,1.49-3.56,1.19-.06.72-.17,1.4-1.18,1.18-.61,1.67.92,4.12,1.78,2.37-.33,0-.68-.48,0-.59,0,.78,1,.54,1.18,1.18-.78,0-.54,1-1.18,1.19-1.78-2.19-4,.9-4.15-1.19-2.2-.62-1.16,2-2.37,2.37.05-.92-1.72-.41-.59,0,.36,0,.7.09.59.59" transform="translate(-213.38 -276.64)"/><path class="cls-4" d="M486.83,299.93c.56.5,1.27,3.78,0,4.15-1.9.12-1-2.59-3-2.37-3.4,3.9,6,4.42,3.55,11.25a16.22,16.22,0,0,1-6.51,0v-4.14c2.1-.13,1.17,2.78,3.55,2.37,2-2.84-2-4.67-3.55-5.93v-4.73c1.12-1.06,3.91-.44,5.92-.6" transform="translate(-213.38 -276.64)"/><path class="cls-4" d="M490.39,299.93c2.57.58,1.49,4.83,2.36,7.11,2.43-.93,1.05-5.67,4.15-5.92.9,3.78.85,11.42-2.37,13-1.45-1.45.44-2.57,0-4.74-1.45.52-.64,3.31-3,3v-3.55c-2.12.44.08,5.21-3,4.73-.6-3.48.63-9.94,1.78-13.62" transform="translate(-213.38 -276.64)"/><path class="cls-4" d="M499.27,313.56c3.35,1.31,4.76-6.29,4.15-8.89h-1.78c-.85,2.9-1.67,5.84-2.37,8.89m1.18-11.26c2.41.16,4,1.12,5.93,1.78a42.33,42.33,0,0,1-3.56,11.84,6.86,6.86,0,0,1-5.92-1.77c.76-4.37,2.24-8,3.55-11.85" transform="translate(-213.38 -276.64)"/><path class="cls-4" d="M511.11,305.26c.39,2.17-1.28,2.28-1.18,4.15,2.48.11,1.83-2.91,4.74-2.37-2.45,3.48-5.59,6.26-5.33,12.44-2.65.27-.11-4.63-1.78-5.33-1.7.47-.37,4-3,3.55.28-3.74,2.33-10.63,6.51-12.44" transform="translate(-213.38 -276.64)"/><path class="cls-4" d="M521.77,313.56c-1.86.28-1.56-1.6-3-1.78-.86.51-1.87.88-1.77,2.37-.45,2,2.4.75,1.77,3a1.9,1.9,0,0,1-3-.59c-1.52.05-.85,2.31-2.37,2.36,0,2.2,2.9,1.45,3,3.56-2.48,1.25-3.83-1.5-5.92-2.37,2.5-3.66,7.49-16.49,11.25-6.51" transform="translate(-213.38 -276.64)"/><path class="cls-4" d="M470.25,301.12c2.41,2.32,1.93,7.54,3,11.25,1.4-.42,3.76-1.36,3.55,1.19-1.83-.06-3.28.26-4.14,1.18-2.22-2.74-4-10.78-2.37-13.62" transform="translate(-213.38 -276.64)"/><path class="cls-4" d="M464.33,311.78c2.72.23,1.36-2.52,0-3Zm-1.78-8.29c4.05,2.26,5.45,7.18,7.11,11.84-2.63.85-1.55-2-3.56-1.78-1.33.25,0,3.15-1.18,3.56-2.71-1.36-3.36,2.43-7.11,1.78-2-3.31-2.93-7.73-5.33-10.67.81-2,3.13-2.39,5.33-3,1.07,3.05-2.13,1.82-2.37,3.56-.07,1.06.73,1.25.59,2.37,1.84.2,2.83-1.38,4.15,0-.06,1.52-2.31.84-2.37,2.36s.93,1.84,1.19,3c1.67-.1,2.46-1.09,4.14-1.19.19-4.06-2.44-8-.59-11.84" transform="translate(-213.38 -276.64)"/><path class="cls-4" d="M447.74,312.37c0,2.17,1.17,3.17,2.37,4.15.07-.73.18-1.41,1.19-1.19-.53-1.45-.54-3.41-2.37-3.55-.13.46-.5.69-1.19.59m5.33,3.55c1.14,1.43,2.78,2.36,4.15,3.56-1.66,2.48-4.23-.79-5.92-1.78-1.64,1.68,2.43,2.68,1.77,5.33-5-1.31-5.91-6.72-8.29-10.66,3-5,10-1.8,8.29,3.55" transform="translate(-213.38 -276.64)"/><path class="cls-4" d="M517,417.79c-1.12,1.48,3.06,4,1.18,6.52-4.19-2.52-7.25-6.18-10.07-10.07,3.14-1.66,3.75,2.47,5.92,3.55.31-2.92-3.86-3.69-1.77-6.51,2.47.29,3.28,2.24,4.14,4.14,1.29-1.65-2.88-4.23-.59-7.11,2.74,3.59,5.2,7.45,5.92,13-2.79,0-3.36-2.17-4.73-3.56" transform="translate(-213.38 -276.64)"/><path class="cls-4" d="M452.48,410.68c-.63,4.51-4.06,6.21-5.92,9.48-.52,2.29,2.58,1,1.78,3.55-2.51.14-3-1.72-4.74-2.36,3.15-3.37,3.63-9.4,8.88-10.67" transform="translate(-213.38 -276.64)"/><path class="cls-4" d="M453.67,425.49c2.7-.63,6.75-7.44,3-8.88-.9,2.79-4.18,5.89-3,8.88m7.7-8.88A48.27,48.27,0,0,1,456,427.86c-2.72,0-3.84-1.68-5.92-2.37,2.31-4.8,4.7-15.27,11.26-8.88" transform="translate(-213.38 -276.64)"/><path class="cls-4" d="M509.34,426.08c.73-2.68-2.11-6.46-3.56-8.88-2.34,2.28.37,8.33,3.56,8.88m2.37,1.19c-2.09.08-2.65,1.69-4.74,1.77a57.59,57.59,0,0,1-5.33-11.84c6.21-5.58,9.7,3.05,10.07,10.07" transform="translate(-213.38 -276.64)"/><path class="cls-4" d="M462,417.2h1.77c1.44,1.6-.65,3.29,0,5.92,2.35-.42.92-4.62,3.56-4.74,1.61,2.05-.59,4.24,0,7.11,1.95-1.6,1.15-5.95,4.73-5.92-1.69,4.62-2.72,9.91-6.51,12.43-1.6-1.89.46-3.92,0-6.51-2.49.67-1,5.31-4.14,5.33,0-.57-.73-.46-1.19-.59a89.67,89.67,0,0,0,1.78-13" transform="translate(-213.38 -276.64)"/><path class="cls-4" d="M495.72,419h1.18c2.42,1.93,2.09,6.6,3.55,9.48.42,1.17,3.31-.14,3.56,1.19-.19,2-2.69,1.65-4.74,1.77-1.44-3.89-3-7.69-3.55-12.44" transform="translate(-213.38 -276.64)"/><path class="cls-4" d="M495.12,420.16c.08,1.46.09,2.85-.59,3.55-2,.23-.93-2.62-3.55-1.77.65,4.67,6.66,4,5.92,10.06-2.19.38-3.53,1.61-6.51,1.19.29-1.87-1.07-2.09-.6-4.15,2.68-.7,1.33,2.63,4.15,1.78,1.1-2.51-2.58-4.76-5.33-5.33v-5.33c1.94-.18,4.85-1.37,6.51,0" transform="translate(-213.38 -276.64)"/><path class="cls-4" d="M478.54,432c1.12.14,1.31-.66,2.37-.59.32-2.09-.5-3.05-1.78-3.55-.89.84-1.87,2.87-.59,4.14m4.74-11.25v4.15c-2.55.77-1.87-1.68-3-2.37-1.56-.18-1.95.82-1.78,2.37.53,1.84,4.14.59,5.33,1.77-1.2,2.67-1.08,3.16-1.18,7.11-2.18-.19-5.25.51-6.52-.59a55.05,55.05,0,0,0,0-12.44c3.06-.6,3.64,0,7.11,0" transform="translate(-213.38 -276.64)"/><path class="cls-4" d="M469.2,402.68c3.07-5.15,9.69,11.64,14.49,0,3.28.75,2,6.05,2.41,9.66-2.8-2-6.46-3.18-12.07-2.41-2.08-1.95-1.44-6.62-4.83-7.25" transform="translate(-213.38 -276.64)"/></g></g></g></svg>