<svg xmlns="http://www.w3.org/2000/svg" viewBox="0 0 550.17 325.02"><defs><style>.cls-1,.cls-3{fill:#231f20;}.cls-2{fill:#f05123;}.cls-2,.cls-3,.cls-4{fill-rule:evenodd;}.cls-4{fill:#fff;}</style></defs><g id="Layer_2" data-name="Layer 2"><g id="Layer_1-2" data-name="Layer 1"><path class="cls-1" d="M91.92,209.89a27.53,27.53,0,0,0,2.51-11.16,18,18,0,0,0-3.27-10.36q-3.27-4.78-11.33-7.83a19.86,19.86,0,0,0-3.8-1.33,43.31,43.31,0,0,0-4.48-1,35.23,35.23,0,0,0-6-.46,53,53,0,0,0-11.33,1.39,55.89,55.89,0,0,0-13.76,5.31,88.47,88.47,0,0,0-15.74,11A134.05,134.05,0,0,0,7.45,213.6a43.53,43.53,0,0,0-5.7,10.1A24.52,24.52,0,0,0,0,232.33a19,19,0,0,0,3.73,11.75,39.2,39.2,0,0,0,8.66,8.5A55.31,55.31,0,0,0,22,258.16c3.09,1.37,5.25,2.37,6.47,3,1,.54,2.73,1.33,5.17,2.39s5.14,2.31,8.13,3.72,6,3,9,4.65a47.89,47.89,0,0,1,7.91,5.38,16.66,16.66,0,0,1,4.64,5.84,5.87,5.87,0,0,1-.69,5.91c-1.72,2.3-4.44,4-8.13,5.18a41.07,41.07,0,0,1-18.79,1.13,32.77,32.77,0,0,1-6.08-1.66A14.72,14.72,0,0,1,25.09,291,6.24,6.24,0,0,1,23,287.17a1.7,1.7,0,0,1,.15-1.26,3.21,3.21,0,0,1,.76-.8,10.26,10.26,0,0,0,.84-.66,1.25,1.25,0,0,0,.38-1,1.17,1.17,0,0,0-.53-.94,6.57,6.57,0,0,0-2.51-.66,14.81,14.81,0,0,0-4.41.66,14.16,14.16,0,0,0-3.73,2.13,11.57,11.57,0,0,0-3.27,4.52,9.84,9.84,0,0,0-.91,4.11,10.73,10.73,0,0,0,2,6.11,18.07,18.07,0,0,0,5.63,5.18,32.81,32.81,0,0,0,9,3.65,49,49,0,0,0,12.24,1.4c1,0,2,0,3-.07s2-.11,3.12-.2A45.17,45.17,0,0,0,55.88,307,35.19,35.19,0,0,0,65,302.25a22.88,22.88,0,0,0,6.16-6.71,16.15,16.15,0,0,0,2.28-8.37,21.08,21.08,0,0,0-3-10.49,24.9,24.9,0,0,0-7.23-7.7,114.36,114.36,0,0,0-10.41-6.64q-5.62-3.18-11.48-6.24a77.94,77.94,0,0,1-10.5-6.51A31.75,31.75,0,0,1,23.34,242a14.78,14.78,0,0,1-2.51-9.37q.32-5.18,4.34-11a69.87,69.87,0,0,1,10-11.42,120.08,120.08,0,0,1,13.08-10.49,129.8,129.8,0,0,1,13.53-8.3,61.9,61.9,0,0,1,11.33-4.78c3.25-.93,5.42-1,6.54-.07a6,6,0,0,1,1.83,4.78,23.22,23.22,0,0,1-2.21,9A45.75,45.75,0,0,1,73.52,210a39.11,39.11,0,0,1-8.06,7.9,16.14,16.14,0,0,1-9,3.39,5.89,5.89,0,0,1-2.21-.34c-.56-.22-1-.39-1.44-.53a3.81,3.81,0,0,0-1.14-.2,2.84,2.84,0,0,0-1.45.67c-.91.71-1.06,1.79-.45,3.25a13.18,13.18,0,0,0,3.34,4.45,24.57,24.57,0,0,0,5.93,4,16.47,16.47,0,0,0,7.45,1.73,21.26,21.26,0,0,0,2.82-.2,9.31,9.31,0,0,0,2.81-.86,22.75,22.75,0,0,0,6.54-4.58,59,59,0,0,0,7.3-8.3,55.74,55.74,0,0,0,6-10.49m131.92,18.32a12.54,12.54,0,0,0-1.22-1.46,10.47,10.47,0,0,0-2.43-1.33,18.24,18.24,0,0,0-2.89-.93,16.79,16.79,0,0,0-3.8-.4,22.17,22.17,0,0,0-5.78.87,22.11,22.11,0,0,0-12.39,9.29,78.62,78.62,0,0,0-5.56,9.5,104,104,0,0,1-8.05,10.49,86.5,86.5,0,0,1-8.6,8.63,37.08,37.08,0,0,1-7.6,5.25q-3.42,1.65-5.09.33a4,4,0,0,1-1.45-4,17.64,17.64,0,0,1,2.06-5.65,63.16,63.16,0,0,1,4.1-6.57q2.43-3.45,4.79-6.91T174,238.7a16.46,16.46,0,0,0,2.05-5.71,4.24,4.24,0,0,0-1-3.52,13.11,13.11,0,0,0-3-2.59,21.23,21.23,0,0,0-4.4-2.12c-.71-.27-1.37-.49-2-.67-1.32-.35-2.23-.26-2.74.27a1.17,1.17,0,0,0,0,1.73,4.56,4.56,0,0,1,.91,1.46c.1.79-.35,2.12-1.36,4s-2.34,4-4,6.44-3.37,5-5.25,7.77-3.64,5.42-5.32,8c-1.42,2.22-2.64,4.29-3.7,6.21-.61.55-1.25,1.1-1.92,1.63a32.74,32.74,0,0,1-7.68,4.45,25.23,25.23,0,0,1-9.89,1.86A11.55,11.55,0,0,1,117.7,265a47.87,47.87,0,0,1-6.69-6.51,30.65,30.65,0,0,0,8.36-.67,35.28,35.28,0,0,0,9.88-3.85q8.67-4.64,12.55-10t3.88-10q0-6.63-6.39-10.35a11.2,11.2,0,0,0-5.63-1.46,15.71,15.71,0,0,0-6.16,1.32,39.65,39.65,0,0,0-6.31,3.46,46.44,46.44,0,0,0-6.15,4.91q-3,2.79-5.71,5.71,2.74-6.37,5.78-12.68t5.63-11.82q2.58-5.5,4.56-9.76a30.64,30.64,0,0,0,2.43-6.64,7.91,7.91,0,0,0-.07-5.84,9.87,9.87,0,0,0-3-3.79,9.28,9.28,0,0,0-3.88-1.73c-1.32-.22-2.18-.15-2.59.2a1.37,1.37,0,0,0-.53,1.2,21,21,0,0,0,.53,2.39q.61,2.27-1.75,7.3t-6.15,11.69q-3.81,6.65-8.44,14.41T93.37,238.1A125.76,125.76,0,0,0,87.13,253a32.13,32.13,0,0,0-2,12.75,18.87,18.87,0,0,0,2.36,7.37,14.72,14.72,0,0,0,4.18,4.52,15,15,0,0,0,5,2.26,22.2,22.2,0,0,0,4.87.59,14.49,14.49,0,0,0,3.34-.33,4.88,4.88,0,0,0,1.68-.6,2.32,2.32,0,0,0,.68-2.32,2,2,0,0,0-1.6-1.39,4.43,4.43,0,0,1-2.12-1.13,5.75,5.75,0,0,1-1.37-1.93,10.76,10.76,0,0,1-.92-2.65,21.14,21.14,0,0,1-.07-6,51.36,51.36,0,0,1,1.29-6.91,42.65,42.65,0,0,0,3,8,34.2,34.2,0,0,0,4.79,7.24,23.54,23.54,0,0,0,6.39,5.24,15.5,15.5,0,0,0,7.68,2,16.41,16.41,0,0,0,5.85-1.13,32.67,32.67,0,0,0,5.78-2.92,34.5,34.5,0,0,0,5.32-4.19l1-1a11.85,11.85,0,0,0,2.77,5.32q3.42,3.78,10.27,3.52a19.3,19.3,0,0,0,6.54-1.2,29.64,29.64,0,0,0,6.54-3.32,51.32,51.32,0,0,0,6.23-4.91c2-1.86,4-3.81,5.93-5.84q-2.28,5.44-4.41,10.82l-4.11,10.36c-1.31,3.32-2.61,6.44-3.87,9.36s-2.51,5.49-3.73,7.7a20.7,20.7,0,0,1-3.49,5.05,24.72,24.72,0,0,1-4.64,3.85,22.2,22.2,0,0,1-5.33,2.46,19,19,0,0,1-5.55.86,13.25,13.25,0,0,1-7.6-2.26,11,11,0,0,1-4.41-7.17,8.55,8.55,0,0,1,.38-4,15.31,15.31,0,0,1,1.9-3.92,14.18,14.18,0,0,1,2.66-3,3.5,3.5,0,0,1,2.51-1.06q4.41.39,3.65-2.92A4.1,4.1,0,0,0,143.4,289a15.71,15.71,0,0,0-2.74-1.73,19.11,19.11,0,0,0-4-1.46,18.43,18.43,0,0,0-4.71-.6,15.67,15.67,0,0,0-6.92,1.66,17.61,17.61,0,0,0-6.46,6,17.23,17.23,0,0,0-3,9.83,18.58,18.58,0,0,0,1.59,7.5,22,22,0,0,0,4.64,6.71,26.24,26.24,0,0,0,7.6,5.18,31.44,31.44,0,0,0,10.5,2.65c.81.09,1.62.16,2.43.2s1.62.07,2.43.07a41.05,41.05,0,0,0,12.47-1.79,36.62,36.62,0,0,0,10.19-5.05,38.27,38.27,0,0,0,8-7.63,49.65,49.65,0,0,0,5.86-9.57c.71-1.41,1.65-3.52,2.81-6.3l4-9.63q2.28-5.44,4.94-11.69T198.59,261q2.9-6.18,5.78-11.82A107.9,107.9,0,0,1,210,239.3a37.24,37.24,0,0,1,5.17-6.51c1.62-1.55,3.09-2.14,4.41-1.79a7.24,7.24,0,0,0,1.67.53,3.5,3.5,0,0,0,1.37,0,2.43,2.43,0,0,0,1.22-.8,1.38,1.38,0,0,0,.45-1.26,7.71,7.71,0,0,0-.45-1.26m-118.16,23a3.07,3.07,0,0,0-.6-.8,6.52,6.52,0,0,1,1-1.46,8.92,8.92,0,0,0,1-1.33,36,36,0,0,1,5.48-5.71,73.47,73.47,0,0,1,7.52-5.78,36.76,36.76,0,0,1,7.23-3.85q3.34-1.26,4.71.2,2.13,2.39-.15,5.25a25.82,25.82,0,0,1-6.69,5.57,63.75,63.75,0,0,1-9.89,4.92,55,55,0,0,1-9.58,3m294.63,43.95a18.41,18.41,0,0,0-3.88-4.45,24.6,24.6,0,0,0-6.08-3.65,19.57,19.57,0,0,0-7-1.06q-9.12,0-24.4,3.78T324.2,299.92a9.94,9.94,0,0,1-1.37.47c-.51.13-1,.28-1.52.46a8.3,8.3,0,0,1-.61-2.39,24.86,24.86,0,0,1-.15-2.79q0-4,3.57-10.36t9-14.09q5.4-7.71,11.71-16.16t11.86-16.42q5.55-8,9.43-14.89t4.34-11.57a23.48,23.48,0,0,0-1.52-11.37,24.71,24.71,0,0,0-6-8.71,28.5,28.5,0,0,0-8.9-5.58,27.35,27.35,0,0,0-10.19-2,53,53,0,0,0-17.1,3,100.1,100.1,0,0,0-17.34,7.83,127.86,127.86,0,0,0-16,10.85A118.51,118.51,0,0,0,280,218.45a68.19,68.19,0,0,0-9,12q-3.35,5.78-3.35,9.9a17.93,17.93,0,0,0,1.9,8.83,15.18,15.18,0,0,0,4.64,5.24,17.1,17.1,0,0,0,6,2.59,27.59,27.59,0,0,0,6,.73,20.61,20.61,0,0,0,3.95-.33,5.12,5.12,0,0,0,2.13-.73,4.09,4.09,0,0,0,1.15-1.73c.25-.7-.23-1.06-1.45-1.06a3.67,3.67,0,0,1-3.19-1.86,9.62,9.62,0,0,1-1.22-5.31q0-5,3.57-12.95t13-17.46q12-12,21.44-16.47t16.27-4.51a20.09,20.09,0,0,1,7,1.13,17,17,0,0,1,5.1,2.85A12.85,12.85,0,0,1,357,203a8,8,0,0,1,1.07,3.72q0,3.59-4.41,9.76t-11,13.74q-6.62,7.58-14.29,15.94t-14.29,16.53a136.41,136.41,0,0,0-11,15.54q-4.41,7.37-4.41,12.81a17.88,17.88,0,0,0,.84,5.78,17.49,17.49,0,0,0,2.05,4.25,14.18,14.18,0,0,0,2.66,3,29,29,0,0,0,2.66,2,29,29,0,0,1-9,1.73,11.1,11.1,0,0,1-7.3-2.39,2.89,2.89,0,0,1-1.44-1.33.85.85,0,0,0-.84-.67,1.39,1.39,0,0,0-1.22.27c-.71.44-.91,1.41-.6,2.92a13.72,13.72,0,0,0,.68,2.59,7.54,7.54,0,0,0,2.13,3,13.45,13.45,0,0,0,4.56,2.52,23.73,23.73,0,0,0,7.83,1.06,62.54,62.54,0,0,0,10.72-1.12,119.09,119.09,0,0,0,15-3.92,195.86,195.86,0,0,1,25.7-6.44,115.16,115.16,0,0,1,18.55-1.79,52.09,52.09,0,0,1,11.94,1.12A37.6,37.6,0,0,1,391,306a15.42,15.42,0,0,1,5,3.45,2.75,2.75,0,0,1,.61,1.26,5,5,0,0,0,.46,1.33,4,4,0,0,0,.76,1.06,1.77,1.77,0,0,0,1.52.34c.91-.09,1.75-1,2.51-2.59A14.7,14.7,0,0,0,403,304.7a19.91,19.91,0,0,0-.61-4.71,17.66,17.66,0,0,0-2.05-4.85m-4.49-72.37a3.74,3.74,0,0,0,2,1.26,3.39,3.39,0,0,0,2.89-1,53,53,0,0,0,4.71-4.51q3-3.2,5.85-6.78a70.11,70.11,0,0,0,4.87-7q2.06-3.39,1.75-5a7.33,7.33,0,0,0-2.43-3.58,24.92,24.92,0,0,0-4.72-3.46,18.59,18.59,0,0,0-4.94-2c-1.57-.35-2.66-.13-3.27.67s-.84,1.44-.68,1.92a2.91,2.91,0,0,0,.76,1.26c.35.36.7.73,1.06,1.13a2.43,2.43,0,0,1,.53,1.66,13.56,13.56,0,0,1-.91,3.85c-.61,1.78-1.34,3.72-2.2,5.85s-1.86,4.29-3,6.5a45.71,45.71,0,0,1-3.35,5.71,2.77,2.77,0,0,0,.08,1.4,4.64,4.64,0,0,0,1,2.06m149.93,26.29a62,62,0,0,1-7.6,7.9,88.14,88.14,0,0,1-9.65,7.44A66.4,66.4,0,0,1,518.23,270a31.29,31.29,0,0,1-9.73,2.66,11.75,11.75,0,0,1-3.5-.27,8.59,8.59,0,0,1-3.34-1.52,8.11,8.11,0,0,1-2.44-3,10.64,10.64,0,0,1-.91-4.65,20.8,20.8,0,0,1,1.07-6.37,26.14,26.14,0,0,0,7.37-.34,42,42,0,0,0,10.72-3.38,28.31,28.31,0,0,0,7.15-4.25,30.73,30.73,0,0,0,5-5.18,19.51,19.51,0,0,0,2.89-5.38,13,13,0,0,0,.76-4.85,5.68,5.68,0,0,0-1.53-3.58,11.26,11.26,0,0,0-3.19-2.39,22.76,22.76,0,0,0-3.5-1.46c-1.11-.36-1.87-.58-2.28-.67a18.26,18.26,0,0,0-6.38-.2,22.93,22.93,0,0,0-6.16,1.8,33.52,33.52,0,0,0-5.63,3.18,60.34,60.34,0,0,0-4.94,3.85,67.66,67.66,0,0,0-10.19,11.29,38.8,38.8,0,0,0-5,9.23,28,28,0,0,0-1.37,5.22,77.19,77.19,0,0,1-6.46,5.14,35.24,35.24,0,0,1-7.45,4.18q-3.42,1.33-5.09-.13a4.81,4.81,0,0,1-1.52-3.85,17,17,0,0,1,2.2-7.5,93.93,93.93,0,0,1,5-8.64q2.81-4.31,5.4-8a32,32,0,0,0,3.34-5.5,6,6,0,0,0,.23-4.65,10.24,10.24,0,0,0-2.36-3.46,21.67,21.67,0,0,0-4.25-3l-.61-.27a3.56,3.56,0,0,0-1.37-.26q-2.28-.27-6.84,3a117.35,117.35,0,0,0-10.12,8.43q-5.55,5.12-11.48,11.09T431,257.49q-4.87,5.11-8.06,8.5c-2.13,2.26-3.25,3.34-3.35,3.26s.38-1,1.45-2.79,2.45-4.12,4.18-7,3.59-6.26,5.62-10,4-7.72,5.78-11.88a12.18,12.18,0,0,0,1.22-5,6.29,6.29,0,0,0-2.43-5.31,15.36,15.36,0,0,0-5.48-2.66,26.82,26.82,0,0,0-7.75-.79,3.41,3.41,0,0,0-1.6.66c-.46.36-.53.89-.23,1.59a4.31,4.31,0,0,0,1.67,1.93A2.16,2.16,0,0,1,423,230.2a26.17,26.17,0,0,1-2.82,7.11q-2.21,4-4.94,8.36t-5.62,8.64c-1.93,2.87-3.54,5.5-4.86,7.88-1.33,1.15-2.7,2.27-4.11,3.34a30.34,30.34,0,0,1-4.49,2.85,14.34,14.34,0,0,1-4.18,1.46,5.44,5.44,0,0,1-3.5-.46,4.34,4.34,0,0,1-1.82-3.72,13,13,0,0,1,1.21-5,56.34,56.34,0,0,1,3-5.91q1.74-3,3.87-6.17c1.42-2.08,2.74-4.06,4-5.91s2.23-3.54,3-5.05a10.84,10.84,0,0,0,1.37-3.59A5.27,5.27,0,0,0,401.6,230a13.58,13.58,0,0,0-3.8-2.85,24.45,24.45,0,0,0-5.63-2.13,9,9,0,0,0-1.37-.13,2.2,2.2,0,0,0-2,.93,2,2,0,0,0,.23,2.26,3,3,0,0,1,.69,2,21,21,0,0,1-1.83,3.52q-1.68,2.85-5,8.83-2.28,4-4.86,8c-1.73,2.65-3.27,5.27-4.64,7.83a42.83,42.83,0,0,0-3.12,7.24,9.94,9.94,0,0,0-.15,6.18,12.85,12.85,0,0,0,1.52,2.92,11.32,11.32,0,0,0,2.81,2.85,17.27,17.27,0,0,0,4.11,2.13,11.45,11.45,0,0,0,5.09.59,33.44,33.44,0,0,0,15.21-4.78c1.42-.87,2.75-1.77,4-2.69a8.93,8.93,0,0,0,3.2,4.69c2.38,1.86,5.71,2.78,10,2.78a6.79,6.79,0,0,0,3.58-1.59,45.08,45.08,0,0,0,4.79-4.12q2.58-2.52,5.47-5.64c1.93-2.08,3.8-4.14,5.63-6.18s3.52-3.93,5.09-5.7,2.86-3.19,3.88-4.25q6.69-7.05,11.48-11.42t8.14-6.91c-.61.71-1.3,1.48-2.06,2.32s-1.59,1.75-2.51,2.73a79.84,79.84,0,0,0-10.26,14.14,36.52,36.52,0,0,0-4.64,13.08,15.45,15.45,0,0,0,2.13,9.83q2.58,4,9.43,4a31.76,31.76,0,0,0,13.08-2.72,52.81,52.81,0,0,0,11.17-6.77c1-.83,2-1.68,3-2.55a16,16,0,0,0,.95,2.61,15.37,15.37,0,0,0,4.71,5.84,20.47,20.47,0,0,0,7.83,3.52,32.32,32.32,0,0,0,10.95.47A39.33,39.33,0,0,0,521.73,277a59.32,59.32,0,0,0,11.71-7.5,75.42,75.42,0,0,0,9.5-9.29q4.18-4.92,7.23-9Z"/><path class="cls-2" d="M217.19,47.58c.48.41,1.63.92,1.78,0a30.92,30.92,0,0,0,2.37,7.11c-1.25-.53-1.75-1.8-3.55-1.78,1.78-2.53.59-3.11-.6-5.33"/><path class="cls-2" d="M221.93,48.76c2-.41,2.12,2.08,1.19,3-.88-.5-.86-1.91-1.19-3"/><path class="cls-3" d="M335.64,137.6c2.54,1.92-1.16,4.86-2.37,5.92a16.64,16.64,0,0,0,6.52,0c-4.69,9.48-14.3,17.84-24.28,23.69s-22.74,11.15-36.13,12.44c-48.16,4.66-78-23.05-93-53.3H148.49v-6.51h44.42c12.27,30.64,42.92,56.89,85.28,52.11,19.42-2.18,36.78-12.74,48.57-24.28,4.24-4.15,8.24-6.23,8.88-10.07"/><path class="cls-3" d="M350.45,121.61c-3.42-.25-3.2-.45-6.52-.59.64-2.13,6.24-1.32,6.52.59"/><path class="cls-3" d="M347.49,122.2c1.62,1.28-.59,2.72.59,4.15-2.22.48-1.1-3.65-.59-4.15"/><path class="cls-3" d="M345.71,129.9c-1.31,1.46-3-1.74-3.55-3,.5-.11.55.23.59.59.7-.09.5-1.08.59-1.77,1.81,0,1.42,2.13,3.55,1.77.31,1.18-3.26,1.36-1.18,2.37"/><path class="cls-3" d="M222.52,22.11V20.93c-3.46-2.5-3.86,5.61-5.33,3.55-3-.27,1.87-.68,1.19-2.37-3.5,1,.29-.35-1.19-1.77-3.78,1.63-2.12.63-5.92,2.37C221.86,10.45,242.36,1.56,264,.2c46.08-2.9,72.28,26.13,88.25,53.89a247.29,247.29,0,0,1,36.72,0c.16,2,.94,3.41.59,5.93-13.63,1.37-29.81.2-44.42.59-11.35-36.84-60.3-64.24-106.61-46.2a99.85,99.85,0,0,0-10.06,4.15c-2.32,1.23-4.59,4.47-7.11,3,.48.11.59.6,1.18.59"/><path class="cls-4" d="M223.12,51.73c.93-.89.86-3.38-1.19-3,.33,1.06.31,2.47,1.19,3"/><path class="cls-4" d="M217.79,52.91c1.8,0,2.3,1.25,3.55,1.78A30.92,30.92,0,0,1,219,47.58c-.15.92-1.3.41-1.78,0,1.19,2.22,2.38,2.8.6,5.33"/><path class="cls-3" d="M219,45.8c2,.37,1.2,3.19,1.78,3.56.08-2.74,1.55-5.09,1.18-7.11.39-1.77,1.27.57,2.37,0-.85-1.41-1.24-4-.59-8.29-1.53-2.63-3.8,1.2-5.33,0,14-15.92,43-25.12,70.47-17.77a78.14,78.14,0,0,1,30.21,16C327.37,39.53,335.81,49,336.83,60c-44.23,1.38-91,.19-136.22.59.14-6.17,3.57-9.06,5.33-13.62,3.67.72,4.83,1.76,7.11,1.18,2.18.31,1.78,3.19,1.18,4.74,1-1.6,2.3-.08,3.56-1.78.17-2.42-.82.1-2.37-.59A13.72,13.72,0,0,1,219,45.8"/><path class="cls-3" d="M210.09,29.81c-.39,1.78-1.27-.56-2.37,0a1.61,1.61,0,0,0,1.18,1.78c-1.39.77-3.44-2.85-4.74-4.15.69-.09,1.06.13,1.19.6.69-.1.5-1.08.59-1.78,1.06.19,2.32,3.13,3.55,1.18,1.67-.25-1.48,2.21.6,2.37"/><path class="cls-3" d="M202.39,29.81c1.24-.51-.86,3,.59,1.19,2.36.88-2.9,3.94,0,3.55-.07,2.77-.86-.64-2.37,0-1.76,1.16-1.16,4.22-1.78,6.51a2.59,2.59,0,0,1-1.18-2.36c-1,.24,0,3.47.59,4.14-1.25-.15-1.83-.45-2.37,2.37,2.41-.92,2.34-.47,3.55-.59,0,5.35-6.11,9.67-7.1,16H149.09c-1.1-1.27-.4-4.34-.6-6.52,12.51-.32,24.8-.86,37.91-.59,4.48-7.55,8.35-15.73,14.8-21.32-.36.53-.71,1.06,0,1.19,1.33-.25,0-3.15,1.19-3.56"/><path class="cls-3" d="M359.93,119.83h29c.18,2,1.36,4.85,0,6.52-10.12-.94-24.14,2-31.39-1.78-.37.82-2.28.09-2.37,1.19a11,11,0,0,0-1.19-3c2.4,3.23,5.89-1.65,5.33-1.19,2,1.09.3.07.6-1.78"/><path class="cls-3" d="M336.83,121c-.27,2.83-.91,1.86-3.56,1.78,1.18,1.12.29,2.8,0,4.14,0,1.39,1.62-.22,1.19-1.18,1.23,1.64-1.26,7.53-4.15,7.11-1.46.43,2,1.78,0,3-13.71,18.12-35.63,30.79-63.37,30.79-19.9,0-41.34-10.15-53.3-23.1-5.32-5.76-11-12.54-12.44-21.91v-1.18c43.79-.75,92.77-1.57,135.63.59"/><path class="cls-1" d="M158.75,113.73h-8.18l-.07-46.55h8.25Zm9.5,0h-6.71V104.5h6.71Z"/><rect class="cls-1" x="173.33" y="67.18" width="8.25" height="46.55"/><path class="cls-1" d="M202.79,113.73h-8.32l-8.42-46.55h8.42Zm7.52-46.55-6.08,38.33-3.89-20.18,2.51-18.15Z"/><path class="cls-1" d="M214.2,67.18h8.25v46.55H214.2Zm18.64,9.22h-7.59V67.18h7.59Zm-7.59,9.16h5.87v8.66h-5.87Zm7.59,28.17h-7.59V104.5h7.59Z"/><path class="cls-1" d="M270.45,113.87h-8.11l-.07-46.57,8.18-.12Zm14.05-12.22c0,4.9-1.29,8.33-3.86,10.32a9.68,9.68,0,0,1-6.08,1.9h-1.18v-7.93a9.76,9.76,0,0,0,1.74-1.65,7.27,7.27,0,0,0,.64-3.55,13.83,13.83,0,0,0-.46-4.44,6.57,6.57,0,0,0-1.92-2.41V86.41a8,8,0,0,0,1.34-2.29,10.91,10.91,0,0,0,.34-3.23,10.7,10.7,0,0,0-.41-3.55,14.28,14.28,0,0,0-1.27-1.78V67.18c3.79,0,6.45,1.16,8,3.48q2,3,2,9.67a12.42,12.42,0,0,1-1.22,6.14,8.75,8.75,0,0,1-4.86,3.61q4.09,1.26,5.64,4a15.36,15.36,0,0,1,1.56,7.62"/><path class="cls-1" d="M321.62,113.87h-8.1l-.07-46.57,8.17-.12Zm14.05-12.22c0,4.9-1.28,8.33-3.86,10.32a9.65,9.65,0,0,1-6.07,1.9h-1.18v-7.93a10.59,10.59,0,0,0,1.74-1.65,7.39,7.39,0,0,0,.64-3.55,14.13,14.13,0,0,0-.46-4.44,6.79,6.79,0,0,0-1.92-2.41V86.41a8.19,8.19,0,0,0,1.34-2.29,11.26,11.26,0,0,0,.34-3.23,10.7,10.7,0,0,0-.41-3.55,14.28,14.28,0,0,0-1.27-1.78V67.18q5.67,0,8,3.48,2,3,2,9.67a12.43,12.43,0,0,1-1.21,6.14,8.82,8.82,0,0,1-4.87,3.61q4.09,1.26,5.65,4a15.37,15.37,0,0,1,1.55,7.62"/><path class="cls-1" d="M374.06,106.5V115q-6.37,0-9-7.91a39.43,39.43,0,0,1-1.66-12.34V92.26q0-13.41,2.55-19.42t7.8-6l.07,8a6.94,6.94,0,0,0-.81,1.65,21.23,21.23,0,0,0-.8,6.39V97.26a31.11,31.11,0,0,0,.57,6.71,5.44,5.44,0,0,0,1.25,2.53m14.19,3.76L382.39,118l-3.07-3.89-2.48.69.08-8.47a6.88,6.88,0,0,0,.93-2.53,33,33,0,0,0,.47-6.14V83.4a28,28,0,0,0-.49-6,6.62,6.62,0,0,0-1.19-2.59v-8a7.69,7.69,0,0,1,7.12,4.42q3.36,6.14,3.37,21.56a83.32,83.32,0,0,1-.43,9.61,12.06,12.06,0,0,1-1.06,3.92Z"/><path class="cls-4" d="M312,44.62c-.43,1.31,2.19,2.44,2.37,1.18-.88-.17.64-2.49-1.18-3,.67,1.6.35,2.85-1.19,1.78"/><path class="cls-4" d="M310.18,50c1.61.43,1.19-1.18,2.36-1.19a2.71,2.71,0,0,1-.59,1.78c1.82-.84,2.67-.26,4.15.59.52-1.9-2-.81-1.78-2.37,2.85.09,4.91.5,6.52-.59A1.63,1.63,0,0,0,322,50c-.77-2.47,1.5-1.3.59-3.55,1,.14,1.35,1,1.19,2.36,1.35.17,2.22-.14,2.37-1.18-.79,0-.54-1-1.19-1.18-2.44,1.28-.45-3.33-2.37-4.15-1.11,1.13.35,1.07,0,3-1.47-.09-2.45.31-3,1.19,1.61.51-1.35,2-1.18,0,1.53-.06.62-2.54,3-1.78-.84-1.53-1.55-.83-1.78-3-.85,1.93-1.32,1.49-3.55,1.18-.07.72-.18,1.4-1.19,1.19-.6,1.66.93,4.12,1.78,2.37-.33,0-.67-.48,0-.6,0,.79,1,.54,1.19,1.19-.79,0-.55,1-1.19,1.18-1.77-2.19-4,.9-4.15-1.18-2.2-.63-1.16,2-2.36,2.37,0-.92-1.73-.41-.6,0,.37,0,.71.09.6.59"/><path class="cls-4" d="M273.46,23.3c.55.5,1.26,3.77,0,4.14-1.9.13-1-2.58-3-2.36-3.4,3.9,6,4.42,3.55,11.25a16.27,16.27,0,0,1-6.52,0V32.18c2.1-.12,1.17,2.78,3.56,2.37,2-2.84-2-4.66-3.56-5.92V23.89c1.13-1.05,3.92-.43,5.93-.59"/><path class="cls-4" d="M277,23.3c2.58.58,1.49,4.82,2.37,7.11,2.43-.93,1-5.67,4.14-5.93.91,3.79.86,11.43-2.36,13-1.46-1.45.43-2.57,0-4.74-1.45.53-.65,3.31-3,3V32.18c-2.12.44.08,5.21-3,4.74-.6-3.48.63-10,1.78-13.62"/><path class="cls-4" d="M285.89,36.92c3.36,1.31,4.77-6.29,4.15-8.88h-1.78c-.85,2.9-1.66,5.84-2.37,8.88m1.19-11.25c2.41.15,4,1.11,5.92,1.77a42.74,42.74,0,0,1-3.55,11.85,6.86,6.86,0,0,1-5.93-1.78,75.52,75.52,0,0,1,3.56-11.84"/><path class="cls-4" d="M297.74,28.63c.39,2.16-1.28,2.27-1.19,4.14,2.49.12,1.83-2.9,4.74-2.37-2.44,3.48-5.59,6.26-5.33,12.44-2.64.28-.11-4.62-1.77-5.33-1.7.47-.38,4-3,3.55.29-3.74,2.34-10.63,6.52-12.43"/><path class="cls-4" d="M308.4,36.92c-1.86.28-1.56-1.59-3-1.78-.87.52-1.88.89-1.78,2.37-.44,2,2.41.76,1.78,3a1.89,1.89,0,0,1-3-.59c-1.52.06-.85,2.31-2.37,2.37,0,2.2,2.9,1.44,3,3.55-2.49,1.25-3.84-1.49-5.92-2.36,2.5-3.66,7.48-16.5,11.25-6.52"/><path class="cls-4" d="M256.87,24.48c2.42,2.33,1.94,7.54,3,11.26,1.39-.42,3.75-1.36,3.55,1.18-1.84-.06-3.29.27-4.15,1.18-2.22-2.73-4-10.77-2.37-13.62"/><path class="cls-4" d="M251,35.14c2.73.24,1.37-2.52,0-3Zm-1.78-8.29c4.06,2.27,5.45,7.19,7.11,11.85-2.62.84-1.55-2-3.55-1.78-1.33.25,0,3.14-1.19,3.55-2.71-1.35-3.35,2.43-7.1,1.78-2-3.3-2.94-7.73-5.33-10.66.81-1.95,3.13-2.39,5.33-3,1.06,3-2.14,1.81-2.37,3.55-.08,1.07.72,1.25.59,2.37,1.84.2,2.83-1.37,4.15,0-.06,1.52-2.32.85-2.37,2.37s.93,1.83,1.18,3c1.68-.1,2.47-1.08,4.15-1.18.18-4.07-2.45-8-.6-11.85"/><path class="cls-4" d="M234.37,35.74c0,2.16,1.17,3.17,2.37,4.14.06-.72.17-1.4,1.18-1.18-.52-1.46-.53-3.42-2.37-3.56-.13.46-.49.69-1.18.6m5.33,3.55c1.14,1.43,2.78,2.35,4.14,3.55-1.65,2.48-4.22-.78-5.92-1.78-1.63,1.68,2.43,2.68,1.78,5.34-5-1.31-5.91-6.73-8.29-10.66,3-5,10-1.8,8.29,3.55"/><path class="cls-4" d="M303.66,141.15c-1.12,1.49,3.07,4,1.19,6.52-4.2-2.52-7.25-6.18-10.07-10.07,3.13-1.65,3.75,2.48,5.92,3.55.31-2.92-3.87-3.69-1.78-6.51,2.47.29,3.29,2.25,4.15,4.15,1.28-1.65-2.88-4.24-.59-7.11,2.73,3.58,5.19,7.44,5.92,13-2.8,0-3.37-2.16-4.74-3.56"/><path class="cls-4" d="M239.11,134.05c-.63,4.51-4.06,6.2-5.93,9.47-.51,2.3,2.59,1,1.78,3.56-2.51.14-3-1.73-4.74-2.37,3.16-3.36,3.63-9.4,8.89-10.66"/><path class="cls-4" d="M240.29,148.85c2.7-.63,6.75-7.44,3-8.88-.89,2.8-4.18,5.9-3,8.88M248,140a47.87,47.87,0,0,1-5.33,11.25c-2.73,0-3.84-1.68-5.92-2.37,2.3-4.8,4.69-15.27,11.25-8.88"/><path class="cls-4" d="M296,149.45c.74-2.69-2.1-6.46-3.55-8.89-2.34,2.29.37,8.33,3.55,8.89m2.37,1.18c-2.09.08-2.65,1.7-4.74,1.78a58.21,58.21,0,0,1-5.33-11.85c6.21-5.58,9.71,3.06,10.07,10.07"/><path class="cls-4" d="M248.58,140.56h1.78c1.43,1.61-.65,3.29,0,5.93,2.34-.42.91-4.62,3.55-4.74,1.62,2.05-.58,4.23,0,7.1,2-1.6,1.16-5.95,4.74-5.92-1.69,4.63-2.73,9.91-6.51,12.44-1.6-1.9.45-3.93,0-6.52-2.49.68-1,5.32-4.15,5.33,0-.57-.72-.46-1.18-.59a89.7,89.7,0,0,0,1.77-13"/><path class="cls-4" d="M282.34,142.34h1.18c2.43,1.92,2.1,6.6,3.56,9.47.41,1.17,3.3-.14,3.55,1.19-.18,2-2.68,1.66-4.74,1.78-1.43-3.9-3-7.7-3.55-12.44"/><path class="cls-4" d="M281.75,143.52c.08,1.46.09,2.86-.59,3.56-2,.22-.94-2.62-3.56-1.78.66,4.68,6.67,4,5.92,10.07-2.19.38-3.52,1.61-6.51,1.18.29-1.87-1.07-2.09-.59-4.14,2.67-.7,1.32,2.62,4.14,1.77,1.1-2.5-2.58-4.75-5.33-5.33v-5.33c1.95-.18,4.85-1.37,6.52,0"/><path class="cls-4" d="M265.17,155.37c1.11.13,1.3-.67,2.36-.59.32-2.1-.5-3.05-1.77-3.56-.9.84-1.87,2.88-.59,4.15m4.73-11.25v4.14c-2.55.78-1.87-1.68-3-2.37-1.56-.18-1.94.82-1.77,2.37.52,1.84,4.14.6,5.33,1.78-1.2,2.67-1.09,3.15-1.19,7.11-2.18-.2-5.24.5-6.51-.6a56.15,56.15,0,0,0,0-12.43c3.06-.61,3.64,0,7.1,0"/><path class="cls-4" d="M255.82,126c3.07-5.14,9.69,11.64,14.5,0,3.27.76,2,6.06,2.41,9.67-2.8-2-6.47-3.19-12.08-2.42-2.07-1.94-1.43-6.61-4.83-7.25"/></g></g></svg>