<svg xmlns="http://www.w3.org/2000/svg" viewBox="0 0 535.71 404.81"><defs><style>.cls-1{fill:#fff;}</style></defs><g id="Layer_2" data-name="Layer 2"><g id="Layer_1-2" data-name="Layer 1"><path class="cls-1" d="M215.18,0S202,49.73,233.69,105.06c.22.4.45.79.69,1.19,32.58,55.81,25.89,142-.45,175.9,0,0,18.75-53.57-8.93-99.56,0,0-23.66-43.3-23.66-66.52,0,0-8.93,21.88,10.27,69.65,0,0,26.33,39.28,18.75,67.41,0,0-3.57-37.95-34.38-69.65,0,0-48.21-61.6-14.28-125Z"/><path class="cls-1" d="M93.75,96.43s6.7,29.91,70.54,75.45c0,0,55.35,43.75,51.78,106.69,0,0-18.3-55.35-74.11-92.85,0,0-15.17-8.49,6.25,12.5,0,0,44.65,38.39,53.58,67,0,0-66.52-15.62-92-73.21,0,0-21.43-48.67-16.07-95.54"/><path class="cls-1" d="M202.23,303.57S162.94,212.06,0,227.23c0,0,54,94.2,179.47,68.31,0,0-17.42-25.89-104.92-33.93,0,0,49.11-14.73,108.93,26.79a142.9,142.9,0,0,1,18.75,15.17"/><path class="cls-1" d="M388.4,297.87l-4.1-3.78q9.58-10.24,19.07-15.15t16.44-4.89a6.7,6.7,0,0,1,4.16,1.17,4,4,0,0,1,1.53,3.4,23.4,23.4,0,0,1-.69,5.54q-.68,2.85-4.27,13.47,16.11-14.43,22-17.83,9.9-5.74,18.11-5.75a11.29,11.29,0,0,1,9,4.51q3.69,4.51,3.69,13.63,0,22.76-15.94,43.24t-35.25,20.49A35.94,35.94,0,0,1,407,352.41l-8.87,31.07a17.13,17.13,0,0,0-.84,4.64,5.21,5.21,0,0,0,2.94,5q4.5,2.37,19,3.88l-1.37,4.76q-17-1.36-26.61-1.36-10,0-25.88,1.36l1.37-4.76q8-.75,11.65-4t5.86-11.46l19.1-71.45q5.37-20,5.38-22.21c0-1.63-.89-2.44-2.64-2.44q-4.63,0-17.69,12.38m21.12,44.18q8.34,7.43,17.12,7.42,12.67,0,22.25-17.6t9.56-34.34q0-5.36-2.7-8.13a9.66,9.66,0,0,0-7.25-2.78q-5.08,0-11.44,4.42-9.84,6.87-15,13.64-3.72,4.9-7,16.94Z"/><path class="cls-1" d="M524,321.58l7.13-1.32-7.84,23.83q-4.71,14.24-8.89,32.79-2.31,10.08-2.3,13c0,2,.87,3,2.6,3,1.1,0,2.87-.68,5.29-2a67.69,67.69,0,0,0,12.36-8.85l3.38,3.73q-12.06,9.66-15.44,11.7a61,61,0,0,1-12.9,6,25.52,25.52,0,0,1-7.82,1.3,6.68,6.68,0,0,1-4.13-1.08,3.79,3.79,0,0,1-1.37-3.17,11.85,11.85,0,0,1,.84-3.71l4.23-13.1a87.18,87.18,0,0,1-21.52,16.72q-7.68,4.33-14.08,4.34-6.09,0-9.34-3.85c-2.95-3.44-4.41-7.94-4.41-13.51q0-9.93,5.94-22.13a81.29,81.29,0,0,1,15.94-22.14,67.57,67.57,0,0,1,21.05-14.64q8.54-3.57,21.9-3.56a61.35,61.35,0,0,1,6.84.38Zm-13.12,14.61a56.41,56.41,0,0,0-9.62-1,29.81,29.81,0,0,0-16.61,4.61q-7.08,4.62-13.16,16.6a52.42,52.42,0,0,0-6.08,23.92q0,6.34,2.43,9.14a8,8,0,0,0,6.34,2.8q7.3,0,15.65-6.95t12.28-20Z"/><path class="cls-1" d="M347.24,365.26c0-.27,0-.55,0-.82-8.14-1.23-17.89-5.4-28.39-15.53,0,0-28.59-24.08-68.72-1h-7s156-144.47,181.59-172.06c0,0,14.05-15.55,21.57-24.08,0,0,13.55-10.53,3-14.54,0,0-9-1-10.53,11.53,0,0-11.54,22.07-40.13,22.07,0,0-23.58-5-51.17-20.06,0,0-41.63-14.55-63.7,29.09L268.65,214s0,6.51,6.52-1c0,0,10-27.59,23.57-37.62,0,0,8.53-11,49.17,6.52,0,0,21.06,24.08,65.71-5L202.43,379s-5,10,6.52,6.52c0,0,17.56-26.09,34.11-29.6,0,0,23.08-8,60.7,21.57,0,0,12,9.83,32.17,8.21"/><path class="cls-1" d="M364,363a29.75,29.75,0,0,0,.32-4.22q0-7.16-4.77-14.71t-20.06-20.92q-8.36-7.46-10.8-11.62a18.08,18.08,0,0,1-2.43-9.3q0-9.58,8.85-17.28a30.7,30.7,0,0,1,20.75-7.7q7.67,0,12.16,4.31t4.48,11.75a144.43,144.43,0,0,1-1.19,15.37h5.58q2.29-16.56,3.62-22.13a92.61,92.61,0,0,1,3.72-11.87c-2.75-.32-6-.82-9.74-1.48A90.49,90.49,0,0,0,358,271.34a52.86,52.86,0,0,0-24,5.28,47.37,47.37,0,0,0-17.16,14.2q-6.6,8.93-6.6,17.74a25.24,25.24,0,0,0,1.62,8.77,33.59,33.59,0,0,0,5,8.78q2.39,3,11.58,11.14,9.32,8.34,12,11.63a33.79,33.79,0,0,1,5.36,8.68,21.56,21.56,0,0,1,1.42,6.88A35.53,35.53,0,0,0,364,363"/><path class="cls-1" d="M335.64,386a41.85,41.85,0,0,1-27.08,9.35,24.08,24.08,0,0,1-9.58-1.88,18.33,18.33,0,0,1-6.89-4.84q-2.47-3-4.22-9.54-1.51-5.42-3-7a7.81,7.81,0,0,0-6-2.61,8.61,8.61,0,0,0-6.32,2.81,9.67,9.67,0,0,0-2.76,7.06q0,7.95,10.57,15.1t26,7.16a71.32,71.32,0,0,0,29.65-6.34q12.87-5.82,20-14.52a65.72,65.72,0,0,1-19.93,5,3.47,3.47,0,0,1-.29.25"/></g></g></svg>