<svg xmlns="http://www.w3.org/2000/svg" viewBox="0 0 628.18 245.61"><defs><style>.cls-1,.cls-2{fill:#fff;}.cls-2{fill-rule:evenodd;}</style></defs><g id="Layer_2" data-name="Layer 2"><g id="Layer_1-2" data-name="Layer 1"><path class="cls-1" d="M58.1,151.17c.13-.36.25-.75.37-1.18a4.4,4.4,0,0,0,.18-1.18c3.6-.78,6.88-1.39,9.87-1.81a57.94,57.94,0,0,1,8.22-.65,27.59,27.59,0,0,1,7.13.86,18.94,18.94,0,0,1,6.07,3,8.11,8.11,0,0,1,2.2,2.73,5.17,5.17,0,0,1,.45,2.14,1.33,1.33,0,0,0,.87,1.34c.3.14.72,0,1.23-.48a7.52,7.52,0,0,0,1.51-2.09,17.87,17.87,0,0,0,1.28-3.26,14.08,14.08,0,0,0,.55-4,13.34,13.34,0,0,0-.78-4.39,12,12,0,0,0-2.69-4.28,7.66,7.66,0,0,0-4.34-2.24,33.31,33.31,0,0,0-7-.64,90,90,0,0,0-14,1.23q-7.71,1.23-14.84,2.83a6.78,6.78,0,0,0-1.24-.75c-.33-.14-.56-.1-.68.11a.64.64,0,0,0-.55.43,3.24,3.24,0,0,0-.09.85q-4.94,1.18-8.77,2.14t-5.76,1.5Q28,146.14,22.2,147.48a43.74,43.74,0,0,1-9.5,1.33,13.49,13.49,0,0,1-4.07-.53,9.7,9.7,0,0,1-3.15-1.71,5.45,5.45,0,0,1-1-1.23c-.21-.39-.4-.75-.55-1.07a2.42,2.42,0,0,0-.59-.8,1.75,1.75,0,0,0-1.19-.33c-.67.08-1.2.66-1.6,1.77a12.11,12.11,0,0,0-.59,4,15.42,15.42,0,0,0,.64,4.49,21.61,21.61,0,0,0,2.88,6.9,5.35,5.35,0,0,0,4.61,2.19,16.34,16.34,0,0,0,4.93-1l19.51-5.77q9-2.69,16.76-4.6-2.19,4.92-5.43,11.49t-6.85,14q-3.61,7.44-7.27,15.08T23.16,206.3q-3,6.9-4.89,12.62a33.5,33.5,0,0,0-2,9.25,15,15,0,0,0,1.33,6.74,13,13,0,0,0,3.24,4.28,11.42,11.42,0,0,0,4.07,2.25,13.7,13.7,0,0,0,3.79.64c1.52,0,2.37-.29,2.55-.86a1.44,1.44,0,0,0-.18-1.55A9.26,9.26,0,0,0,30,238.33c-.68-.78-1-2.13-1-4.06A37.13,37.13,0,0,1,30.15,226q1.19-5,3.1-11t4.44-12.67q2.51-6.63,5.16-13.26t5.25-12.84c1.74-4.13,3.3-7.91,4.71-11.33s2.57-6.33,3.51-8.72a50.94,50.94,0,0,0,1.78-5m71.08,17.43a12.24,12.24,0,0,0-3.74-1.18,11.38,11.38,0,0,0-5.21,1,9.62,9.62,0,0,0-3.66,2.88,10.37,10.37,0,0,0-1.82,6.1,21.22,21.22,0,0,0,.77,5.72q.87,3.58,1.92,7.76t2,8.45a37.14,37.14,0,0,1,.92,7.7,11.31,11.31,0,0,1-1.28,5.66c-.85,1.5-2.41,2.25-4.66,2.25a4.35,4.35,0,0,1-3.11-.86,7.33,7.33,0,0,1-1.92-2.4,10.82,10.82,0,0,1-1-3.26,23.53,23.53,0,0,1-.27-3.43,18.9,18.9,0,0,1,.18-2.72,11.46,11.46,0,0,1,.36-1.77c.92-2.06,1.88-3.28,2.88-3.63a1.79,1.79,0,0,1,2.24.42c.18.22.38.47.59.75s.51.18.87-.32a3.32,3.32,0,0,0,.32-2.51,6.28,6.28,0,0,0-1.41-2.73,9.35,9.35,0,0,0-2.84-2.19,7.86,7.86,0,0,0-3.74-.91,6.35,6.35,0,0,0-3.66,1.12,9.69,9.69,0,0,0-2.78,3,15.09,15.09,0,0,0-1.74,4.33,22.1,22.1,0,0,0-.59,5.13c0,.39,0,.77,0,1.15l-.18.19c-.88.89-1.75,1.69-2.6,2.41a13.92,13.92,0,0,1-2.56,1.71,5.45,5.45,0,0,1-2.38.64,3.29,3.29,0,0,1-2.55-1.28,3.9,3.9,0,0,1-.69-3.27,19.84,19.84,0,0,1,1.37-4.6,40.41,40.41,0,0,1,2.65-5.18c1.07-1.79,2.12-3.51,3.15-5.19s1.95-3.21,2.74-4.6a12.66,12.66,0,0,0,1.46-3.37,5.19,5.19,0,0,0-.27-3.48,10.3,10.3,0,0,0-1.83-2.83,20.87,20.87,0,0,0-3-2.67,3.07,3.07,0,0,0-.73-.32,1.19,1.19,0,0,0-1.37.53,1.81,1.81,0,0,0-.32,1.5,11.32,11.32,0,0,1,.13,1.5c0,.57-.63,1.85-1.91,3.85a12.47,12.47,0,0,0-1.6-3.16,10.74,10.74,0,0,0-2.15-2.25,8.76,8.76,0,0,0-2.38-1.33,6.6,6.6,0,0,0-2.28-.43,22.52,22.52,0,0,0-8,2.25A34,34,0,0,0,66,180a35.09,35.09,0,0,0-7.4,10.38,43.74,43.74,0,0,0-3.06,7.86,25.58,25.58,0,0,0-1,6.58,15.71,15.71,0,0,0,.91,5.61,12,12,0,0,0,2.42,4,8.9,8.9,0,0,0,3.38,2.3,8,8,0,0,0,3.8.48c1.4-.21,3.16-1.26,5.3-3.15a69.54,69.54,0,0,0,6.66-6.9,10.33,10.33,0,0,0,2.2,7.27q2.37,2.9,7.4,2.89a12.75,12.75,0,0,0,6.76-2,30.37,30.37,0,0,0,6.21-5.19l.3-.33a15.08,15.08,0,0,0,2.49,4.56,14.59,14.59,0,0,0,4.75,3.85,15.07,15.07,0,0,0,7,1.49,17.28,17.28,0,0,0,7-1.23,11.38,11.38,0,0,0,4.44-3.31,12.3,12.3,0,0,0,2.28-4.71,22.94,22.94,0,0,0,.64-5.4,29,29,0,0,0-.69-6.31c-.45-2.07-.93-3.85-1.41-5.35-.31-1.07-.76-2.37-1.37-3.9s-1.22-3.12-1.83-4.76a49,49,0,0,1-1.55-4.92,17.48,17.48,0,0,1-.64-4.39,4.75,4.75,0,0,1,.64-2.67,2.63,2.63,0,0,1,2.37-1,2.39,2.39,0,0,1,1.78,1.07,6.66,6.66,0,0,1,1,2.19,11.28,11.28,0,0,1,.36,2.35,6.23,6.23,0,0,1,0,1.45,2.89,2.89,0,0,1-.82,1.07c-.31.21-.4.6-.28,1.17s.53.77,1.24.81a3.87,3.87,0,0,0,2.23-.7,7.29,7.29,0,0,0,2.2-2.35,8.32,8.32,0,0,0,1.09-4.17,5.34,5.34,0,0,0-1-3.91,8.91,8.91,0,0,0-2.56-2.19m-42,15.72c-.43.93-1.13,2.21-2.11,3.85s-2.07,3.39-3.28,5.24-2.55,3.75-4,5.67-2.82,3.67-4.16,5.24a37.73,37.73,0,0,1-3.79,3.91,5.08,5.08,0,0,1-3,1.55q-2.84.1-2.83-3.43a17.14,17.14,0,0,1,.91-4.92,38.5,38.5,0,0,1,2.52-6,56.67,56.67,0,0,1,3.65-6.09,33.11,33.11,0,0,1,4.34-5.19,19.14,19.14,0,0,1,4.66-3.37,6.58,6.58,0,0,1,4.57-.64,3.9,3.9,0,0,1,1,.64,4.84,4.84,0,0,1,.91,1.07,5,5,0,0,1,.6,1.29,1.56,1.56,0,0,1-.09,1.17m103.41,14.39a58.83,58.83,0,0,1-5.8,6,39.09,39.09,0,0,1-6.17,4.54,15.21,15.21,0,0,1-5.84,2.14,5.49,5.49,0,0,1-2.1-.21,4.73,4.73,0,0,1-2-1.23,6.57,6.57,0,0,1-1.47-2.41,11.12,11.12,0,0,1-.54-3.74,22,22,0,0,1,.64-5.14,11.61,11.61,0,0,0,4.43-.26,21,21,0,0,0,6.44-2.73,17.11,17.11,0,0,0,4.29-3.42,23.59,23.59,0,0,0,3-4.17,17.64,17.64,0,0,0,1.73-4.34,13.2,13.2,0,0,0,.46-3.9,5.45,5.45,0,0,0-.92-2.89,7.42,7.42,0,0,0-1.91-1.92,12.65,12.65,0,0,0-2.11-1.18c-.67-.28-1.12-.46-1.37-.53a8.28,8.28,0,0,0-3.83-.17,11.73,11.73,0,0,0-3.7,1.45,19.47,19.47,0,0,0-3.38,2.57,37.5,37.5,0,0,0-3,3.1,52,52,0,0,0-6.12,9.09,35.49,35.49,0,0,0-3,7.43c-.18.67-.33,1.33-.47,2-.37.48-.74,1-1.13,1.45a52.58,52.58,0,0,1-4.7,5.24,17.87,17.87,0,0,1-4.2,3.15c-1.28.64-2.29.57-3-.21a4.35,4.35,0,0,1-.82-2.89,25.24,25.24,0,0,1,1.28-6.95,97.58,97.58,0,0,1,3.33-9.26q2.06-5,4.57-10.37t5-10.32a42,42,0,0,1,4.66-.32c1,0,1.81,0,2.51.11a9.37,9.37,0,0,1,1.78.32l1.28.32c.43.14.64.39.64.75s.15.53.46.53.39-.3.46-.91a7.34,7.34,0,0,0-.14-2.08A8.93,8.93,0,0,0,169,165a3.21,3.21,0,0,0-1.37-1.55,6.3,6.3,0,0,0-2.74-.38,40.22,40.22,0,0,0-4.2.38c1.4-2.79,2.6-5.21,3.61-7.28s1.72-3.63,2.14-4.7a5.76,5.76,0,0,0,.46-1.66,13.22,13.22,0,0,0,.09-1.45,5.2,5.2,0,0,0-.68-2.72,10.49,10.49,0,0,0-1.42-1.87,8,8,0,0,0-2-1.39,1.28,1.28,0,0,0-1,0,.92.92,0,0,0-.59.74,2.5,2.5,0,0,0,.18,1,1.32,1.32,0,0,1,0,1,10.26,10.26,0,0,1-1,2.25c-.61,1.14-1.41,2.6-2.42,4.38s-2.16,3.82-3.47,6.1-2.69,4.74-4.16,7.38q-2.1.42-4,.69a25,25,0,0,1-3.47.27,9.77,9.77,0,0,1-1.5-.11,4,4,0,0,1-1.15-.32.65.65,0,0,1-.45-.59.33.33,0,0,0-.37-.37.49.49,0,0,0-.36.21c-.19.22-.22.64-.1,1.29a12.33,12.33,0,0,0,.46,1.71,3.9,3.9,0,0,0,.82,1.33,3.49,3.49,0,0,0,1.56.91,8.74,8.74,0,0,0,2.65.32h1.5a8.29,8.29,0,0,0,1.79-.21q-2.74,5.13-5.44,10.59t-4.75,10.59a85.33,85.33,0,0,0-3.25,9.62,25.35,25.35,0,0,0-1,7.7c.24,3.64,1.1,6,2.56,7.12a7.81,7.81,0,0,0,5.39,1.44,13.16,13.16,0,0,0,6.67-2.19,34.51,34.51,0,0,0,6.26-5.14,47.94,47.94,0,0,0,3.28-3.79,16.7,16.7,0,0,0,.83,3.74,12.55,12.55,0,0,0,2.83,4.71,11.26,11.26,0,0,0,4.7,2.83,14.7,14.7,0,0,0,6.58.38,19.3,19.3,0,0,0,8.32-3,36.47,36.47,0,0,0,7-6.05,55.41,55.41,0,0,0,5.71-7.48c1.67-2.64,3.12-5.06,4.34-7.28l-2.65-1.71a47.47,47.47,0,0,1-4.57,6.37m-19-9.47a38.42,38.42,0,0,1,4.11-5.35,26.4,26.4,0,0,1,3.84-3.47,4.48,4.48,0,0,1,2.56-1.13,3.29,3.29,0,0,1,.27,1.13,6.07,6.07,0,0,1-.27,2.14,17.07,17.07,0,0,1-1.37,3.21,25.88,25.88,0,0,1-3,4.22,16.88,16.88,0,0,1-5.34,4.39,16.33,16.33,0,0,1-4.16,1.49,36.27,36.27,0,0,1,3.38-6.63m124.52-7.38a5.76,5.76,0,0,0-3.56-1.17,14.79,14.79,0,0,0-5.07,1q-2.79,1-5.71,2.41c1.28-2.28,2.49-4.48,3.65-6.58s2.18-4.06,3.06-5.88a39.15,39.15,0,0,0,2.06-5,13.74,13.74,0,0,0,.73-4,13.35,13.35,0,0,0-1.33-6.47,11.17,11.17,0,0,0-2.87-3.58,8.73,8.73,0,0,0-4.11-1.72c-1-.21-1.47.26-1.28,1.4a2.4,2.4,0,0,0,.32.8c.15.25.32.52.5.8a7.2,7.2,0,0,1,.46.86,2,2,0,0,1,.09,1.07,28.21,28.21,0,0,1-.83,4.7,37.83,37.83,0,0,1-2,5.62q-1.37,3.15-3.51,7.27t-5.44,9.79l-2.92,5.45c-.37,0-.73,0-1.1,0a8.74,8.74,0,0,1-1-.16,3.06,3.06,0,0,1-1.6-1,3.49,3.49,0,0,1-.69-1.39.77.77,0,0,0-.59-.59,1,1,0,0,0-.78.27,17.25,17.25,0,0,0-1.83,3.1,5.75,5.75,0,0,0-.18,4.28,5.42,5.42,0,0,0,3.66,4l-.83,1.83a21.21,21.21,0,0,1-2.46,1.25,12.66,12.66,0,0,1-4.3,1.07,1.29,1.29,0,0,1-.73,0,2.15,2.15,0,0,1-1.37-.53,49,49,0,0,0,3.2-8.64,32.78,32.78,0,0,0,1.19-8.42,20.52,20.52,0,0,0-.64-5.2,10.73,10.73,0,0,0-2.19-4.24,6.4,6.4,0,0,0-2.38-1.77,7.36,7.36,0,0,0-2.92-.59,14.57,14.57,0,0,0-7.81,2.78,34.83,34.83,0,0,0-7.86,7.16,42.56,42.56,0,0,0-6,9.84,26.64,26.64,0,0,0-2.42,10.91,19.38,19.38,0,0,0,1,6.05,16.17,16.17,0,0,0,3.15,5.5,9,9,0,0,0,3.06,2.46,7.59,7.59,0,0,0,3.24.75,11.68,11.68,0,0,0,7.27-3,33.25,33.25,0,0,0,6.8-7.62,8.68,8.68,0,0,0,3.57.74,11.27,11.27,0,0,0,5.65-1.55c-.43,1-.85,2.06-1.27,3.1a116,116,0,0,0-4,11.72,40.22,40.22,0,0,0-1.46,10.37q0,6.74,2.6,10.64a8,8,0,0,0,6.9,3.91,12.59,12.59,0,0,0,8.72-3.16,22.79,22.79,0,0,0,5.67-8.13,42.86,42.86,0,0,0,3-11,82.93,82.93,0,0,0,.87-11.82,74.34,74.34,0,0,0-.59-9.68,41.72,41.72,0,0,0-1.51-7.22c1.52-.43,3.05-.8,4.57-1.12s2.95-.59,4.29-.81a23.14,23.14,0,0,1,3.52-.32,4.08,4.08,0,0,1,2.15.43,1.84,1.84,0,0,1,.68,1c.09.39.17.76.23,1.12A7,7,0,0,0,295,196a1.62,1.62,0,0,0,.74.86q.45.21,1.14-.33a5.31,5.31,0,0,0,1.28-1.6,11.93,11.93,0,0,0,1-2.51,10.81,10.81,0,0,0-.36-7,9,9,0,0,0-2.7-3.58m-51.57,16.69a12.5,12.5,0,0,0,2.42,4.81A11.1,11.1,0,0,1,244.2,206a5.1,5.1,0,0,1-2.83,1,4.26,4.26,0,0,1-3.29-1.71A9.67,9.67,0,0,1,236,199,17.43,17.43,0,0,1,237,193.2a30.78,30.78,0,0,1,2.69-5.72,41,41,0,0,1,3.61-5.08,26.43,26.43,0,0,1,3.88-3.85,38.83,38.83,0,0,0-2.33,6.57,30.6,30.6,0,0,0-1,8,21.73,21.73,0,0,0,.69,5.46m8.72-8.45a37.68,37.68,0,0,1-2.92,7.59,11.42,11.42,0,0,1-1.28-2.62,13.22,13.22,0,0,1-.64-3.8,24.37,24.37,0,0,1,1.42-9.19,17.28,17.28,0,0,1,2.88-5c0,.07,0,.11.09.11q1.54,1.82,1.55,5.56a28.22,28.22,0,0,1-1.1,7.38m23.12,25.72a58.06,58.06,0,0,1-1.65,8.4q-1.92,7.16-4,10.16c-1.37,2-2.67,3-3.88,3s-2.23-.85-3-2.57a15.28,15.28,0,0,1-1.19-6.41,24.77,24.77,0,0,1,.92-6.63,77.07,77.07,0,0,1,4.88-13q3.17-6.63,6.72-13.05a.34.34,0,0,1,.27-.11q.56,2.46,1,5.67a53.82,53.82,0,0,1,.41,6.95,68.6,68.6,0,0,1-.45,7.65m149-52.89q2.11-5.24,3.52-8.88a45.66,45.66,0,0,0,1.78-5.13,9.44,9.44,0,0,0,.55-3.1,10.59,10.59,0,0,0-.82-4.12,15.47,15.47,0,0,0-1.87-3.37,10.43,10.43,0,0,0-2.1-2.14c-.71-.5-1.21-.64-1.51-.42a1,1,0,0,0-.41,1.38,9.51,9.51,0,0,1,.41,2.25c.12.93-.37,2.76-1.46,5.51s-2.56,6.1-4.39,10.05-3.93,8.35-6.3,13.16-4.75,9.75-7.13,14.81c-.3-.43-1-.64-2.1-.64a28.37,28.37,0,0,0-3.88.32c-1.5.22-3.14.54-4.94,1s-3.55.86-5.25,1.29q4.11-8.45,7.08-15.73a44.57,44.57,0,0,0,3.43-12.3,29.81,29.81,0,0,0-.69-9.46,17.1,17.1,0,0,0-3.15-6.58,13.34,13.34,0,0,0-5.07-3.85,15.94,15.94,0,0,0-6.35-1.28,27.5,27.5,0,0,0-11,2.4A54,54,0,0,0,363,144.32a67.12,67.12,0,0,0-9.64,8.82,84.12,84.12,0,0,0-7.81,10.06,55.4,55.4,0,0,0-5.25,9.94,24,24,0,0,0-1.92,8.61,24.22,24.22,0,0,0,1,7.49,13,13,0,0,0,2.42,4.55,7.52,7.52,0,0,0,3.15,2.24,9.45,9.45,0,0,0,3.15.59,6.4,6.4,0,0,0,2.33-.37,3.35,3.35,0,0,0,1.24-.7,2.31,2.31,0,0,0,.77-1.28c.15-.57-.17-.86-1-.86s-1.55-.55-2.1-1.66a11.08,11.08,0,0,1-.82-4.75,36.94,36.94,0,0,1,2.38-11.45,58.5,58.5,0,0,1,8.4-15.19,83.66,83.66,0,0,1,7.45-8.77,50,50,0,0,1,6.57-5.67,23.72,23.72,0,0,1,5.67-3,14.55,14.55,0,0,1,4.8-.91,9.35,9.35,0,0,1,4.52,1.07,11.44,11.44,0,0,1,3.29,2.62,10.64,10.64,0,0,1,2,3.31,9.59,9.59,0,0,1,.64,3.27,16.91,16.91,0,0,1-1.46,5.88q-1.47,3.63-3.84,8.13t-5.48,9.68q-3.1,5.19-6.49,10.64c-.42-.36-.76-.5-1-.43a1,1,0,0,0-.46.21q-.74,1-.09,3-3.47,5.67-6.71,11.39c-2.17,3.81-4.08,7.51-5.76,11.07a82.08,82.08,0,0,0-4,10.05,23.44,23.44,0,0,0-1.32,8.24,15.36,15.36,0,0,0,.73,4.44A11.55,11.55,0,0,0,360,237.8a9.65,9.65,0,0,0,2.33,2.24,13.22,13.22,0,0,0,2.65,1.4,17.39,17.39,0,0,0,7.12,1.17,1.62,1.62,0,0,0,.92-.43,3.07,3.07,0,0,0,.86-1.06,2.09,2.09,0,0,0,.14-1.45,2.5,2.5,0,0,0-1.1-1.44c-.42-.64-1-1.55-1.64-2.73a11.55,11.55,0,0,1-1-5.51,21.69,21.69,0,0,1,1.19-6.31q1.19-3.75,3.15-8.34t4.48-9.79q2.52-5.19,5.16-10.53c1.28-.07,2.67-.22,4.16-.43l4.48-.64c1.49-.22,2.92-.39,4.29-.54a36,36,0,0,1,3.61-.21q-2.46,5.46-4.71,10.69t-3.93,9.85c-1.12,3.06-2,5.86-2.74,8.39a28.44,28.44,0,0,0-1.14,6.36,15,15,0,0,0,1.33,6.74,14.25,14.25,0,0,0,3.24,4.39,11.35,11.35,0,0,0,4.07,2.4,12.31,12.31,0,0,0,3.79.7c1.58,0,2.52-.36,2.83-1.07a2.39,2.39,0,0,0,0-1.66,3.17,3.17,0,0,0-1-1.55c-.73-.85-1.09-2.28-1.09-4.28a38.77,38.77,0,0,1,1.19-8.55q1.19-5.15,3.15-11.29t4.47-13q2.52-6.84,5.17-13.64t5.25-13.15c1.74-4.25,3.3-8.11,4.7-11.61m111.23,9.47a6.4,6.4,0,0,0-2.56-2.14,13.47,13.47,0,0,0-3.24-1,5.74,5.74,0,0,0-2-.05,1.11,1.11,0,0,0-1,1.12,2,2,0,0,0,.45,1.5,2.26,2.26,0,0,1,.64,1.17,25.15,25.15,0,0,1-.55,9,55.64,55.64,0,0,1-3.1,9.52,72,72,0,0,1-4.57,8.93,83.49,83.49,0,0,1-4.93,7.33,30.48,30.48,0,0,1-4.3,4.7c-1.28,1.07-2.13,1.43-2.56,1.07a7.69,7.69,0,0,1-1.55-5.13,24.88,24.88,0,0,1,1.23-7.22c.83-2.68,1.74-5.31,2.75-7.92s1.91-5,2.74-7.27a16.92,16.92,0,0,0,1.23-5.51,7,7,0,0,0-1.14-4.17,10.61,10.61,0,0,0-2.51-2.57,13.05,13.05,0,0,0-3.57-1.6c-1.28-.22-2-.11-2.1.32a1.37,1.37,0,0,0,0,.91,3.25,3.25,0,0,0,.32.53c.12.18.25.38.41.59a2.29,2.29,0,0,1,.32,1,25.55,25.55,0,0,1-1.19,5.08,66.93,66.93,0,0,1-3.84,9.58,22.69,22.69,0,0,0-1.82,5.45,28.4,28.4,0,0,0-.55,5.56c0,.41,0,.81,0,1.22-.58.65-1.18,1.3-1.81,1.94-.89.89-1.76,1.69-2.61,2.41a13.28,13.28,0,0,1-2.56,1.71,5.41,5.41,0,0,1-2.37.64,3.29,3.29,0,0,1-2.56-1.28,3.94,3.94,0,0,1-.69-3.27,19.91,19.91,0,0,1,1.38-4.6A41.61,41.61,0,0,1,491,194.7c1.07-1.79,2.12-3.51,3.16-5.19s1.95-3.21,2.74-4.6a12.66,12.66,0,0,0,1.46-3.37,5.32,5.32,0,0,0-.27-3.48,10.3,10.3,0,0,0-1.83-2.83,21,21,0,0,0-3-2.67,2.9,2.9,0,0,0-.73-.32,1.2,1.2,0,0,0-1.37.53,1.85,1.85,0,0,0-.32,1.5,11.67,11.67,0,0,1,.14,1.5c0,.57-.64,1.85-1.92,3.85a12.47,12.47,0,0,0-1.6-3.16,10.5,10.5,0,0,0-2.15-2.25,8.86,8.86,0,0,0-2.37-1.33,6.6,6.6,0,0,0-2.28-.43,22.46,22.46,0,0,0-8,2.25,33.8,33.8,0,0,0-7.5,5.34,35.27,35.27,0,0,0-7.4,10.38,48,48,0,0,0-2.51,6.05c-.56.74-1.15,1.48-1.78,2.24a58.83,58.83,0,0,1-5.8,6,39.09,39.09,0,0,1-6.17,4.54,15.21,15.21,0,0,1-5.84,2.14,5.56,5.56,0,0,1-2.11-.21,4.85,4.85,0,0,1-2-1.23,6.55,6.55,0,0,1-1.46-2.41,11.12,11.12,0,0,1-.54-3.74,22.48,22.48,0,0,1,.63-5.14,11.66,11.66,0,0,0,4.44-.26,21,21,0,0,0,6.44-2.73,17.11,17.11,0,0,0,4.29-3.42,23,23,0,0,0,3-4.17,17.29,17.29,0,0,0,1.74-4.34,13.2,13.2,0,0,0,.46-3.9,5.45,5.45,0,0,0-.92-2.89,7.42,7.42,0,0,0-1.91-1.92,12.65,12.65,0,0,0-2.11-1.18c-.67-.28-1.12-.46-1.37-.53a8.29,8.29,0,0,0-3.83-.17,11.64,11.64,0,0,0-3.7,1.45,19.47,19.47,0,0,0-3.38,2.57,37.5,37.5,0,0,0-3,3.1,51.43,51.43,0,0,0-6.12,9.09,35.49,35.49,0,0,0-3,7.43,27,27,0,0,0-1,7.11,18.54,18.54,0,0,0,1,6.1A12.42,12.42,0,0,0,424,214.7a11.2,11.2,0,0,0,4.7,2.83,14.7,14.7,0,0,0,6.58.38,19.21,19.21,0,0,0,8.31-3,36.23,36.23,0,0,0,7-6.05c1.1-1.21,2.13-2.46,3.11-3.75a15.63,15.63,0,0,0,.91,5.41,12,12,0,0,0,2.42,4,8.75,8.75,0,0,0,3.38,2.3,8,8,0,0,0,3.79.48q2.1-.31,5.3-3.15a70.71,70.71,0,0,0,6.67-6.9,10.37,10.37,0,0,0,2.19,7.27c1.59,1.93,4,2.89,7.4,2.89a12.72,12.72,0,0,0,6.76-2,30.68,30.68,0,0,0,6.22-5.19q.93-1,1.83-2.1a17.65,17.65,0,0,0,2,4.4,11.62,11.62,0,0,0,3.42,3.58,8.07,8.07,0,0,0,4.57,1.34,10.63,10.63,0,0,0,5.44-1.92,38,38,0,0,0,6.16-5,70.34,70.34,0,0,0,6.12-6.9,79.08,79.08,0,0,0,5.39-7.75,48.41,48.41,0,0,0,3.79-7.49,17,17,0,0,0,1.42-6,26.09,26.09,0,0,0-.59-6,11,11,0,0,0-1.65-3.85M434.41,189.24a38.42,38.42,0,0,1,4.11-5.35,26.4,26.4,0,0,1,3.84-3.47,4.49,4.49,0,0,1,2.55-1.13,3,3,0,0,1,.28,1.13,5.89,5.89,0,0,1-.28,2.14,15.84,15.84,0,0,1-1.37,3.21,25.15,25.15,0,0,1-3,4.22,16.88,16.88,0,0,1-5.34,4.39,16.33,16.33,0,0,1-4.16,1.49,36.27,36.27,0,0,1,3.38-6.63m51.89-4.92c-.43.93-1.13,2.21-2.1,3.85s-2.07,3.39-3.29,5.24-2.54,3.75-4,5.67-2.82,3.67-4.16,5.24a37.73,37.73,0,0,1-3.79,3.91,5.11,5.11,0,0,1-3,1.55q-2.83.1-2.83-3.43a16.8,16.8,0,0,1,.91-4.92,39.39,39.39,0,0,1,2.51-6,58.47,58.47,0,0,1,3.66-6.09,32.57,32.57,0,0,1,4.34-5.19,19,19,0,0,1,4.66-3.37,6.55,6.55,0,0,1,4.56-.64,3.62,3.62,0,0,1,1.05.64,4.87,4.87,0,0,1,.92,1.07,4.94,4.94,0,0,1,.59,1.29,1.56,1.56,0,0,1-.09,1.17m139.32,9.52q-1.92,2.9-4.38,5.94a56.67,56.67,0,0,1-4.89,5.34,20.34,20.34,0,0,1-4.48,3.37c-1.37.72-2.39.68-3.06-.1a4.66,4.66,0,0,1-.91-3.1,17.45,17.45,0,0,1,1.32-6q1.32-3.47,3-7t3.24-6.42a27.58,27.58,0,0,0,2-4.44,6.36,6.36,0,0,0,.14-3.74,8.89,8.89,0,0,0-1.42-2.78,13.72,13.72,0,0,0-2.56-2.46l-.36-.21a1.55,1.55,0,0,0-.82-.22q-1.38-.21-4.12,2.46a82.08,82.08,0,0,0-6.07,6.79q-3.33,4.13-6.9,8.94c-2.37,3.2-4.54,6.18-6.48,8.92s-3.57,5-4.85,6.85a14.81,14.81,0,0,1-2,2.62,9.32,9.32,0,0,1,.87-2.25q1-2.13,2.51-5.66c1-2.36,2.16-5.05,3.38-8.08s2.38-6.22,3.47-9.57A12.55,12.55,0,0,0,593,179a5.84,5.84,0,0,0-1.47-4.27,8.36,8.36,0,0,0-3.29-2.14,12.22,12.22,0,0,0-4.65-.65,1.85,1.85,0,0,0-1,.54,1.21,1.21,0,0,0-.14,1.28,3.47,3.47,0,0,0,1,1.56,2,2,0,0,1,.64,1.87,25.1,25.1,0,0,1-1.69,5.72q-1.32,3.26-3,6.74c-1,2.15-2.06,4.31-3.14,6.46-.64.87-1.32,1.74-2.06,2.63a58.83,58.83,0,0,1-5.8,6,39.09,39.09,0,0,1-6.17,4.54,15.19,15.19,0,0,1-5.85,2.14,5.49,5.49,0,0,1-2.1-.21,4.85,4.85,0,0,1-2-1.23,6.42,6.42,0,0,1-1.46-2.41,10.86,10.86,0,0,1-.55-3.74,22,22,0,0,1,.64-5.14,11.6,11.6,0,0,0,4.43-.26,20.85,20.85,0,0,0,6.44-2.73,17,17,0,0,0,4.3-3.42,23.52,23.52,0,0,0,3-4.17,18.08,18.08,0,0,0,1.74-4.34,13.51,13.51,0,0,0,.45-3.9,5.44,5.44,0,0,0-.91-2.89,7.61,7.61,0,0,0-1.92-1.92,12.58,12.58,0,0,0-2.1-1.18c-.67-.28-1.13-.46-1.37-.53a8.33,8.33,0,0,0-3.84-.17,11.73,11.73,0,0,0-3.7,1.45,20.26,20.26,0,0,0-3.38,2.57,41.11,41.11,0,0,0-3,3.1,52.54,52.54,0,0,0-6.12,9.09,35.44,35.44,0,0,0-3,7.43,27,27,0,0,0-1,7.11,18.54,18.54,0,0,0,1,6.1,12.55,12.55,0,0,0,2.83,4.71,11.3,11.3,0,0,0,4.71,2.83,14.7,14.7,0,0,0,6.58.38,19.26,19.26,0,0,0,8.31-3,36.53,36.53,0,0,0,7-6.05c.13-.14.25-.3.39-.45q0,.39,0,.78a8.29,8.29,0,0,0,2.15,6,7.86,7.86,0,0,0,6,2.25,3.69,3.69,0,0,0,2.15-1.28,31,31,0,0,0,2.88-3.32c1-1.35,2.13-2.87,3.28-4.54s2.29-3.34,3.39-5l3.06-4.6c.94-1.42,1.72-2.56,2.33-3.42q4-5.67,6.89-9.2t4.89-5.56c-.36.57-.78,1.2-1.23,1.87s-1,1.41-1.51,2.2a67.34,67.34,0,0,0-6.17,11.39,36.34,36.34,0,0,0-2.78,10.53,15.79,15.79,0,0,0,1.28,7.92q1.54,3.19,5.66,3.2a15,15,0,0,0,7.86-2.19,31.4,31.4,0,0,0,6.71-5.45,48.14,48.14,0,0,0,5.48-7.06,76.41,76.41,0,0,0,4.07-7.11Zm-70.35-4.6a37.69,37.69,0,0,1,4.12-5.35,26.92,26.92,0,0,1,3.83-3.47,4.51,4.51,0,0,1,2.56-1.13,3.49,3.49,0,0,1,.28,1.13,6.37,6.37,0,0,1-.28,2.14,15.84,15.84,0,0,1-1.37,3.21,25.74,25.74,0,0,1-3,4.22,16.8,16.8,0,0,1-5.35,4.39,16.29,16.29,0,0,1-4.15,1.49,36.87,36.87,0,0,1,3.37-6.63"/><path class="cls-2" d="M304.76,0c.34,37.84,8.39,66.43,5.26,99.12-9.78-4.1-3.58-32.52-6.75-42.91-.32-1.4-3-.17-3.14-1.78.29-18.3-6.59-42.77,1.61-54.25Z"/><path class="cls-2" d="M266.18,12.17c1.65,4.62,4.5,26.05,0,31.5.83,9.85,3.46,20.07,5.94,30.17,2.2,8.94,8.17,20.41,1.68,26.48-8.42-6.22-7.09-27.17-8.51-38.87-.67-5.5-.25-10.76-2-15.63-2.93-8.14-14.19-19.79-7.14-33l1,15.69c2.19-1.82-.11-7.51.32-10.85,2.87-1.38-.62,13.24,3.88,13.55,3.41-4,.83-13.31-.17-18.7,5.31,1.83.41,14.94,4.19,18.45,3.6-4.16-.08-11.1.83-18.75"/><path class="cls-2" d="M347.58,7.26c10.34,7.75,5.21,26.48-3,31.69-2.85,17.32,4.87,43.76-2.43,57.25-6.57-6.61-2.47-17.53-1.67-26.48S344,49.05,342.66,41c-1-6.2-7.35-11-8.09-16.25-1.31-9.17,3.51-18.72,13-17.52"/><path class="cls-2" d="M217.37,37.75c16.14,10.91,24.81,35.49,24.07,61.56-7.13-21.51-14.09-43.2-24.07-61.56"/><path class="cls-2" d="M177.7,80.51c12.74,7.08,3.34-12.7,0,0m30-4.76c6.56-1.6,12.05-8.57,19.79-6.11C225.66,76.75,215.9,77,210,80.53c3.12,13.34,8,24.68,8.63,40.83-16.67.92-32.07.44-45.53-2.18,1.3-5.06,8.64-4.91,9.43-10.41-10.09-2.6-20.44,6.8-30,4.76-3.37-31.38,15.4-51.6,30.89-69.79,11.2,7.21,18.6,18.63,24.21,32"/><path class="cls-2" d="M386.75,36.41c1.69-.47,1.94.65,2.13,1.84-7.83,10.86-12.38,24.55-13.53,41.18-7.54-16.82,1.71-34.91,11.4-43"/><path class="cls-2" d="M312.76,46.77c9.43-1.32,16.2.3,25.18-.53.17,2.31-1.54,3-.63,5.94-7.76-.51-15.33-1.25-24.24-.5Z"/><path class="cls-2" d="M295.8,49.76c-1.88,6.74-17.63,6.42-23.81,6.36,1.49-7.07,16.75-7.18,23.81-6.36"/><path class="cls-2" d="M349.12,47.54c7.52,1.14,15,2.28,21.48,4.61.56,2.34-1.7,2.24-.7,5-7.15-1.54-14.79-2.54-21.47-4.61-1-2.72,1.25-2.63.69-5"/><path class="cls-2" d="M261.19,60.71c-7.28,1.45-12.49,4.69-19.79,6.12.18-1.6-1.06-1.63-1.19-2.89,3.06-3.26,20.21-12.66,21-3.23"/><path class="cls-2" d="M384,56.26l3-.18c20.24,12.29,62.41,14.09,86.21,23.36,5.45,2.12,12.61,7.11,12.05,15-2.8.93-7.69-3.94-13.5-6.07s-11.83-3.79-19.34-2.78c9.49,4.56,22.34,5.4,23.41,19.27a48.81,48.81,0,0,0-27.06-13.14c6.12,4.87,16.67,10.15,12.54,22.87-5.18-6.17-9.64-13.14-18.14-15.64,1.78,6.82,19.47,19.49,10.09,31.88-1.84-9.87-5.89-17.29-12.48-21.89,1.28,10,13.49,38.41-.1,46.27-10.49-40.87-20.56-82.21-57.39-94-1-2.72,1.25-2.63.69-5"/><path class="cls-2" d="M177.7,80.51c3.34-12.7,12.74,7.08,0,0"/></g></g></svg>